{
.appVersion = "3221";
DisplayStrings = (

glyphs = (
{
color = 0;
glyphname = A;
lastChange = "2023-10-16 19:28:17 +0000";
layers = (
{
anchors = (
{
name = bottom;
position = "{299, -30}";
},
{
name = ogonek;
position = "{525, 10}";
},
{
name = top;
position = "{299, 794}";
}
);
associatedMasterId = "462F72A0-0500-4E69-A49B-6C2F2580580D";
layerId = "C8E13D57-C79D-4678-A318-908658594FF3";
name = Original;
paths = (
{
closed = 1;
nodes = (
"259 0 LINE SMOOTH",
"268 0 OFFCURVE",
"274 6 OFFCURVE",
"274 15 CURVE SMOOTH",
"274 228 LINE",
"324 228 LINE",
"324 15 LINE SMOOTH",
"324 6 OFFCURVE",
"330 0 OFFCURVE",
"339 0 CURVE SMOOTH",
"553 0 LINE SMOOTH",
"562 0 OFFCURVE",
"568 6 OFFCURVE",
"568 15 CURVE SMOOTH",
"568 571 LINE SMOOTH",
"568 578 OFFCURVE",
"566 583 OFFCURVE",
"562 589 CURVE SMOOTH",
"420 791 LINE SMOOTH",
"416 797 OFFCURVE",
"409 800 OFFCURVE",
"401 800 CURVE SMOOTH",
"196 800 LINE SMOOTH",
"188 800 OFFCURVE",
"181 797 OFFCURVE",
"177 791 CURVE SMOOTH",
"36 589 LINE SMOOTH",
"32 583 OFFCURVE",
"30 578 OFFCURVE",
"30 571 CURVE SMOOTH",
"30 15 LINE SMOOTH",
"30 6 OFFCURVE",
"36 0 OFFCURVE",
"45 0 CURVE SMOOTH"
);
},
{
closed = 1;
nodes = (
"266 437 OFFCURVE",
"241 463 OFFCURVE",
"241 495 CURVE SMOOTH",
"241 527 OFFCURVE",
"266 553 OFFCURVE",
"298 553 CURVE SMOOTH",
"330 553 OFFCURVE",
"356 527 OFFCURVE",
"356 495 CURVE SMOOTH",
"356 463 OFFCURVE",
"330 437 OFFCURVE",
"298 437 CURVE SMOOTH"
);
}
);
width = 598;
},
{
anchors = (
{
name = bottom;
position = "{308, -30}";
},
{
name = ogonek;
position = "{534, 10}";
},
{
name = top;
position = "{303, 794}";
}
);
associatedMasterId = "462F72A0-0500-4E69-A49B-6C2F2580580D";
layerId = "795BAFE1-3A72-4A2A-BBB9-32C5EC2E3B2A";
name = "Jun 2 22, 02:32";
paths = (
{
closed = 1;
nodes = (
"259 0 LINE SMOOTH",
"268 0 OFFCURVE",
"274 6 OFFCURVE",
"274 15 CURVE SMOOTH",
"274 228 LINE",
"332 228 LINE",
"332 15 LINE SMOOTH",
"332 6 OFFCURVE",
"338 0 OFFCURVE",
"347 0 CURVE SMOOTH",
"561 0 LINE SMOOTH",
"570 0 OFFCURVE",
"576 6 OFFCURVE",
"576 15 CURVE SMOOTH",
"576 571 LINE SMOOTH",
"576 578 OFFCURVE",
"574 583 OFFCURVE",
"570 589 CURVE SMOOTH",
"428 791 LINE SMOOTH",
"424 797 OFFCURVE",
"417 800 OFFCURVE",
"409 800 CURVE SMOOTH",
"196 800 LINE SMOOTH",
"188 800 OFFCURVE",
"181 797 OFFCURVE",
"177 791 CURVE SMOOTH",
"36 589 LINE SMOOTH",
"32 583 OFFCURVE",
"30 578 OFFCURVE",
"30 571 CURVE SMOOTH",
"30 15 LINE SMOOTH",
"30 6 OFFCURVE",
"36 0 OFFCURVE",
"45 0 CURVE SMOOTH"
);
},
{
closed = 1;
nodes = (
"269 437 OFFCURVE",
"245 461 OFFCURVE",
"245 495 CURVE SMOOTH",
"245 529 OFFCURVE",
"269 553 OFFCURVE",
"303 553 CURVE SMOOTH",
"337 553 OFFCURVE",
"361 529 OFFCURVE",
"361 495 CURVE SMOOTH",
"361 461 OFFCURVE",
"337 437 OFFCURVE",
"303 437 CURVE SMOOTH"
);
}
);
width = 606;
},
{
anchors = (
{
name = bottom;
position = "{355, -30}";
},
{
name = ogonek;
position = "{581, 10}";
},
{
name = top;
position = "{350, 794}";
}
);
guideLines = (
{
angle = 90;
position = "{350, 0}";
showMeasurement = 1;
}
);
layerId = "462F72A0-0500-4E69-A49B-6C2F2580580D";
paths = (
{
closed = 1;
nodes = (
"310 0 LINE SMOOTH",
"319 0 OFFCURVE",
"325 6 OFFCURVE",
"325 15 CURVE SMOOTH",
"325 240 LINE",
"375 240 LINE",
"375 15 LINE SMOOTH",
"375 6 OFFCURVE",
"381 0 OFFCURVE",
"390 0 CURVE SMOOTH",
"610 0 LINE SMOOTH",
"619 0 OFFCURVE",
"625 6 OFFCURVE",
"625 15 CURVE SMOOTH",
"625 571 LINE SMOOTH",
"625 578 OFFCURVE",
"623 583 OFFCURVE",
"619 589 CURVE SMOOTH",
"476 791 LINE SMOOTH",
"472 797 OFFCURVE",
"465 800 OFFCURVE",
"457 800 CURVE SMOOTH",
"242 800 LINE SMOOTH",
"234 800 OFFCURVE",
"227 797 OFFCURVE",
"223 791 CURVE SMOOTH",
"81 589 LINE SMOOTH",
"77 583 OFFCURVE",
"75 578 OFFCURVE",
"75 571 CURVE SMOOTH",
"75 15 LINE SMOOTH",
"75 6 OFFCURVE",
"81 0 OFFCURVE",
"90 0 CURVE SMOOTH"
);
},
{
closed = 1;
nodes = (
"316 448 OFFCURVE",
"292 472 OFFCURVE",
"292 506 CURVE SMOOTH",
"292 540 OFFCURVE",
"316 564 OFFCURVE",
"350 564 CURVE SMOOTH",
"384 564 OFFCURVE",
"408 540 OFFCURVE",
"408 506 CURVE SMOOTH",
"408 472 OFFCURVE",
"384 448 OFFCURVE",
"350 448 CURVE SMOOTH"
);
}
);
width = 700;
},
{
anchors = (
{
name = bottom;
position = "{299, -30}";
},
{
name = ogonek;
position = "{525, 10}";
},
{
name = top;
position = "{299, 794}";
}
);
associatedMasterId = m002;
layerId = "A8113C6D-81AB-4E55-9014-C6527FA75F3F";
name = Original;
paths = (
{
closed = 1;
nodes = (
"259 0 LINE SMOOTH",
"268 0 OFFCURVE",
"274 6 OFFCURVE",
"274 15 CURVE SMOOTH",
"274 228 LINE",
"324 228 LINE",
"324 15 LINE SMOOTH",
"324 6 OFFCURVE",
"330 0 OFFCURVE",
"339 0 CURVE SMOOTH",
"553 0 LINE SMOOTH",
"562 0 OFFCURVE",
"568 6 OFFCURVE",
"568 15 CURVE SMOOTH",
"568 571 LINE SMOOTH",
"568 578 OFFCURVE",
"566 583 OFFCURVE",
"562 589 CURVE SMOOTH",
"420 791 LINE SMOOTH",
"416 797 OFFCURVE",
"409 800 OFFCURVE",
"401 800 CURVE SMOOTH",
"196 800 LINE SMOOTH",
"188 800 OFFCURVE",
"181 797 OFFCURVE",
"177 791 CURVE SMOOTH",
"36 589 LINE SMOOTH",
"32 583 OFFCURVE",
"30 578 OFFCURVE",
"30 571 CURVE SMOOTH",
"30 15 LINE SMOOTH",
"30 6 OFFCURVE",
"36 0 OFFCURVE",
"45 0 CURVE SMOOTH"
);
},
{
closed = 1;
nodes = (
"266 437 OFFCURVE",
"241 463 OFFCURVE",
"241 495 CURVE SMOOTH",
"241 527 OFFCURVE",
"266 553 OFFCURVE",
"298 553 CURVE SMOOTH",
"330 553 OFFCURVE",
"356 527 OFFCURVE",
"356 495 CURVE SMOOTH",
"356 463 OFFCURVE",
"330 437 OFFCURVE",
"298 437 CURVE SMOOTH"
);
}
);
width = 598;
},
{
anchors = (
{
name = bottom;
position = "{308, -30}";
},
{
name = ogonek;
position = "{534, 10}";
},
{
name = top;
position = "{303, 794}";
}
);
associatedMasterId = m002;
layerId = "CE724D9E-50D4-4E90-B553-3E1D9AD2CCD1";
name = "Jun 2 22, 02:32";
paths = (
{
closed = 1;
nodes = (
"259 0 LINE SMOOTH",
"268 0 OFFCURVE",
"274 6 OFFCURVE",
"274 15 CURVE SMOOTH",
"274 228 LINE",
"332 228 LINE",
"332 15 LINE SMOOTH",
"332 6 OFFCURVE",
"338 0 OFFCURVE",
"347 0 CURVE SMOOTH",
"561 0 LINE SMOOTH",
"570 0 OFFCURVE",
"576 6 OFFCURVE",
"576 15 CURVE SMOOTH",
"576 571 LINE SMOOTH",
"576 578 OFFCURVE",
"574 583 OFFCURVE",
"570 589 CURVE SMOOTH",
"428 791 LINE SMOOTH",
"424 797 OFFCURVE",
"417 800 OFFCURVE",
"409 800 CURVE SMOOTH",
"196 800 LINE SMOOTH",
"188 800 OFFCURVE",
"181 797 OFFCURVE",
"177 791 CURVE SMOOTH",
"36 589 LINE SMOOTH",
"32 583 OFFCURVE",
"30 578 OFFCURVE",
"30 571 CURVE SMOOTH",
"30 15 LINE SMOOTH",
"30 6 OFFCURVE",
"36 0 OFFCURVE",
"45 0 CURVE SMOOTH"
);
},
{
closed = 1;
nodes = (
"269 437 OFFCURVE",
"245 461 OFFCURVE",
"245 495 CURVE SMOOTH",
"245 529 OFFCURVE",
"269 553 OFFCURVE",
"303 553 CURVE SMOOTH",
"337 553 OFFCURVE",
"361 529 OFFCURVE",
"361 495 CURVE SMOOTH",
"361 461 OFFCURVE",
"337 437 OFFCURVE",
"303 437 CURVE SMOOTH"
);
}
);
width = 606;
},
{
anchors = (
{
name = bottom;
position = "{305, -30}";
},
{
name = ogonek;
position = "{531, 10}";
},
{
name = top;
position = "{300, 794}";
}
);
guideLines = (
{
angle = 90;
position = "{300, 0}";
showMeasurement = 1;
}
);
layerId = m002;
paths = (
{
closed = 1;
nodes = (
"260 0 LINE SMOOTH",
"269 0 OFFCURVE",
"275 6 OFFCURVE",
"275 15 CURVE SMOOTH",
"275 240 LINE",
"325 240 LINE",
"325 15 LINE SMOOTH",
"325 6 OFFCURVE",
"331 0 OFFCURVE",
"340 0 CURVE SMOOTH",
"560 0 LINE SMOOTH",
"569 0 OFFCURVE",
"575 6 OFFCURVE",
"575 15 CURVE SMOOTH",
"575 571 LINE SMOOTH",
"575 578 OFFCURVE",
"573 583 OFFCURVE",
"569 589 CURVE SMOOTH",
"426 791 LINE SMOOTH",
"422 797 OFFCURVE",
"415 800 OFFCURVE",
"407 800 CURVE SMOOTH",
"192 800 LINE SMOOTH",
"184 800 OFFCURVE",
"177 797 OFFCURVE",
"173 791 CURVE SMOOTH",
"31 589 LINE SMOOTH",
"27 583 OFFCURVE",
"25 578 OFFCURVE",
"25 571 CURVE SMOOTH",
"25 15 LINE SMOOTH",
"25 6 OFFCURVE",
"31 0 OFFCURVE",
"40 0 CURVE SMOOTH"
);
},
{
closed = 1;
nodes = (
"266 448 OFFCURVE",
"242 472 OFFCURVE",
"242 506 CURVE SMOOTH",
"242 540 OFFCURVE",
"266 564 OFFCURVE",
"300 564 CURVE SMOOTH",
"334 564 OFFCURVE",
"358 540 OFFCURVE",
"358 506 CURVE SMOOTH",
"358 472 OFFCURVE",
"334 448 OFFCURVE",
"300 448 CURVE SMOOTH"
);
}
);
width = 600;
}
);
leftMetricsKey = H;
rightMetricsKey = H;
unicode = 0041;
},
{
glyphname = "Alpha-latin";
lastChange = "2023-10-16 21:48:54 +0000";
layers = (
{
anchors = (
{
name = bottom;
position = "{8495, -30}";
},
{
name = center;
position = "{8495, 400}";
},
{
name = ogonek;
position = "{8726, 10}";
},
{
name = top;
position = "{8495, 800}";
},
{
name = topleft;
position = "{8226, 800}";
},
{
name = topright;
position = "{8741, 790}";
}
);
layerId = "462F72A0-0500-4E69-A49B-6C2F2580580D";
width = 8857;
},
{
anchors = (
{
name = bottom;
position = "{705, -30}";
},
{
name = center;
position = "{705, 400}";
},
{
name = ogonek;
position = "{936, 10}";
},
{
name = top;
position = "{705, 800}";
},
{
name = topleft;
position = "{436, 800}";
},
{
name = topright;
position = "{951, 790}";
}
);
layerId = m002;
paths = (
{
closed = 1;
nodes = (
"325 243 LINE",
"300 243 LINE SMOOTH",
"282 243 OFFCURVE",
"275 255 OFFCURVE",
"275 277 CURVE SMOOTH",
"275 526 LINE SMOOTH",
"275 548 OFFCURVE",
"282 560 OFFCURVE",
"300 560 CURVE SMOOTH",
"325 560 LINE"
);
},
{
closed = 1;
nodes = (
"25 147 OFFCURVE",
"28 140 OFFCURVE",
"35 133 CURVE SMOOTH",
"155 13 LINE SMOOTH",
"162 6 OFFCURVE",
"169 3 OFFCURVE",
"179 3 CURVE SMOOTH",
"271 3 LINE SMOOTH",
"281 3 OFFCURVE",
"288 6 OFFCURVE",
"295 13 CURVE SMOOTH",
"415 133 LINE",
"535 13 LINE SMOOTH",
"542 6 OFFCURVE",
"549 3 OFFCURVE",
"559 3 CURVE SMOOTH",
"602 3 LINE SMOOTH",
"610 3 OFFCURVE",
"617 10 OFFCURVE",
"617 18 CURVE SMOOTH",
"617 228 LINE SMOOTH",
"617 236 OFFCURVE",
"610 243 OFFCURVE",
"602 243 CURVE SMOOTH",
"575 243 LINE",
"575 560 LINE",
"602 560 LINE SMOOTH",
"610 560 OFFCURVE",
"617 567 OFFCURVE",
"617 575 CURVE SMOOTH",
"617 785 LINE SMOOTH",
"617 793 OFFCURVE",
"610 800 OFFCURVE",
"602 800 CURVE SMOOTH",
"559 800 LINE SMOOTH",
"549 800 OFFCURVE",
"542 797 OFFCURVE",
"535 790 CURVE SMOOTH",
"415 670 LINE",
"295 790 LINE SMOOTH",
"288 797 OFFCURVE",
"281 800 OFFCURVE",
"271 800 CURVE SMOOTH",
"179 800 LINE SMOOTH",
"169 800 OFFCURVE",
"162 797 OFFCURVE",
"155 790 CURVE SMOOTH",
"35 670 LINE SMOOTH",
"28 663 OFFCURVE",
"25 656 OFFCURVE",
"25 646 CURVE SMOOTH",
"25 157 LINE SMOOTH"
);
}
);
width = 642;
}
);
leftMetricsKey = "=O";
unicode = "2C6D,0251";
},
{
glyphname = Astroke;
lastChange = "2023-10-05 19:45:44 +0000";
layers = (
{
components = (
{
name = A;
}
);
layerId = "462F72A0-0500-4E69-A49B-6C2F2580580D";
paths = (
{
closed = 1;
nodes = (
"471 621 LINE SMOOTH",
"479 621 OFFCURVE",
"485 623 OFFCURVE",
"489 631 CURVE SMOOTH",
"573 782 LINE SMOOTH",
"579 793 OFFCURVE",
"573 800 OFFCURVE",
"562 800 CURVE SMOOTH",
"495 800 LINE SMOOTH",
"487 800 OFFCURVE",
"481 798 OFFCURVE",
"477 790 CURVE SMOOTH",
"393 639 LINE SMOOTH",
"387 628 OFFCURVE",
"392 621 OFFCURVE",
"403 621 CURVE SMOOTH"
);
},
{
closed = 1;
nodes = (
"123 -59 LINE SMOOTH",
"131 -59 OFFCURVE",
"137 -57 OFFCURVE",
"141 -49 CURVE SMOOTH",
"225 102 LINE SMOOTH",
"231 113 OFFCURVE",
"225 120 OFFCURVE",
"214 120 CURVE SMOOTH",
"147 120 LINE SMOOTH",
"139 120 OFFCURVE",
"133 118 OFFCURVE",
"129 110 CURVE SMOOTH",
"45 -41 LINE SMOOTH",
"39 -52 OFFCURVE",
"44 -59 OFFCURVE",
"55 -59 CURVE SMOOTH"
);
}
);
width = 564;
},
{
components = (
{
name = A;
}
);
layerId = m002;
paths = (
{
closed = 1;
nodes = (
"471 621 LINE SMOOTH",
"479 621 OFFCURVE",
"485 623 OFFCURVE",
"489 631 CURVE SMOOTH",
"573 782 LINE SMOOTH",
"579 793 OFFCURVE",
"573 800 OFFCURVE",
"562 800 CURVE SMOOTH",
"495 800 LINE SMOOTH",
"487 800 OFFCURVE",
"481 798 OFFCURVE",
"477 790 CURVE SMOOTH",
"393 639 LINE SMOOTH",
"387 628 OFFCURVE",
"392 621 OFFCURVE",
"403 621 CURVE SMOOTH"
);
},
{
closed = 1;
nodes = (
"123 -59 LINE SMOOTH",
"131 -59 OFFCURVE",
"137 -57 OFFCURVE",
"141 -49 CURVE SMOOTH",
"225 102 LINE SMOOTH",
"231 113 OFFCURVE",
"225 120 OFFCURVE",
"214 120 CURVE SMOOTH",
"147 120 LINE SMOOTH",
"139 120 OFFCURVE",
"133 118 OFFCURVE",
"129 110 CURVE SMOOTH",
"45 -41 LINE SMOOTH",
"39 -52 OFFCURVE",
"44 -59 OFFCURVE",
"55 -59 CURVE SMOOTH"
);
}
);
width = 564;
}
);
unicode = "023A,2C65";
},
{
glyphname = AE;
lastChange = "2023-10-12 19:39:25 +0000";
layers = (
{
anchors = (
{
name = bottom;
position = "{453, 0}";
},
{
name = top;
position = "{453, 800}";
}
);
annotations = (
{
position = "{854, 522}";
type = Arrow;
}
);
layerId = "462F72A0-0500-4E69-A49B-6C2F2580580D";
paths = (
{
closed = 1;
nodes = (
"304 0 LINE SMOOTH",
"313 0 OFFCURVE",
"319 6 OFFCURVE",
"319 15 CURVE SMOOTH",
"319 228 LINE",
"369 228 LINE",
"369 15 LINE SMOOTH",
"369 6 OFFCURVE",
"375 0 OFFCURVE",
"384 0 CURVE SMOOTH",
"816 1 LINE",
"824 1 OFFCURVE",
"831 8 OFFCURVE",
"831 16 CURVE SMOOTH",
"831 218 LINE SMOOTH",
"831 226 OFFCURVE",
"824 233 OFFCURVE",
"816 233 CURVE SMOOTH",
"616 233 LINE",
"616 279 LINE",
"802 279 LINE SMOOTH",
"810 279 OFFCURVE",
"817 286 OFFCURVE",
"817 294 CURVE SMOOTH",
"817 487 LINE SMOOTH",
"817 495 OFFCURVE",
"810 502 OFFCURVE",
"802 502 CURVE SMOOTH",
"616 502 LINE",
"616 556 LINE",
"802 556 LINE SMOOTH",
"810 556 OFFCURVE",
"817 563 OFFCURVE",
"817 571 CURVE SMOOTH",
"817 785 LINE SMOOTH",
"817 793 OFFCURVE",
"810 800 OFFCURVE",
"802 800 CURVE SMOOTH",
"241 800 LINE SMOOTH",
"233 800 OFFCURVE",
"226 797 OFFCURVE",
"222 791 CURVE SMOOTH",
"81 589 LINE SMOOTH",
"77 583 OFFCURVE",
"75 578 OFFCURVE",
"75 571 CURVE SMOOTH",
"75 15 LINE SMOOTH",
"75 6 OFFCURVE",
"81 0 OFFCURVE",
"90 0 CURVE SMOOTH"
);
},
{
closed = 1;
nodes = (
"321 437 OFFCURVE",
"296 463 OFFCURVE",
"296 495 CURVE SMOOTH",
"296 527 OFFCURVE",
"321 553 OFFCURVE",
"353 553 CURVE SMOOTH",
"385 553 OFFCURVE",
"411 527 OFFCURVE",
"411 495 CURVE SMOOTH",
"411 463 OFFCURVE",
"385 437 OFFCURVE",
"353 437 CURVE SMOOTH"
);
}
);
width = 906;
},
{
anchors = (
{
name = bottom;
position = "{403, 0}";
},
{
name = top;
position = "{403, 800}";
}
);
annotations = (
{
position = "{854, 522}";
type = Arrow;
}
);
layerId = m002;
paths = (
{
closed = 1;
nodes = (
"254 0 LINE SMOOTH",
"263 0 OFFCURVE",
"269 6 OFFCURVE",
"269 15 CURVE SMOOTH",
"269 228 LINE",
"319 228 LINE",
"319 15 LINE SMOOTH",
"319 6 OFFCURVE",
"325 0 OFFCURVE",
"334 0 CURVE SMOOTH",
"766 1 LINE",
"774 1 OFFCURVE",
"781 8 OFFCURVE",
"781 16 CURVE SMOOTH",
"781 218 LINE SMOOTH",
"781 226 OFFCURVE",
"774 233 OFFCURVE",
"766 233 CURVE SMOOTH",
"566 233 LINE",
"566 279 LINE",
"752 279 LINE SMOOTH",
"760 279 OFFCURVE",
"767 286 OFFCURVE",
"767 294 CURVE SMOOTH",
"767 487 LINE SMOOTH",
"767 495 OFFCURVE",
"760 502 OFFCURVE",
"752 502 CURVE SMOOTH",
"566 502 LINE",
"566 556 LINE",
"752 556 LINE SMOOTH",
"760 556 OFFCURVE",
"767 563 OFFCURVE",
"767 571 CURVE SMOOTH",
"767 785 LINE SMOOTH",
"767 793 OFFCURVE",
"760 800 OFFCURVE",
"752 800 CURVE SMOOTH",
"191 800 LINE SMOOTH",
"183 800 OFFCURVE",
"176 797 OFFCURVE",
"172 791 CURVE SMOOTH",
"31 589 LINE SMOOTH",
"27 583 OFFCURVE",
"25 578 OFFCURVE",
"25 571 CURVE SMOOTH",
"25 15 LINE SMOOTH",
"25 6 OFFCURVE",
"31 0 OFFCURVE",
"40 0 CURVE SMOOTH"
);
},
{
closed = 1;
nodes = (
"271 437 OFFCURVE",
"246 463 OFFCURVE",
"246 495 CURVE SMOOTH",
"246 527 OFFCURVE",
"271 553 OFFCURVE",
"303 553 CURVE SMOOTH",
"335 553 OFFCURVE",
"361 527 OFFCURVE",
"361 495 CURVE SMOOTH",
"361 463 OFFCURVE",
"335 437 OFFCURVE",
"303 437 CURVE SMOOTH"
);
}
);
width = 806;
}
);
leftMetricsKey = "=A";
rightMetricsKey = "=E";
unicode = "00C6,00E6";
},
{
color = 0;
glyphname = B;
lastChange = "2023-10-16 19:28:17 +0000";
layers = (
{
anchors = (
{
name = bottom;
position = "{339, -30}";
},
{
name = center;
position = "{325, 400}";
},
{
name = top;
position = "{339, 800}";
}
);
layerId = "462F72A0-0500-4E69-A49B-6C2F2580580D";
paths = (
{
closed = 1;
nodes = (
"471 0 LINE SMOOTH",
"481 0 OFFCURVE",
"488 3 OFFCURVE",
"495 10 CURVE SMOOTH",
"615 130 LINE SMOOTH",
"622 137 OFFCURVE",
"625 144 OFFCURVE",
"625 154 CURVE SMOOTH",
"625 278 LINE SMOOTH",
"625 286 OFFCURVE",
"622 289 OFFCURVE",
"615 296 CURVE SMOOTH",
"521 380 LINE",
"521 418 LINE",
"615 502 LINE SMOOTH",
"622 509 OFFCURVE",
"625 512 OFFCURVE",
"625 520 CURVE SMOOTH",
"625 646 LINE SMOOTH",
"625 656 OFFCURVE",
"622 663 OFFCURVE",
"615 670 CURVE SMOOTH",
"495 790 LINE SMOOTH",
"488 797 OFFCURVE",
"481 800 OFFCURVE",
"471 800 CURVE SMOOTH",
"90 800 LINE SMOOTH",
"81 800 OFFCURVE",
"75 794 OFFCURVE",
"75 785 CURVE SMOOTH",
"75 15 LINE SMOOTH",
"75 6 OFFCURVE",
"81 0 OFFCURVE",
"90 0 CURVE SMOOTH"
);
},
{
closed = 1;
nodes = (
"318 199 OFFCURVE",
"295 222 OFFCURVE",
"295 254 CURVE SMOOTH",
"295 286 OFFCURVE",
"318 309 OFFCURVE",
"350 309 CURVE SMOOTH",
"382 309 OFFCURVE",
"405 286 OFFCURVE",
"405 254 CURVE SMOOTH",
"405 222 OFFCURVE",
"382 199 OFFCURVE",
"350 199 CURVE SMOOTH"
);
},
{
closed = 1;
nodes = (
"317 494 OFFCURVE",
"295 516 OFFCURVE",
"295 546 CURVE SMOOTH",
"295 576 OFFCURVE",
"317 598 OFFCURVE",
"347 598 CURVE SMOOTH",
"377 598 OFFCURVE",
"399 576 OFFCURVE",
"399 546 CURVE SMOOTH",
"399 516 OFFCURVE",
"377 494 OFFCURVE",
"347 494 CURVE SMOOTH"
);
}
);
width = 650;
},
{
anchors = (
{
name = bottom;
position = "{294, -30}";
},
{
name = top;
position = "{294, 800}";
}
);
associatedMasterId = "462F72A0-0500-4E69-A49B-6C2F2580580D";
layerId = "026E329D-2B5C-4FE7-9435-E8D1099B0E0A";
name = Original;
paths = (
{
closed = 1;
nodes = (
"273 474 OFFCURVE",
"250 497 OFFCURVE",
"250 526 CURVE SMOOTH",
"250 554 OFFCURVE",
"273 578 OFFCURVE",
"301 578 CURVE SMOOTH",
"330 578 OFFCURVE",
"353 554 OFFCURVE",
"353 526 CURVE SMOOTH",
"353 497 OFFCURVE",
"330 474 OFFCURVE",
"301 474 CURVE SMOOTH"
);
},
{
closed = 1;
nodes = (
"425 0 OFFCURVE",
"432 2 OFFCURVE",
"437 7 CURVE SMOOTH",
"571 133 LINE SMOOTH",
"577 138 OFFCURVE",
"579 144 OFFCURVE",
"579 151 CURVE SMOOTH",
"579 319 LINE SMOOTH",
"579 327 OFFCURVE",
"577 331 OFFCURVE",
"569 337 CURVE SMOOTH",
"475 416 LINE",
"475 454 LINE",
"569 533 LINE SMOOTH",
"577 539 OFFCURVE",
"579 543 OFFCURVE",
"579 551 CURVE SMOOTH",
"579 649 LINE SMOOTH",
"579 656 OFFCURVE",
"577 662 OFFCURVE",
"571 667 CURVE SMOOTH",
"437 793 LINE SMOOTH",
"432 798 OFFCURVE",
"425 800 OFFCURVE",
"418 800 CURVE SMOOTH",
"45 800 LINE SMOOTH",
"36 800 OFFCURVE",
"30 794 OFFCURVE",
"30 785 CURVE SMOOTH",
"30 15 LINE SMOOTH",
"30 6 OFFCURVE",
"36 0 OFFCURVE",
"45 0 CURVE SMOOTH",
"418 0 LINE SMOOTH"
);
},
{
closed = 1;
nodes = (
"274 201 OFFCURVE",
"250 226 OFFCURVE",
"250 256 CURVE SMOOTH",
"250 286 OFFCURVE",
"274 311 OFFCURVE",
"304 311 CURVE SMOOTH",
"334 311 OFFCURVE",
"359 286 OFFCURVE",
"359 256 CURVE SMOOTH",
"359 226 OFFCURVE",
"334 201 OFFCURVE",
"304 201 CURVE SMOOTH"
);
}
);
width = 603;
},
{
anchors = (
{
name = bottom;
position = "{294, -30}";
},
{
name = top;
position = "{294, 800}";
}
);
associatedMasterId = "462F72A0-0500-4E69-A49B-6C2F2580580D";
layerId = "A7D4A0FD-8058-4D74-8696-0FC5069394CB";
name = "Jun 2 22, 03:23";
paths = (
{
closed = 1;
nodes = (
"418 0 LINE SMOOTH",
"425 0 OFFCURVE",
"432 2 OFFCURVE",
"437 7 CURVE SMOOTH",
"571 133 LINE SMOOTH",
"577 138 OFFCURVE",
"579 144 OFFCURVE",
"579 151 CURVE SMOOTH",
"579 319 LINE SMOOTH",
"579 327 OFFCURVE",
"577 331 OFFCURVE",
"569 337 CURVE SMOOTH",
"475 416 LINE",
"475 454 LINE",
"569 533 LINE SMOOTH",
"577 539 OFFCURVE",
"579 543 OFFCURVE",
"579 551 CURVE SMOOTH",
"579 649 LINE SMOOTH",
"579 656 OFFCURVE",
"577 662 OFFCURVE",
"571 667 CURVE SMOOTH",
"437 793 LINE SMOOTH",
"432 798 OFFCURVE",
"425 800 OFFCURVE",
"418 800 CURVE SMOOTH",
"45 800 LINE SMOOTH",
"36 800 OFFCURVE",
"30 794 OFFCURVE",
"30 785 CURVE SMOOTH",
"30 15 LINE SMOOTH",
"30 6 OFFCURVE",
"36 0 OFFCURVE",
"45 0 CURVE SMOOTH"
);
},
{
closed = 1;
nodes = (
"273 201 OFFCURVE",
"250 224 OFFCURVE",
"250 256 CURVE SMOOTH",
"250 288 OFFCURVE",
"273 311 OFFCURVE",
"305 311 CURVE SMOOTH",
"337 311 OFFCURVE",
"360 288 OFFCURVE",
"360 256 CURVE SMOOTH",
"360 224 OFFCURVE",
"337 201 OFFCURVE",
"305 201 CURVE SMOOTH"
);
},
{
closed = 1;
nodes = (
"272 474 OFFCURVE",
"250 496 OFFCURVE",
"250 526 CURVE SMOOTH",
"250 556 OFFCURVE",
"272 578 OFFCURVE",
"302 578 CURVE SMOOTH",
"332 578 OFFCURVE",
"354 556 OFFCURVE",
"354 526 CURVE SMOOTH",
"354 496 OFFCURVE",
"332 474 OFFCURVE",
"302 474 CURVE SMOOTH"
);
}
);
width = 603;
},
{
anchors = (
{
name = bottom;
position = "{294, -30}";
},
{
name = top;
position = "{294, 800}";
}
);
associatedMasterId = "462F72A0-0500-4E69-A49B-6C2F2580580D";
layerId = "FB87AFEF-1758-49B1-960F-0C92596B4041";
name = "Jun 4 22, 21:31";
paths = (
{
closed = 1;
nodes = (
"45 800 LINE SMOOTH",
"36 800 OFFCURVE",
"30 794 OFFCURVE",
"30 785 CURVE SMOOTH",
"30 15 LINE SMOOTH",
"30 6 OFFCURVE",
"36 0 OFFCURVE",
"45 0 CURVE SMOOTH",
"418 0 LINE SMOOTH",
"425 0 OFFCURVE",
"432 2 OFFCURVE",
"437 7 CURVE SMOOTH",
"571 133 LINE SMOOTH",
"577 138 OFFCURVE",
"579 144 OFFCURVE",
"579 151 CURVE SMOOTH",
"579 319 LINE SMOOTH",
"579 327 OFFCURVE",
"577 331 OFFCURVE",
"569 337 CURVE SMOOTH",
"475 416 LINE",
"475 454 LINE",
"569 533 LINE SMOOTH",
"577 539 OFFCURVE",
"579 543 OFFCURVE",
"579 551 CURVE SMOOTH",
"579 644 LINE SMOOTH",
"579 657 OFFCURVE",
"578 660 OFFCURVE",
"569 668 CURVE SMOOTH",
"431 792 LINE SMOOTH",
"424 798 OFFCURVE",
"418 800 OFFCURVE",
"407 800 CURVE SMOOTH"
);
},
{
closed = 1;
nodes = (
"273 201 OFFCURVE",
"250 224 OFFCURVE",
"250 256 CURVE SMOOTH",
"250 288 OFFCURVE",
"273 311 OFFCURVE",
"305 311 CURVE SMOOTH",
"337 311 OFFCURVE",
"360 288 OFFCURVE",
"360 256 CURVE SMOOTH",
"360 224 OFFCURVE",
"337 201 OFFCURVE",
"305 201 CURVE SMOOTH"
);
},
{
closed = 1;
nodes = (
"272 474 OFFCURVE",
"250 496 OFFCURVE",
"250 526 CURVE SMOOTH",
"250 556 OFFCURVE",
"272 578 OFFCURVE",
"302 578 CURVE SMOOTH",
"332 578 OFFCURVE",
"354 556 OFFCURVE",
"354 526 CURVE SMOOTH",
"354 496 OFFCURVE",
"332 474 OFFCURVE",
"302 474 CURVE SMOOTH"
);
}
);
width = 599;
},
{
anchors = (
{
name = bottom;
position = "{289, -30}";
},
{
name = center;
position = "{300, 400}";
},
{
name = top;
position = "{289, 800}";
}
);
layerId = m002;
paths = (
{
closed = 1;
nodes = (
"421 0 LINE SMOOTH",
"431 0 OFFCURVE",
"438 3 OFFCURVE",
"445 10 CURVE SMOOTH",
"565 130 LINE SMOOTH",
"572 137 OFFCURVE",
"575 144 OFFCURVE",
"575 154 CURVE SMOOTH",
"575 278 LINE SMOOTH",
"575 286 OFFCURVE",
"572 289 OFFCURVE",
"565 296 CURVE SMOOTH",
"471 380 LINE",
"471 418 LINE",
"565 502 LINE SMOOTH",
"572 509 OFFCURVE",
"575 512 OFFCURVE",
"575 520 CURVE SMOOTH",
"575 646 LINE SMOOTH",
"575 656 OFFCURVE",
"572 663 OFFCURVE",
"565 670 CURVE SMOOTH",
"445 790 LINE SMOOTH",
"438 797 OFFCURVE",
"431 800 OFFCURVE",
"421 800 CURVE SMOOTH",
"40 800 LINE SMOOTH",
"31 800 OFFCURVE",
"25 794 OFFCURVE",
"25 785 CURVE SMOOTH",
"25 15 LINE SMOOTH",
"25 6 OFFCURVE",
"31 0 OFFCURVE",
"40 0 CURVE SMOOTH"
);
},
{
closed = 1;
nodes = (
"268 199 OFFCURVE",
"245 222 OFFCURVE",
"245 254 CURVE SMOOTH",
"245 286 OFFCURVE",
"268 309 OFFCURVE",
"300 309 CURVE SMOOTH",
"332 309 OFFCURVE",
"355 286 OFFCURVE",
"355 254 CURVE SMOOTH",
"355 222 OFFCURVE",
"332 199 OFFCURVE",
"300 199 CURVE SMOOTH"
);
},
{
closed = 1;
nodes = (
"267 494 OFFCURVE",
"245 516 OFFCURVE",
"245 546 CURVE SMOOTH",
"245 576 OFFCURVE",
"267 598 OFFCURVE",
"297 598 CURVE SMOOTH",
"327 598 OFFCURVE",
"349 576 OFFCURVE",
"349 546 CURVE SMOOTH",
"349 516 OFFCURVE",
"327 494 OFFCURVE",
"297 494 CURVE SMOOTH"
);
}
);
width = 600;
},
{
anchors = (
{
name = bottom;
position = "{294, -30}";
},
{
name = top;
position = "{294, 800}";
}
);
associatedMasterId = m002;
layerId = "6044E806-160C-4F49-AC74-7B286697F244";
name = Original;
paths = (
{
closed = 1;
nodes = (
"273 474 OFFCURVE",
"250 497 OFFCURVE",
"250 526 CURVE SMOOTH",
"250 554 OFFCURVE",
"273 578 OFFCURVE",
"301 578 CURVE SMOOTH",
"330 578 OFFCURVE",
"353 554 OFFCURVE",
"353 526 CURVE SMOOTH",
"353 497 OFFCURVE",
"330 474 OFFCURVE",
"301 474 CURVE SMOOTH"
);
},
{
closed = 1;
nodes = (
"425 0 OFFCURVE",
"432 2 OFFCURVE",
"437 7 CURVE SMOOTH",
"571 133 LINE SMOOTH",
"577 138 OFFCURVE",
"579 144 OFFCURVE",
"579 151 CURVE SMOOTH",
"579 319 LINE SMOOTH",
"579 327 OFFCURVE",
"577 331 OFFCURVE",
"569 337 CURVE SMOOTH",
"475 416 LINE",
"475 454 LINE",
"569 533 LINE SMOOTH",
"577 539 OFFCURVE",
"579 543 OFFCURVE",
"579 551 CURVE SMOOTH",
"579 649 LINE SMOOTH",
"579 656 OFFCURVE",
"577 662 OFFCURVE",
"571 667 CURVE SMOOTH",
"437 793 LINE SMOOTH",
"432 798 OFFCURVE",
"425 800 OFFCURVE",
"418 800 CURVE SMOOTH",
"45 800 LINE SMOOTH",
"36 800 OFFCURVE",
"30 794 OFFCURVE",
"30 785 CURVE SMOOTH",
"30 15 LINE SMOOTH",
"30 6 OFFCURVE",
"36 0 OFFCURVE",
"45 0 CURVE SMOOTH",
"418 0 LINE SMOOTH"
);
},
{
closed = 1;
nodes = (
"274 201 OFFCURVE",
"250 226 OFFCURVE",
"250 256 CURVE SMOOTH",
"250 286 OFFCURVE",
"274 311 OFFCURVE",
"304 311 CURVE SMOOTH",
"334 311 OFFCURVE",
"359 286 OFFCURVE",
"359 256 CURVE SMOOTH",
"359 226 OFFCURVE",
"334 201 OFFCURVE",
"304 201 CURVE SMOOTH"
);
}
);
width = 603;
},
{
anchors = (
{
name = bottom;
position = "{294, -30}";
},
{
name = top;
position = "{294, 800}";
}
);
associatedMasterId = m002;
layerId = "E192DA36-82AF-41AE-A59D-356D41F5208E";
name = "Jun 2 22, 03:23";
paths = (
{
closed = 1;
nodes = (
"418 0 LINE SMOOTH",
"425 0 OFFCURVE",
"432 2 OFFCURVE",
"437 7 CURVE SMOOTH",
"571 133 LINE SMOOTH",
"577 138 OFFCURVE",
"579 144 OFFCURVE",
"579 151 CURVE SMOOTH",
"579 319 LINE SMOOTH",
"579 327 OFFCURVE",
"577 331 OFFCURVE",
"569 337 CURVE SMOOTH",
"475 416 LINE",
"475 454 LINE",
"569 533 LINE SMOOTH",
"577 539 OFFCURVE",
"579 543 OFFCURVE",
"579 551 CURVE SMOOTH",
"579 649 LINE SMOOTH",
"579 656 OFFCURVE",
"577 662 OFFCURVE",
"571 667 CURVE SMOOTH",
"437 793 LINE SMOOTH",
"432 798 OFFCURVE",
"425 800 OFFCURVE",
"418 800 CURVE SMOOTH",
"45 800 LINE SMOOTH",
"36 800 OFFCURVE",
"30 794 OFFCURVE",
"30 785 CURVE SMOOTH",
"30 15 LINE SMOOTH",
"30 6 OFFCURVE",
"36 0 OFFCURVE",
"45 0 CURVE SMOOTH"
);
},
{
closed = 1;
nodes = (
"273 201 OFFCURVE",
"250 224 OFFCURVE",
"250 256 CURVE SMOOTH",
"250 288 OFFCURVE",
"273 311 OFFCURVE",
"305 311 CURVE SMOOTH",
"337 311 OFFCURVE",
"360 288 OFFCURVE",
"360 256 CURVE SMOOTH",
"360 224 OFFCURVE",
"337 201 OFFCURVE",
"305 201 CURVE SMOOTH"
);
},
{
closed = 1;
nodes = (
"272 474 OFFCURVE",
"250 496 OFFCURVE",
"250 526 CURVE SMOOTH",
"250 556 OFFCURVE",
"272 578 OFFCURVE",
"302 578 CURVE SMOOTH",
"332 578 OFFCURVE",
"354 556 OFFCURVE",
"354 526 CURVE SMOOTH",
"354 496 OFFCURVE",
"332 474 OFFCURVE",
"302 474 CURVE SMOOTH"
);
}
);
width = 603;
},
{
anchors = (
{
name = bottom;
position = "{294, -30}";
},
{
name = top;
position = "{294, 800}";
}
);
associatedMasterId = m002;
layerId = "3C043604-51E2-49FC-AB65-872520E32A23";
name = "Jun 4 22, 21:31";
paths = (
{
closed = 1;
nodes = (
"45 800 LINE SMOOTH",
"36 800 OFFCURVE",
"30 794 OFFCURVE",
"30 785 CURVE SMOOTH",
"30 15 LINE SMOOTH",
"30 6 OFFCURVE",
"36 0 OFFCURVE",
"45 0 CURVE SMOOTH",
"418 0 LINE SMOOTH",
"425 0 OFFCURVE",
"432 2 OFFCURVE",
"437 7 CURVE SMOOTH",
"571 133 LINE SMOOTH",
"577 138 OFFCURVE",
"579 144 OFFCURVE",
"579 151 CURVE SMOOTH",
"579 319 LINE SMOOTH",
"579 327 OFFCURVE",
"577 331 OFFCURVE",
"569 337 CURVE SMOOTH",
"475 416 LINE",
"475 454 LINE",
"569 533 LINE SMOOTH",
"577 539 OFFCURVE",
"579 543 OFFCURVE",
"579 551 CURVE SMOOTH",
"579 644 LINE SMOOTH",
"579 657 OFFCURVE",
"578 660 OFFCURVE",
"569 668 CURVE SMOOTH",
"431 792 LINE SMOOTH",
"424 798 OFFCURVE",
"418 800 OFFCURVE",
"407 800 CURVE SMOOTH"
);
},
{
closed = 1;
nodes = (
"273 201 OFFCURVE",
"250 224 OFFCURVE",
"250 256 CURVE SMOOTH",
"250 288 OFFCURVE",
"273 311 OFFCURVE",
"305 311 CURVE SMOOTH",
"337 311 OFFCURVE",
"360 288 OFFCURVE",
"360 256 CURVE SMOOTH",
"360 224 OFFCURVE",
"337 201 OFFCURVE",
"305 201 CURVE SMOOTH"
);
},
{
closed = 1;
nodes = (
"272 474 OFFCURVE",
"250 496 OFFCURVE",
"250 526 CURVE SMOOTH",
"250 556 OFFCURVE",
"272 578 OFFCURVE",
"302 578 CURVE SMOOTH",
"332 578 OFFCURVE",
"354 556 OFFCURVE",
"354 526 CURVE SMOOTH",
"354 496 OFFCURVE",
"332 474 OFFCURVE",
"302 474 CURVE SMOOTH"
);
}
);
width = 599;
}
);
leftMetricsKey = "=H";
unicode = 0042;
},
{
glyphname = "Beta-latin";
lastChange = "2023-10-16 21:40:04 +0000";
layers = (
{
layerId = "462F72A0-0500-4E69-A49B-6C2F2580580D";
paths = (
{
closed = 1;
nodes = (
"421 0 LINE SMOOTH",
"431 0 OFFCURVE",
"438 3 OFFCURVE",
"445 10 CURVE SMOOTH",
"565 130 LINE SMOOTH",
"572 137 OFFCURVE",
"575 144 OFFCURVE",
"575 154 CURVE SMOOTH",
"575 278 LINE SMOOTH",
"575 286 OFFCURVE",
"572 289 OFFCURVE",
"565 296 CURVE SMOOTH",
"471 380 LINE",
"471 418 LINE",
"565 502 LINE SMOOTH",
"572 509 OFFCURVE",
"575 512 OFFCURVE",
"575 520 CURVE SMOOTH",
"575 646 LINE SMOOTH",
"575 656 OFFCURVE",
"572 663 OFFCURVE",
"565 670 CURVE SMOOTH",
"445 790 LINE SMOOTH",
"438 797 OFFCURVE",
"431 800 OFFCURVE",
"421 800 CURVE SMOOTH",
"40 800 LINE SMOOTH",
"31 800 OFFCURVE",
"25 794 OFFCURVE",
"25 785 CURVE SMOOTH",
"25 15 LINE SMOOTH",
"25 6 OFFCURVE",
"31 0 OFFCURVE",
"40 0 CURVE SMOOTH"
);
},
{
closed = 1;
nodes = (
"268 199 OFFCURVE",
"245 222 OFFCURVE",
"245 254 CURVE SMOOTH",
"245 286 OFFCURVE",
"268 309 OFFCURVE",
"300 309 CURVE SMOOTH",
"332 309 OFFCURVE",
"355 286 OFFCURVE",
"355 254 CURVE SMOOTH",
"355 222 OFFCURVE",
"332 199 OFFCURVE",
"300 199 CURVE SMOOTH"
);
},
{
closed = 1;
nodes = (
"267 494 OFFCURVE",
"245 516 OFFCURVE",
"245 546 CURVE SMOOTH",
"245 576 OFFCURVE",
"267 598 OFFCURVE",
"297 598 CURVE SMOOTH",
"327 598 OFFCURVE",
"349 576 OFFCURVE",
"349 546 CURVE SMOOTH",
"349 516 OFFCURVE",
"327 494 OFFCURVE",
"297 494 CURVE SMOOTH"
);
},
{
closed = 1;
nodes = (
"260 -180 LINE SMOOTH",
"269 -180 OFFCURVE",
"275 -174 OFFCURVE",
"275 -165 CURVE",
"275 72 LINE",
"25 72 LINE",
"25 -165 LINE SMOOTH",
"25 -174 OFFCURVE",
"31 -180 OFFCURVE",
"40 -180 CURVE SMOOTH"
);
}
);
width = 600;
},
{
layerId = m002;
paths = (
{
closed = 1;
nodes = (
"421 0 LINE SMOOTH",
"431 0 OFFCURVE",
"438 3 OFFCURVE",
"445 10 CURVE SMOOTH",
"565 130 LINE SMOOTH",
"572 137 OFFCURVE",
"575 144 OFFCURVE",
"575 154 CURVE SMOOTH",
"575 278 LINE SMOOTH",
"575 286 OFFCURVE",
"572 289 OFFCURVE",
"565 296 CURVE SMOOTH",
"471 380 LINE",
"471 418 LINE",
"565 502 LINE SMOOTH",
"572 509 OFFCURVE",
"575 512 OFFCURVE",
"575 520 CURVE SMOOTH",
"575 646 LINE SMOOTH",
"575 656 OFFCURVE",
"572 663 OFFCURVE",
"565 670 CURVE SMOOTH",
"445 790 LINE SMOOTH",
"438 797 OFFCURVE",
"431 800 OFFCURVE",
"421 800 CURVE SMOOTH",
"40 800 LINE SMOOTH",
"31 800 OFFCURVE",
"25 794 OFFCURVE",
"25 785 CURVE SMOOTH",
"25 15 LINE SMOOTH",
"25 6 OFFCURVE",
"31 0 OFFCURVE",
"40 0 CURVE SMOOTH"
);
},
{
closed = 1;
nodes = (
"268 199 OFFCURVE",
"245 222 OFFCURVE",
"245 254 CURVE SMOOTH",
"245 286 OFFCURVE",
"268 309 OFFCURVE",
"300 309 CURVE SMOOTH",
"332 309 OFFCURVE",
"355 286 OFFCURVE",
"355 254 CURVE SMOOTH",
"355 222 OFFCURVE",
"332 199 OFFCURVE",
"300 199 CURVE SMOOTH"
);
},
{
closed = 1;
nodes = (
"267 494 OFFCURVE",
"245 516 OFFCURVE",
"245 546 CURVE SMOOTH",
"245 576 OFFCURVE",
"267 598 OFFCURVE",
"297 598 CURVE SMOOTH",
"327 598 OFFCURVE",
"349 576 OFFCURVE",
"349 546 CURVE SMOOTH",
"349 516 OFFCURVE",
"327 494 OFFCURVE",
"297 494 CURVE SMOOTH"
);
},
{
closed = 1;
nodes = (
"260 -180 LINE SMOOTH",
"269 -180 OFFCURVE",
"275 -174 OFFCURVE",
"275 -165 CURVE",
"275 72 LINE",
"25 72 LINE",
"25 -165 LINE SMOOTH",
"25 -174 OFFCURVE",
"31 -180 OFFCURVE",
"40 -180 CURVE SMOOTH"
);
}
);
width = 600;
}
);
unicode = A7B4;
},
{
glyphname = Bhook;
lastChange = "2023-10-05 19:45:44 +0000";
layers = (
{
anchors = (
{
name = bottom;
position = "{630, -30}";
},
{
name = top;
position = "{630, 800}";
}
);
components = (
{
name = B;
transform = "{1, 0, 0, 1, 325, 0}";
}
);
layerId = "462F72A0-0500-4E69-A49B-6C2F2580580D";
paths = (
{
closed = 1;
nodes = (
"312 555 LINE SMOOTH",
"323 555 OFFCURVE",
"331 562 OFFCURVE",
"331 574 CURVE SMOOTH",
"331 633 LINE",
"451 633 LINE SMOOTH",
"463 633 OFFCURVE",
"490 640 OFFCURVE",
"490 651 CURVE SMOOTH",
"490 762 LINE",
"490 800 LINE",
"243 800 LINE SMOOTH",
"234 800 OFFCURVE",
"227 798 OFFCURVE",
"220 790 CURVE SMOOTH",
"178 746 LINE SMOOTH",
"172 739 OFFCURVE",
"170 731 OFFCURVE",
"170 722 CURVE SMOOTH",
"170 574 LINE SMOOTH",
"170 562 OFFCURVE",
"177 555 OFFCURVE",
"188 555 CURVE SMOOTH"
);
}
);
width = 907;
},
{
anchors = (
{
name = bottom;
position = "{630, -30}";
},
{
name = top;
position = "{630, 800}";
}
);
components = (
{
name = B;
transform = "{1, 0, 0, 1, 325, 0}";
}
);
layerId = m002;
paths = (
{
closed = 1;
nodes = (
"312 555 LINE SMOOTH",
"323 555 OFFCURVE",
"331 562 OFFCURVE",
"331 574 CURVE SMOOTH",
"331 633 LINE",
"451 633 LINE SMOOTH",
"463 633 OFFCURVE",
"490 640 OFFCURVE",
"490 651 CURVE SMOOTH",
"490 762 LINE",
"490 800 LINE",
"243 800 LINE SMOOTH",
"234 800 OFFCURVE",
"227 798 OFFCURVE",
"220 790 CURVE SMOOTH",
"178 746 LINE SMOOTH",
"172 739 OFFCURVE",
"170 731 OFFCURVE",
"170 722 CURVE SMOOTH",
"170 574 LINE SMOOTH",
"170 562 OFFCURVE",
"177 555 OFFCURVE",
"188 555 CURVE SMOOTH"
);
}
);
width = 907;
}
);
leftMetricsKey = "=Dhook";
unicode = "0181,0253";
},
{
glyphname = Bstroke;
lastChange = "2023-10-05 19:45:44 +0000";
layers = (
{
anchors = (
{
name = bottom;
position = "{273, -30}";
},
{
name = top;
position = "{273, 800}";
}
);
layerId = "462F72A0-0500-4E69-A49B-6C2F2580580D";
paths = (
{
closed = 1;
nodes = (
"397 0 LINE SMOOTH",
"404 0 OFFCURVE",
"411 2 OFFCURVE",
"416 7 CURVE SMOOTH",
"550 133 LINE SMOOTH",
"556 138 OFFCURVE",
"558 144 OFFCURVE",
"558 151 CURVE SMOOTH",
"558 319 LINE SMOOTH",
"558 327 OFFCURVE",
"556 331 OFFCURVE",
"548 337 CURVE SMOOTH",
"454 416 LINE",
"454 454 LINE",
"548 533 LINE SMOOTH",
"556 539 OFFCURVE",
"558 543 OFFCURVE",
"558 551 CURVE SMOOTH",
"558 649 LINE SMOOTH",
"558 656 OFFCURVE",
"556 662 OFFCURVE",
"550 667 CURVE SMOOTH",
"416 793 LINE SMOOTH",
"411 798 OFFCURVE",
"404 800 OFFCURVE",
"397 800 CURVE SMOOTH",
"44 800 LINE SMOOTH",
"35 800 OFFCURVE",
"29 794 OFFCURVE",
"29 785 CURVE SMOOTH",
"29 15 LINE SMOOTH",
"29 6 OFFCURVE",
"35 0 OFFCURVE",
"44 0 CURVE SMOOTH"
);
},
{
closed = 1;
nodes = (
"269 208 LINE SMOOTH",
"278 208 OFFCURVE",
"284 214 OFFCURVE",
"284 223 CURVE SMOOTH",
"284 278 LINE SMOOTH",
"284 287 OFFCURVE",
"278 293 OFFCURVE",
"269 293 CURVE SMOOTH",
"12 293 LINE SMOOTH",
"3 293 OFFCURVE",
"-3 287 OFFCURVE",
"-3 278 CURVE SMOOTH",
"-3 223 LINE SMOOTH",
"-3 214 OFFCURVE",
"3 208 OFFCURVE",
"12 208 CURVE SMOOTH"
);
},
{
closed = 1;
nodes = (
"242 181 OFFCURVE",
"209 215 OFFCURVE",
"209 256 CURVE SMOOTH",
"209 297 OFFCURVE",
"242 331 OFFCURVE",
"283 331 CURVE SMOOTH",
"324 331 OFFCURVE",
"358 297 OFFCURVE",
"358 256 CURVE SMOOTH",
"358 215 OFFCURVE",
"324 181 OFFCURVE",
"283 181 CURVE SMOOTH"
);
},
{
closed = 1;
nodes = (
"252 474 OFFCURVE",
"229 497 OFFCURVE",
"229 526 CURVE SMOOTH",
"229 554 OFFCURVE",
"252 578 OFFCURVE",
"280 578 CURVE SMOOTH",
"309 578 OFFCURVE",
"332 554 OFFCURVE",
"332 526 CURVE SMOOTH",
"332 497 OFFCURVE",
"309 474 OFFCURVE",
"280 474 CURVE SMOOTH"
);
}
);
width = 583;
},
{
anchors = (
{
name = bottom;
position = "{273, -30}";
},
{
name = top;
position = "{273, 800}";
}
);
layerId = m002;
paths = (
{
closed = 1;
nodes = (
"397 0 LINE SMOOTH",
"404 0 OFFCURVE",
"411 2 OFFCURVE",
"416 7 CURVE SMOOTH",
"550 133 LINE SMOOTH",
"556 138 OFFCURVE",
"558 144 OFFCURVE",
"558 151 CURVE SMOOTH",
"558 319 LINE SMOOTH",
"558 327 OFFCURVE",
"556 331 OFFCURVE",
"548 337 CURVE SMOOTH",
"454 416 LINE",
"454 454 LINE",
"548 533 LINE SMOOTH",
"556 539 OFFCURVE",
"558 543 OFFCURVE",
"558 551 CURVE SMOOTH",
"558 649 LINE SMOOTH",
"558 656 OFFCURVE",
"556 662 OFFCURVE",
"550 667 CURVE SMOOTH",
"416 793 LINE SMOOTH",
"411 798 OFFCURVE",
"404 800 OFFCURVE",
"397 800 CURVE SMOOTH",
"44 800 LINE SMOOTH",
"35 800 OFFCURVE",
"29 794 OFFCURVE",
"29 785 CURVE SMOOTH",
"29 15 LINE SMOOTH",
"29 6 OFFCURVE",
"35 0 OFFCURVE",
"44 0 CURVE SMOOTH"
);
},
{
closed = 1;
nodes = (
"269 208 LINE SMOOTH",
"278 208 OFFCURVE",
"284 214 OFFCURVE",
"284 223 CURVE SMOOTH",
"284 278 LINE SMOOTH",
"284 287 OFFCURVE",
"278 293 OFFCURVE",
"269 293 CURVE SMOOTH",
"12 293 LINE SMOOTH",
"3 293 OFFCURVE",
"-3 287 OFFCURVE",
"-3 278 CURVE SMOOTH",
"-3 223 LINE SMOOTH",
"-3 214 OFFCURVE",
"3 208 OFFCURVE",
"12 208 CURVE SMOOTH"
);
},
{
closed = 1;
nodes = (
"242 181 OFFCURVE",
"209 215 OFFCURVE",
"209 256 CURVE SMOOTH",
"209 297 OFFCURVE",
"242 331 OFFCURVE",
"283 331 CURVE SMOOTH",
"324 331 OFFCURVE",
"358 297 OFFCURVE",
"358 256 CURVE SMOOTH",
"358 215 OFFCURVE",
"324 181 OFFCURVE",
"283 181 CURVE SMOOTH"
);
},
{
closed = 1;
nodes = (
"252 474 OFFCURVE",
"229 497 OFFCURVE",
"229 526 CURVE SMOOTH",
"229 554 OFFCURVE",
"252 578 OFFCURVE",
"280 578 CURVE SMOOTH",
"309 578 OFFCURVE",
"332 554 OFFCURVE",
"332 526 CURVE SMOOTH",
"332 497 OFFCURVE",
"309 474 OFFCURVE",
"280 474 CURVE SMOOTH"
);
}
);
width = 583;
}
);
rightMetricsKey = "=B";
unicode = "0243,0180";
},
{
color = 0;
glyphname = C;
lastChange = "2023-10-16 19:28:17 +0000";
layers = (
{
anchors = (
{
name = bottom;
position = "{257, -30}";
},
{
name = top;
position = "{260, 800}";
}
);
layerId = "462F72A0-0500-4E69-A49B-6C2F2580580D";
paths = (
{
closed = 1;
nodes = (
"407 0 LINE SMOOTH",
"416 0 OFFCURVE",
"422 6 OFFCURVE",
"422 15 CURVE SMOOTH",
"422 171 LINE SMOOTH",
"422 178 OFFCURVE",
"421 184 OFFCURVE",
"415 190 CURVE SMOOTH",
"273 332 LINE",
"273 458 LINE",
"415 600 LINE SMOOTH",
"421 606 OFFCURVE",
"422 612 OFFCURVE",
"422 619 CURVE SMOOTH",
"422 785 LINE SMOOTH",
"422 794 OFFCURVE",
"416 800 OFFCURVE",
"407 800 CURVE SMOOTH",
"239 800 LINE SMOOTH",
"228 800 OFFCURVE",
"222 799 OFFCURVE",
"215 792 CURVE SMOOTH",
"35 612 LINE SMOOTH",
"26 603 OFFCURVE",
"25 601 OFFCURVE",
"25 588 CURVE SMOOTH",
"25 212 LINE SMOOTH",
"25 199 OFFCURVE",
"26 197 OFFCURVE",
"35 188 CURVE SMOOTH",
"215 8 LINE SMOOTH",
"222 1 OFFCURVE",
"228 0 OFFCURVE",
"239 0 CURVE SMOOTH"
);
}
);
width = 447;
},
{
anchors = (
{
name = bottom;
position = "{258, -30}";
},
{
name = top;
position = "{261, 800}";
}
);
associatedMasterId = "462F72A0-0500-4E69-A49B-6C2F2580580D";
guideLines = (
{
angle = 36;
position = "{211, 792}";
}
);
layerId = "65B39F86-5EE6-440B-B327-ED1CEB56E318";
name = Original;
paths = (
{
closed = 1;
nodes = (
"417 0 LINE SMOOTH",
"426 0 OFFCURVE",
"432 6 OFFCURVE",
"432 15 CURVE SMOOTH",
"432 181 LINE SMOOTH",
"432 188 OFFCURVE",
"432 194 OFFCURVE",
"426 199 CURVE SMOOTH",
"263 360 LINE",
"263 463 LINE",
"425 601 LINE SMOOTH",
"431 606 OFFCURVE",
"432 613 OFFCURVE",
"432 620 CURVE SMOOTH",
"432 785 LINE SMOOTH",
"432 794 OFFCURVE",
"426 800 OFFCURVE",
"417 800 CURVE SMOOTH",
"230 800 LINE SMOOTH",
"223 800 OFFCURVE",
"217 797 OFFCURVE",
"211 792 CURVE SMOOTH",
"33 658 LINE SMOOTH",
"27 653 OFFCURVE",
"26 646 OFFCURVE",
"26 639 CURVE SMOOTH",
"26 183 LINE SMOOTH",
"26 176 OFFCURVE",
"28 169 OFFCURVE",
"33 164 CURVE SMOOTH",
"212 9 LINE SMOOTH",
"218 4 OFFCURVE",
"223 0 OFFCURVE",
"230 0 CURVE SMOOTH"
);
}
);
visible = 1;
width = 456;
},
{
anchors = (
{
name = bottom;
position = "{258, -30}";
},
{
name = top;
position = "{261, 800}";
}
);
associatedMasterId = "462F72A0-0500-4E69-A49B-6C2F2580580D";
layerId = "BCAA6981-C312-4F79-BE53-F0C5A59A84BC";
name = "Jun 2 22, 03:11";
paths = (
{
closed = 1;
nodes = (
"417 0 LINE SMOOTH",
"426 0 OFFCURVE",
"432 6 OFFCURVE",
"432 15 CURVE SMOOTH",
"432 181 LINE SMOOTH",
"432 188 OFFCURVE",
"432 194 OFFCURVE",
"426 199 CURVE SMOOTH",
"263 360 LINE",
"263 463 LINE",
"425 601 LINE SMOOTH",
"431 606 OFFCURVE",
"432 613 OFFCURVE",
"432 620 CURVE SMOOTH",
"432 785 LINE SMOOTH",
"432 794 OFFCURVE",
"426 800 OFFCURVE",
"417 800 CURVE SMOOTH",
"210 800 LINE SMOOTH",
"203 800 OFFCURVE",
"197 797 OFFCURVE",
"191 792 CURVE SMOOTH",
"33 668 LINE SMOOTH",
"27 663 OFFCURVE",
"26 656 OFFCURVE",
"26 649 CURVE SMOOTH",
"26 157 LINE SMOOTH",
"26 150 OFFCURVE",
"27 143 OFFCURVE",
"33 138 CURVE SMOOTH",
"192 9 LINE SMOOTH",
"198 4 OFFCURVE",
"203 0 OFFCURVE",
"210 0 CURVE SMOOTH"
);
}
);
width = 456;
},
{
anchors = (
{
name = bottom;
position = "{258, -30}";
},
{
name = top;
position = "{261, 800}";
}
);
associatedMasterId = "462F72A0-0500-4E69-A49B-6C2F2580580D";
layerId = "D6B5257E-5F55-4892-80AD-FBCFEA4263FA";
name = "Jun 2 22, 04:22";
paths = (
{
closed = 1;
nodes = (
"417 0 LINE SMOOTH",
"426 0 OFFCURVE",
"432 6 OFFCURVE",
"432 15 CURVE SMOOTH",
"432 181 LINE SMOOTH",
"432 188 OFFCURVE",
"432 194 OFFCURVE",
"426 199 CURVE SMOOTH",
"263 340 LINE",
"263 460 LINE",
"425 600 LINE SMOOTH",
"431 605 OFFCURVE",
"432 612 OFFCURVE",
"432 619 CURVE SMOOTH",
"432 785 LINE SMOOTH",
"432 794 OFFCURVE",
"426 800 OFFCURVE",
"417 800 CURVE SMOOTH",
"198 800 LINE SMOOTH",
"187 800 OFFCURVE",
"181 798 OFFCURVE",
"174 792 CURVE SMOOTH",
"36 668 LINE SMOOTH",
"28 660 OFFCURVE",
"26 657 OFFCURVE",
"26 644 CURVE SMOOTH",
"26 156 LINE SMOOTH",
"26 143 OFFCURVE",
"28 140 OFFCURVE",
"36 132 CURVE SMOOTH",
"174 8 LINE SMOOTH",
"181 2 OFFCURVE",
"187 0 OFFCURVE",
"198 0 CURVE SMOOTH"
);
}
);
width = 456;
},
{
anchors = (
{
name = bottom;
position = "{258, -30}";
},
{
name = top;
position = "{261, 800}";
}
);
associatedMasterId = "462F72A0-0500-4E69-A49B-6C2F2580580D";
layerId = "BAC76631-75AF-4195-A651-0C0738B71B08";
name = "Jun 3 22, 20:32";
paths = (
{
closed = 1;
nodes = (
"417 0 LINE SMOOTH",
"426 0 OFFCURVE",
"432 6 OFFCURVE",
"432 15 CURVE SMOOTH",
"432 181 LINE SMOOTH",
"432 188 OFFCURVE",
"432 194 OFFCURVE",
"426 199 CURVE SMOOTH",
"263 340 LINE",
"263 460 LINE",
"425 600 LINE SMOOTH",
"431 605 OFFCURVE",
"432 612 OFFCURVE",
"432 619 CURVE SMOOTH",
"432 785 LINE SMOOTH",
"432 794 OFFCURVE",
"426 800 OFFCURVE",
"417 800 CURVE SMOOTH",
"208 800 LINE SMOOTH",
"197 800 OFFCURVE",
"191 798 OFFCURVE",
"184 792 CURVE SMOOTH",
"36 672 LINE SMOOTH",
"27 665 OFFCURVE",
"26 661 OFFCURVE",
"26 648 CURVE SMOOTH",
"26 152 LINE SMOOTH",
"26 139 OFFCURVE",
"27 135 OFFCURVE",
"36 128 CURVE SMOOTH",
"184 8 LINE SMOOTH",
"191 2 OFFCURVE",
"197 0 OFFCURVE",
"208 0 CURVE SMOOTH"
);
}
);
width = 456;
},
{
anchors = (
{
name = bottom;
position = "{258, -30}";
},
{
name = top;
position = "{261, 800}";
}
);
associatedMasterId = "462F72A0-0500-4E69-A49B-6C2F2580580D";
layerId = "100B6ADC-98C3-474F-88FF-449FA7339194";
name = "Jun 4 22, 20:31";
paths = (
{
closed = 1;
nodes = (
"417 0 LINE SMOOTH",
"426 0 OFFCURVE",
"432 6 OFFCURVE",
"432 15 CURVE SMOOTH",
"432 181 LINE SMOOTH",
"432 188 OFFCURVE",
"432 194 OFFCURVE",
"426 199 CURVE SMOOTH",
"263 340 LINE",
"263 460 LINE",
"425 600 LINE SMOOTH",
"431 605 OFFCURVE",
"432 612 OFFCURVE",
"432 619 CURVE SMOOTH",
"432 785 LINE SMOOTH",
"432 794 OFFCURVE",
"426 800 OFFCURVE",
"417 800 CURVE SMOOTH",
"240 800 LINE SMOOTH",
"229 800 OFFCURVE",
"223 798 OFFCURVE",
"216 792 CURVE SMOOTH",
"36 644 LINE SMOOTH",
"27 636 OFFCURVE",
"26 633 OFFCURVE",
"26 620 CURVE SMOOTH",
"26 180 LINE SMOOTH",
"26 167 OFFCURVE",
"27 164 OFFCURVE",
"36 156 CURVE SMOOTH",
"212 8 LINE SMOOTH",
"219 2 OFFCURVE",
"225 0 OFFCURVE",
"236 0 CURVE SMOOTH"
);
}
);
width = 456;
},
{
anchors = (
{
name = bottom;
position = "{258, -30}";
},
{
name = top;
position = "{261, 800}";
}
);
associatedMasterId = "462F72A0-0500-4E69-A49B-6C2F2580580D";
layerId = "2FD3A8FC-5120-4476-BC37-0A4BF2D571B2";
name = "Jun 4 22, 20:33";
paths = (
{
closed = 1;
nodes = (
"417 0 LINE SMOOTH",
"426 0 OFFCURVE",
"432 6 OFFCURVE",
"432 15 CURVE SMOOTH",
"432 181 LINE SMOOTH",
"432 188 OFFCURVE",
"432 194 OFFCURVE",
"426 199 CURVE SMOOTH",
"263 318 LINE",
"263 482 LINE",
"425 600 LINE SMOOTH",
"431 605 OFFCURVE",
"432 612 OFFCURVE",
"432 619 CURVE SMOOTH",
"432 785 LINE SMOOTH",
"432 794 OFFCURVE",
"426 800 OFFCURVE",
"417 800 CURVE SMOOTH",
"240 800 LINE SMOOTH",
"229 800 OFFCURVE",
"224 797 OFFCURVE",
"216 792 CURVE SMOOTH",
"36 664 LINE SMOOTH",
"26 657 OFFCURVE",
"26 653 OFFCURVE",
"26 640 CURVE SMOOTH",
"26 160 LINE SMOOTH",
"26 147 OFFCURVE",
"27 143 OFFCURVE",
"36 136 CURVE SMOOTH",
"212 8 LINE SMOOTH",
"219 3 OFFCURVE",
"225 0 OFFCURVE",
"236 0 CURVE SMOOTH"
);
}
);
width = 456;
},
{
anchors = (
{
name = bottom;
position = "{257, -30}";
},
{
name = top;
position = "{260, 800}";
}
);
layerId = m002;
paths = (
{
closed = 1;
nodes = (
"407 0 LINE SMOOTH",
"416 0 OFFCURVE",
"422 6 OFFCURVE",
"422 15 CURVE SMOOTH",
"422 171 LINE SMOOTH",
"422 178 OFFCURVE",
"421 184 OFFCURVE",
"415 190 CURVE SMOOTH",
"273 332 LINE",
"273 458 LINE",
"415 600 LINE SMOOTH",
"421 606 OFFCURVE",
"422 612 OFFCURVE",
"422 619 CURVE SMOOTH",
"422 785 LINE SMOOTH",
"422 794 OFFCURVE",
"416 800 OFFCURVE",
"407 800 CURVE SMOOTH",
"239 800 LINE SMOOTH",
"228 800 OFFCURVE",
"222 799 OFFCURVE",
"215 792 CURVE SMOOTH",
"35 612 LINE SMOOTH",
"26 603 OFFCURVE",
"25 601 OFFCURVE",
"25 588 CURVE SMOOTH",
"25 212 LINE SMOOTH",
"25 199 OFFCURVE",
"26 197 OFFCURVE",
"35 188 CURVE SMOOTH",
"215 8 LINE SMOOTH",
"222 1 OFFCURVE",
"228 0 OFFCURVE",
"239 0 CURVE SMOOTH"
);
}
);
width = 447;
},
{
anchors = (
{
name = bottom;
position = "{258, -30}";
},
{
name = top;
position = "{261, 800}";
}
);
associatedMasterId = m002;
guideLines = (
{
angle = 36;
position = "{211, 792}";
}
);
layerId = "FD0DCE02-E4D2-4FF6-B039-92F98BE431B3";
name = Original;
paths = (
{
closed = 1;
nodes = (
"417 0 LINE SMOOTH",
"426 0 OFFCURVE",
"432 6 OFFCURVE",
"432 15 CURVE SMOOTH",
"432 181 LINE SMOOTH",
"432 188 OFFCURVE",
"432 194 OFFCURVE",
"426 199 CURVE SMOOTH",
"263 360 LINE",
"263 463 LINE",
"425 601 LINE SMOOTH",
"431 606 OFFCURVE",
"432 613 OFFCURVE",
"432 620 CURVE SMOOTH",
"432 785 LINE SMOOTH",
"432 794 OFFCURVE",
"426 800 OFFCURVE",
"417 800 CURVE SMOOTH",
"230 800 LINE SMOOTH",
"223 800 OFFCURVE",
"217 797 OFFCURVE",
"211 792 CURVE SMOOTH",
"33 658 LINE SMOOTH",
"27 653 OFFCURVE",
"26 646 OFFCURVE",
"26 639 CURVE SMOOTH",
"26 183 LINE SMOOTH",
"26 176 OFFCURVE",
"28 169 OFFCURVE",
"33 164 CURVE SMOOTH",
"212 9 LINE SMOOTH",
"218 4 OFFCURVE",
"223 0 OFFCURVE",
"230 0 CURVE SMOOTH"
);
}
);
width = 456;
},
{
anchors = (
{
name = bottom;
position = "{258, -30}";
},
{
name = top;
position = "{261, 800}";
}
);
associatedMasterId = m002;
layerId = "74252255-60F6-407D-9883-B1B63D73914A";
name = "Jun 2 22, 03:11";
paths = (
{
closed = 1;
nodes = (
"417 0 LINE SMOOTH",
"426 0 OFFCURVE",
"432 6 OFFCURVE",
"432 15 CURVE SMOOTH",
"432 181 LINE SMOOTH",
"432 188 OFFCURVE",
"432 194 OFFCURVE",
"426 199 CURVE SMOOTH",
"263 360 LINE",
"263 463 LINE",
"425 601 LINE SMOOTH",
"431 606 OFFCURVE",
"432 613 OFFCURVE",
"432 620 CURVE SMOOTH",
"432 785 LINE SMOOTH",
"432 794 OFFCURVE",
"426 800 OFFCURVE",
"417 800 CURVE SMOOTH",
"210 800 LINE SMOOTH",
"203 800 OFFCURVE",
"197 797 OFFCURVE",
"191 792 CURVE SMOOTH",
"33 668 LINE SMOOTH",
"27 663 OFFCURVE",
"26 656 OFFCURVE",
"26 649 CURVE SMOOTH",
"26 157 LINE SMOOTH",
"26 150 OFFCURVE",
"27 143 OFFCURVE",
"33 138 CURVE SMOOTH",
"192 9 LINE SMOOTH",
"198 4 OFFCURVE",
"203 0 OFFCURVE",
"210 0 CURVE SMOOTH"
);
}
);
width = 456;
},
{
anchors = (
{
name = bottom;
position = "{258, -30}";
},
{
name = top;
position = "{261, 800}";
}
);
associatedMasterId = m002;
layerId = "B64CC5A1-979B-4CB8-8238-8425D2DA3AE8";
name = "Jun 2 22, 04:22";
paths = (
{
closed = 1;
nodes = (
"417 0 LINE SMOOTH",
"426 0 OFFCURVE",
"432 6 OFFCURVE",
"432 15 CURVE SMOOTH",
"432 181 LINE SMOOTH",
"432 188 OFFCURVE",
"432 194 OFFCURVE",
"426 199 CURVE SMOOTH",
"263 340 LINE",
"263 460 LINE",
"425 600 LINE SMOOTH",
"431 605 OFFCURVE",
"432 612 OFFCURVE",
"432 619 CURVE SMOOTH",
"432 785 LINE SMOOTH",
"432 794 OFFCURVE",
"426 800 OFFCURVE",
"417 800 CURVE SMOOTH",
"198 800 LINE SMOOTH",
"187 800 OFFCURVE",
"181 798 OFFCURVE",
"174 792 CURVE SMOOTH",
"36 668 LINE SMOOTH",
"28 660 OFFCURVE",
"26 657 OFFCURVE",
"26 644 CURVE SMOOTH",
"26 156 LINE SMOOTH",
"26 143 OFFCURVE",
"28 140 OFFCURVE",
"36 132 CURVE SMOOTH",
"174 8 LINE SMOOTH",
"181 2 OFFCURVE",
"187 0 OFFCURVE",
"198 0 CURVE SMOOTH"
);
}
);
width = 456;
},
{
anchors = (
{
name = bottom;
position = "{258, -30}";
},
{
name = top;
position = "{261, 800}";
}
);
associatedMasterId = m002;
layerId = "FAAD6110-8B2F-4E39-891D-0CA798B0C08A";
name = "Jun 3 22, 20:32";
paths = (
{
closed = 1;
nodes = (
"417 0 LINE SMOOTH",
"426 0 OFFCURVE",
"432 6 OFFCURVE",
"432 15 CURVE SMOOTH",
"432 181 LINE SMOOTH",
"432 188 OFFCURVE",
"432 194 OFFCURVE",
"426 199 CURVE SMOOTH",
"263 340 LINE",
"263 460 LINE",
"425 600 LINE SMOOTH",
"431 605 OFFCURVE",
"432 612 OFFCURVE",
"432 619 CURVE SMOOTH",
"432 785 LINE SMOOTH",
"432 794 OFFCURVE",
"426 800 OFFCURVE",
"417 800 CURVE SMOOTH",
"208 800 LINE SMOOTH",
"197 800 OFFCURVE",
"191 798 OFFCURVE",
"184 792 CURVE SMOOTH",
"36 672 LINE SMOOTH",
"27 665 OFFCURVE",
"26 661 OFFCURVE",
"26 648 CURVE SMOOTH",
"26 152 LINE SMOOTH",
"26 139 OFFCURVE",
"27 135 OFFCURVE",
"36 128 CURVE SMOOTH",
"184 8 LINE SMOOTH",
"191 2 OFFCURVE",
"197 0 OFFCURVE",
"208 0 CURVE SMOOTH"
);
}
);
width = 456;
},
{
anchors = (
{
name = bottom;
position = "{258, -30}";
},
{
name = top;
position = "{261, 800}";
}
);
associatedMasterId = m002;
layerId = "241990E6-CC3F-47DD-95AA-672473D7E0BE";
name = "Jun 4 22, 20:31";
paths = (
{
closed = 1;
nodes = (
"417 0 LINE SMOOTH",
"426 0 OFFCURVE",
"432 6 OFFCURVE",
"432 15 CURVE SMOOTH",
"432 181 LINE SMOOTH",
"432 188 OFFCURVE",
"432 194 OFFCURVE",
"426 199 CURVE SMOOTH",
"263 340 LINE",
"263 460 LINE",
"425 600 LINE SMOOTH",
"431 605 OFFCURVE",
"432 612 OFFCURVE",
"432 619 CURVE SMOOTH",
"432 785 LINE SMOOTH",
"432 794 OFFCURVE",
"426 800 OFFCURVE",
"417 800 CURVE SMOOTH",
"240 800 LINE SMOOTH",
"229 800 OFFCURVE",
"223 798 OFFCURVE",
"216 792 CURVE SMOOTH",
"36 644 LINE SMOOTH",
"27 636 OFFCURVE",
"26 633 OFFCURVE",
"26 620 CURVE SMOOTH",
"26 180 LINE SMOOTH",
"26 167 OFFCURVE",
"27 164 OFFCURVE",
"36 156 CURVE SMOOTH",
"212 8 LINE SMOOTH",
"219 2 OFFCURVE",
"225 0 OFFCURVE",
"236 0 CURVE SMOOTH"
);
}
);
width = 456;
},
{
anchors = (
{
name = bottom;
position = "{258, -30}";
},
{
name = top;
position = "{261, 800}";
}
);
associatedMasterId = m002;
layerId = "9F4A8126-B245-40F8-88E1-D8CD69F7D0ED";
name = "Jun 4 22, 20:33";
paths = (
{
closed = 1;
nodes = (
"417 0 LINE SMOOTH",
"426 0 OFFCURVE",
"432 6 OFFCURVE",
"432 15 CURVE SMOOTH",
"432 181 LINE SMOOTH",
"432 188 OFFCURVE",
"432 194 OFFCURVE",
"426 199 CURVE SMOOTH",
"263 318 LINE",
"263 482 LINE",
"425 600 LINE SMOOTH",
"431 605 OFFCURVE",
"432 612 OFFCURVE",
"432 619 CURVE SMOOTH",
"432 785 LINE SMOOTH",
"432 794 OFFCURVE",
"426 800 OFFCURVE",
"417 800 CURVE SMOOTH",
"240 800 LINE SMOOTH",
"229 800 OFFCURVE",
"224 797 OFFCURVE",
"216 792 CURVE SMOOTH",
"36 664 LINE SMOOTH",
"26 657 OFFCURVE",
"26 653 OFFCURVE",
"26 640 CURVE SMOOTH",
"26 160 LINE SMOOTH",
"26 147 OFFCURVE",
"27 143 OFFCURVE",
"36 136 CURVE SMOOTH",
"212 8 LINE SMOOTH",
"219 3 OFFCURVE",
"225 0 OFFCURVE",
"236 0 CURVE SMOOTH"
);
}
);
width = 456;
}
);
unicode = 0043;
},
{
glyphname = "Chi-latin";
lastChange = "2023-10-05 19:45:44 +0000";
layers = (
{
layerId = "462F72A0-0500-4E69-A49B-6C2F2580580D";
width = 600;
},
{
layerId = m002;
paths = (
{
closed = 1;
nodes = (
"55 478 LINE SMOOTH",
"55 471 OFFCURVE",
"55 466 OFFCURVE",
"61 460 CURVE SMOOTH",
"141 380 LINE",
"141 359 LINE",
"63 281 LINE SMOOTH",
"57 275 OFFCURVE",
"57 270 OFFCURVE",
"57 263 CURVE SMOOTH",
"57 15 LINE SMOOTH",
"57 6 OFFCURVE",
"63 0 OFFCURVE",
"72 0 CURVE SMOOTH",
"292 0 LINE SMOOTH",
"301 0 OFFCURVE",
"307 6 OFFCURVE",
"307 15 CURVE SMOOTH",
"307 251 LINE",
"353 251 LINE",
"353 153 LINE SMOOTH",
"353 143 OFFCURVE",
"356 136 OFFCURVE",
"363 129 CURVE SMOOTH",
"483 10 LINE SMOOTH",
"490 3 OFFCURVE",
"497 0 OFFCURVE",
"507 0 CURVE SMOOTH",
"638 0 LINE SMOOTH",
"647 0 OFFCURVE",
"653 6 OFFCURVE",
"653 15 CURVE SMOOTH",
"653 125 LINE SMOOTH",
"653 134 OFFCURVE",
"647 140 OFFCURVE",
"638 140 CURVE SMOOTH",
"603 140 LINE",
"603 147 LINE",
"603 263 LINE SMOOTH",
"603 270 OFFCURVE",
"603 275 OFFCURVE",
"597 281 CURVE SMOOTH",
"519 359 LINE",
"519 380 LINE",
"599 460 LINE SMOOTH",
"605 466 OFFCURVE",
"605 471 OFFCURVE",
"605 478 CURVE SMOOTH",
"605 785 LINE SMOOTH",
"605 794 OFFCURVE",
"599 800 OFFCURVE",
"590 800 CURVE SMOOTH",
"370 800 LINE SMOOTH",
"361 800 OFFCURVE",
"355 794 OFFCURVE",
"355 785 CURVE SMOOTH",
"355 491 LINE",
"305 491 LINE",
"305 646 LINE SMOOTH",
"305 656 OFFCURVE",
"302 663 OFFCURVE",
"295 670 CURVE SMOOTH",
"175 790 LINE SMOOTH",
"168 797 OFFCURVE",
"161 800 OFFCURVE",
"151 800 CURVE SMOOTH",
"20 800 LINE SMOOTH",
"11 800 OFFCURVE",
"5 794 OFFCURVE",
"5 785 CURVE SMOOTH",
"5 675 LINE SMOOTH",
"5 666 OFFCURVE",
"11 660 OFFCURVE",
"20 660 CURVE SMOOTH",
"55 660 LINE"
);
}
);
width = 658;
}
);
unicode = A7B3;
},
{
glyphname = Chook;
lastChange = "2023-10-05 19:45:44 +0000";
layers = (
{
anchors = (
{
name = top;
position = "{400, 930}";
}
);
components = (
{
name = C;
}
);
layerId = "462F72A0-0500-4E69-A49B-6C2F2580580D";
paths = (
{
closed = 1;
nodes = (
"397 756 LINE SMOOTH",
"406 756 OFFCURVE",
"412 762 OFFCURVE",
"412 771 CURVE SMOOTH",
"412 820 LINE",
"483 820 LINE SMOOTH",
"492 820 OFFCURVE",
"498 826 OFFCURVE",
"498 835 CURVE",
"498 908 LINE",
"498 925 OFFCURVE",
"484 939 OFFCURVE",
"460 939 CURVE SMOOTH",
"350 939 LINE SMOOTH",
"343 939 OFFCURVE",
"337 937 OFFCURVE",
"332 931 CURVE SMOOTH",
"298 895 LINE SMOOTH",
"293 890 OFFCURVE",
"291 883 OFFCURVE",
"291 876 CURVE SMOOTH",
"291 771 LINE SMOOTH",
"291 762 OFFCURVE",
"297 756 OFFCURVE",
"306 756 CURVE SMOOTH"
);
}
);
width = 415;
},
{
anchors = (
{
name = top;
position = "{400, 930}";
}
);
components = (
{
name = C;
}
);
layerId = m002;
paths = (
{
closed = 1;
nodes = (
"397 756 LINE SMOOTH",
"406 756 OFFCURVE",
"412 762 OFFCURVE",
"412 771 CURVE SMOOTH",
"412 820 LINE",
"483 820 LINE SMOOTH",
"492 820 OFFCURVE",
"498 826 OFFCURVE",
"498 835 CURVE",
"498 908 LINE",
"498 925 OFFCURVE",
"484 939 OFFCURVE",
"460 939 CURVE SMOOTH",
"350 939 LINE SMOOTH",
"343 939 OFFCURVE",
"337 937 OFFCURVE",
"332 931 CURVE SMOOTH",
"298 895 LINE SMOOTH",
"293 890 OFFCURVE",
"291 883 OFFCURVE",
"291 876 CURVE SMOOTH",
"291 771 LINE SMOOTH",
"291 762 OFFCURVE",
"297 756 OFFCURVE",
"306 756 CURVE SMOOTH"
);
}
);
width = 415;
}
);
unicode = "0187,0188";
},
{
color = 0;
glyphname = D;
lastChange = "2023-10-16 19:28:17 +0000";
layers = (
{
anchors = (
{
name = bottom;
position = "{283, -30}";
},
{
name = center;
position = "{295, 400}";
},
{
name = top;
position = "{295, 800}";
}
);
annotations = (
{
position = "{402, 631}";
text = "Roundness of edges not alligned with /O";
type = Text;
width = 105;
}
);
associatedMasterId = "462F72A0-0500-4E69-A49B-6C2F2580580D";
layerId = "FCB09AC3-96D3-4C18-A47A-989C3C1E00D9";
name = "Jun 2 22, 02:44";
paths = (
{
closed = 1;
nodes = (
"30 15 LINE SMOOTH",
"30 7 OFFCURVE",
"37 0 OFFCURVE",
"45 0 CURVE SMOOTH",
"448 0 LINE SMOOTH",
"452 0 OFFCURVE",
"457 2 OFFCURVE",
"459 5 CURVE SMOOTH",
"572 159 LINE SMOOTH",
"573 161 OFFCURVE",
"574 164 OFFCURVE",
"574 166 CURVE SMOOTH",
"574 629 LINE SMOOTH",
"574 631 OFFCURVE",
"573 633 OFFCURVE",
"571 636 CURVE SMOOTH",
"442 795 LINE SMOOTH",
"440 798 OFFCURVE",
"436 800 OFFCURVE",
"432 800 CURVE SMOOTH",
"45 800 LINE SMOOTH",
"37 800 OFFCURVE",
"30 793 OFFCURVE",
"30 785 CURVE SMOOTH"
);
},
{
closed = 1;
nodes = (
"322 575 OFFCURVE",
"331 557 OFFCURVE",
"331 524 CURVE SMOOTH",
"331 276 LINE SMOOTH",
"331 245 OFFCURVE",
"318 228 OFFCURVE",
"301 228 CURVE SMOOTH",
"275 228 LINE",
"275 575 LINE",
"301 575 LINE SMOOTH"
);
}
);
width = 602;
},
{
anchors = (
{
name = bottom;
position = "{290, -30}";
},
{
name = center;
position = "{302, 400}";
},
{
name = top;
position = "{302, 800}";
}
);
annotations = (
{
position = "{402, 631}";
text = "Roundness of edges not alligned with /O";
type = Text;
width = 105;
}
);
associatedMasterId = "462F72A0-0500-4E69-A49B-6C2F2580580D";
guideLines = (
{
angle = 90;
position = "{306, 0}";
showMeasurement = 1;
}
);
layerId = "47B87325-F592-43BF-923A-1C9BC43172A6";
name = "Jul 29 22, 20:56";
paths = (
{
closed = 1;
nodes = (
"30 15 LINE SMOOTH",
"30 7 OFFCURVE",
"37 0 OFFCURVE",
"45 0 CURVE SMOOTH",
"460 0 LINE SMOOTH",
"464 0 OFFCURVE",
"469 2 OFFCURVE",
"471 5 CURVE SMOOTH",
"584 159 LINE SMOOTH",
"585 161 OFFCURVE",
"586 164 OFFCURVE",
"586 166 CURVE SMOOTH",
"586 629 LINE SMOOTH",
"586 631 OFFCURVE",
"585 633 OFFCURVE",
"583 636 CURVE SMOOTH",
"454 795 LINE SMOOTH",
"452 798 OFFCURVE",
"448 800 OFFCURVE",
"444 800 CURVE SMOOTH",
"45 800 LINE SMOOTH",
"37 800 OFFCURVE",
"30 793 OFFCURVE",
"30 785 CURVE SMOOTH"
);
},
{
closed = 1;
nodes = (
"286 226 OFFCURVE",
"274 238 OFFCURVE",
"274 260 CURVE SMOOTH",
"274 540 LINE SMOOTH",
"274 562 OFFCURVE",
"286 574 OFFCURVE",
"306 574 CURVE SMOOTH",
"326 574 OFFCURVE",
"338 562 OFFCURVE",
"338 540 CURVE SMOOTH",
"338 260 LINE SMOOTH",
"338 238 OFFCURVE",
"326 226 OFFCURVE",
"306 226 CURVE SMOOTH"
);
}
);
width = 612;
},
{
anchors = (
{
name = bottom;
position = "{390, -30}";
},
{
name = center;
position = "{402, 400}";
},
{
name = top;
position = "{402, 800}";
}
);
annotations = (
{
position = "{402, 631}";
text = "Roundness of edges not alligned with /O";
type = Text;
width = 105;
}
);
guideLines = (
{
angle = 90;
position = "{406, 0}";
showMeasurement = 1;
}
);
layerId = "462F72A0-0500-4E69-A49B-6C2F2580580D";
paths = (
{
closed = 1;
nodes = (
"471 0 LINE SMOOTH",
"481 0 OFFCURVE",
"488 3 OFFCURVE",
"495 10 CURVE SMOOTH",
"615 130 LINE SMOOTH",
"622 137 OFFCURVE",
"625 144 OFFCURVE",
"625 154 CURVE SMOOTH",
"625 646 LINE SMOOTH",
"625 656 OFFCURVE",
"622 663 OFFCURVE",
"615 670 CURVE SMOOTH",
"495 790 LINE SMOOTH",
"488 797 OFFCURVE",
"481 800 OFFCURVE",
"471 800 CURVE SMOOTH",
"90 800 LINE SMOOTH",
"81 800 OFFCURVE",
"75 794 OFFCURVE",
"75 785 CURVE SMOOTH",
"75 15 LINE SMOOTH",
"75 6 OFFCURVE",
"81 0 OFFCURVE",
"90 0 CURVE SMOOTH"
);
},
{
closed = 1;
nodes = (
"325 240 LINE",
"325 560 LINE",
"350 560 LINE",
"368 560 OFFCURVE",
"375 548 OFFCURVE",
"375 526 CURVE SMOOTH",
"375 274 LINE SMOOTH",
"375 252 OFFCURVE",
"368 240 OFFCURVE",
"350 240 CURVE SMOOTH"
);
}
);
width = 700;
},
{
anchors = (
{
name = bottom;
position = "{283, -30}";
},
{
name = center;
position = "{295, 400}";
},
{
name = top;
position = "{295, 800}";
}
);
annotations = (
{
position = "{402, 631}";
text = "Roundness of edges not alligned with /O";
type = Text;
width = 105;
}
);
associatedMasterId = m002;
layerId = "2B3C299C-6DE6-4D55-8B7E-7EBB93716D67";
name = "Jun 2 22, 02:44";
paths = (
{
closed = 1;
nodes = (
"30 15 LINE SMOOTH",
"30 7 OFFCURVE",
"37 0 OFFCURVE",
"45 0 CURVE SMOOTH",
"448 0 LINE SMOOTH",
"452 0 OFFCURVE",
"457 2 OFFCURVE",
"459 5 CURVE SMOOTH",
"572 159 LINE SMOOTH",
"573 161 OFFCURVE",
"574 164 OFFCURVE",
"574 166 CURVE SMOOTH",
"574 629 LINE SMOOTH",
"574 631 OFFCURVE",
"573 633 OFFCURVE",
"571 636 CURVE SMOOTH",
"442 795 LINE SMOOTH",
"440 798 OFFCURVE",
"436 800 OFFCURVE",
"432 800 CURVE SMOOTH",
"45 800 LINE SMOOTH",
"37 800 OFFCURVE",
"30 793 OFFCURVE",
"30 785 CURVE SMOOTH"
);
},
{
closed = 1;
nodes = (
"322 575 OFFCURVE",
"331 557 OFFCURVE",
"331 524 CURVE SMOOTH",
"331 276 LINE SMOOTH",
"331 245 OFFCURVE",
"318 228 OFFCURVE",
"301 228 CURVE SMOOTH",
"275 228 LINE",
"275 575 LINE",
"301 575 LINE SMOOTH"
);
}
);
width = 602;
},
{
anchors = (
{
name = bottom;
position = "{290, -30}";
},
{
name = center;
position = "{302, 400}";
},
{
name = top;
position = "{302, 800}";
}
);
annotations = (
{
position = "{402, 631}";
text = "Roundness of edges not alligned with /O";
type = Text;
width = 105;
}
);
associatedMasterId = m002;
guideLines = (
{
angle = 90;
position = "{306, 0}";
showMeasurement = 1;
}
);
layerId = "8F505C39-5528-4471-91DC-39DACB956F93";
name = "Jul 29 22, 20:56";
paths = (
{
closed = 1;
nodes = (
"30 15 LINE SMOOTH",
"30 7 OFFCURVE",
"37 0 OFFCURVE",
"45 0 CURVE SMOOTH",
"460 0 LINE SMOOTH",
"464 0 OFFCURVE",
"469 2 OFFCURVE",
"471 5 CURVE SMOOTH",
"584 159 LINE SMOOTH",
"585 161 OFFCURVE",
"586 164 OFFCURVE",
"586 166 CURVE SMOOTH",
"586 629 LINE SMOOTH",
"586 631 OFFCURVE",
"585 633 OFFCURVE",
"583 636 CURVE SMOOTH",
"454 795 LINE SMOOTH",
"452 798 OFFCURVE",
"448 800 OFFCURVE",
"444 800 CURVE SMOOTH",
"45 800 LINE SMOOTH",
"37 800 OFFCURVE",
"30 793 OFFCURVE",
"30 785 CURVE SMOOTH"
);
},
{
closed = 1;
nodes = (
"286 226 OFFCURVE",
"274 238 OFFCURVE",
"274 260 CURVE SMOOTH",
"274 540 LINE SMOOTH",
"274 562 OFFCURVE",
"286 574 OFFCURVE",
"306 574 CURVE SMOOTH",
"326 574 OFFCURVE",
"338 562 OFFCURVE",
"338 540 CURVE SMOOTH",
"338 260 LINE SMOOTH",
"338 238 OFFCURVE",
"326 226 OFFCURVE",
"306 226 CURVE SMOOTH"
);
}
);
width = 612;
},
{
anchors = (
{
name = bottom;
position = "{290, -30}";
},
{
name = center;
position = "{302, 400}";
},
{
name = top;
position = "{302, 800}";
}
);
annotations = (
{
position = "{402, 631}";
text = "Roundness of edges not alligned with /O";
type = Text;
width = 105;
}
);
guideLines = (
{
angle = 90;
position = "{306, 0}";
showMeasurement = 1;
}
);
layerId = m002;
paths = (
{
closed = 1;
nodes = (
"421 0 LINE SMOOTH",
"431 0 OFFCURVE",
"438 3 OFFCURVE",
"445 10 CURVE SMOOTH",
"565 130 LINE SMOOTH",
"572 137 OFFCURVE",
"575 144 OFFCURVE",
"575 154 CURVE SMOOTH",
"575 646 LINE SMOOTH",
"575 656 OFFCURVE",
"572 663 OFFCURVE",
"565 670 CURVE SMOOTH",
"445 790 LINE SMOOTH",
"438 797 OFFCURVE",
"431 800 OFFCURVE",
"421 800 CURVE SMOOTH",
"40 800 LINE SMOOTH",
"31 800 OFFCURVE",
"25 794 OFFCURVE",
"25 785 CURVE SMOOTH",
"25 15 LINE SMOOTH",
"25 6 OFFCURVE",
"31 0 OFFCURVE",
"40 0 CURVE SMOOTH"
);
},
{
closed = 1;
nodes = (
"275 240 LINE",
"275 560 LINE",
"300 560 LINE",
"318 560 OFFCURVE",
"325 548 OFFCURVE",
"325 526 CURVE SMOOTH",
"325 274 LINE SMOOTH",
"325 252 OFFCURVE",
"318 240 OFFCURVE",
"300 240 CURVE SMOOTH"
);
}
);
width = 600;
}
);
leftMetricsKey = "=H";
rightMetricsKey = O;
unicode = 0044;
},
{
glyphname = Dhook;
lastChange = "2023-10-05 19:45:44 +0000";
layers = (
{
anchors = (
{
name = bottom;
position = "{411, -30}";
},
{
name = center;
position = "{423, 400}";
},
{
name = top;
position = "{119, 799}";
}
);
layerId = "462F72A0-0500-4E69-A49B-6C2F2580580D";
paths = (
{
closed = 1;
nodes = (
"576 0 LINE SMOOTH",
"580 0 OFFCURVE",
"585 2 OFFCURVE",
"587 5 CURVE SMOOTH",
"700 159 LINE SMOOTH",
"701 161 OFFCURVE",
"702 164 OFFCURVE",
"702 166 CURVE SMOOTH",
"702 629 LINE SMOOTH",
"702 631 OFFCURVE",
"701 633 OFFCURVE",
"699 636 CURVE SMOOTH",
"570 795 LINE SMOOTH",
"568 798 OFFCURVE",
"564 800 OFFCURVE",
"560 800 CURVE SMOOTH",
"185 800 LINE SMOOTH",
"177 800 OFFCURVE",
"170 793 OFFCURVE",
"170 785 CURVE SMOOTH",
"170 15 LINE SMOOTH",
"170 7 OFFCURVE",
"177 0 OFFCURVE",
"185 0 CURVE SMOOTH"
);
},
{
closed = 1;
nodes = (
"415 575 LINE",
"429 575 LINE SMOOTH",
"450 575 OFFCURVE",
"459 557 OFFCURVE",
"459 524 CURVE SMOOTH",
"459 276 LINE SMOOTH",
"459 245 OFFCURVE",
"446 228 OFFCURVE",
"429 228 CURVE SMOOTH",
"415 228 LINE"
);
}
);
width = 709;
},
{
anchors = (
{
name = bottom;
position = "{411, -30}";
},
{
name = center;
position = "{423, 400}";
},
{
name = top;
position = "{119, 799}";
}
);
layerId = m002;
paths = (
{
closed = 1;
nodes = (
"576 0 LINE SMOOTH",
"580 0 OFFCURVE",
"585 2 OFFCURVE",
"587 5 CURVE SMOOTH",
"700 159 LINE SMOOTH",
"701 161 OFFCURVE",
"702 164 OFFCURVE",
"702 166 CURVE SMOOTH",
"702 629 LINE SMOOTH",
"702 631 OFFCURVE",
"701 633 OFFCURVE",
"699 636 CURVE SMOOTH",
"570 795 LINE SMOOTH",
"568 798 OFFCURVE",
"564 800 OFFCURVE",
"560 800 CURVE SMOOTH",
"185 800 LINE SMOOTH",
"177 800 OFFCURVE",
"170 793 OFFCURVE",
"170 785 CURVE SMOOTH",
"170 15 LINE SMOOTH",
"170 7 OFFCURVE",
"177 0 OFFCURVE",
"185 0 CURVE SMOOTH"
);
},
{
closed = 1;
nodes = (
"415 575 LINE",
"429 575 LINE SMOOTH",
"450 575 OFFCURVE",
"459 557 OFFCURVE",
"459 524 CURVE SMOOTH",
"459 276 LINE SMOOTH",
"459 245 OFFCURVE",
"446 228 OFFCURVE",
"429 228 CURVE SMOOTH",
"415 228 LINE"
);
}
);
width = 709;
}
);
unicode = "018A,0257";
},
{
glyphname = Dtopbar;
lastChange = "2023-10-05 19:45:44 +0000";
layers = (
{
layerId = "462F72A0-0500-4E69-A49B-6C2F2580580D";
paths = (
{
closed = 1;
nodes = (
"371 0 LINE SMOOTH",
"378 0 OFFCURVE",
"385 2 OFFCURVE",
"390 8 CURVE SMOOTH",
"500 122 LINE SMOOTH",
"505 128 OFFCURVE",
"507 134 OFFCURVE",
"507 141 CURVE SMOOTH",
"507 681 LINE",
"507 801 LINE",
"10 799 LINE",
"10 599 LINE",
"269 599 LINE",
"269 237 LINE",
"269 218 OFFCURVE",
"258 205 OFFCURVE",
"238 205 CURVE SMOOTH",
"227 205 OFFCURVE",
"218 218 OFFCURVE",
"218 237 CURVE",
"218 455 LINE",
"1 455 LINE",
"1 141 LINE SMOOTH",
"1 134 OFFCURVE",
"3 128 OFFCURVE",
"8 122 CURVE SMOOTH",
"118 8 LINE SMOOTH",
"123 2 OFFCURVE",
"130 0 OFFCURVE",
"137 0 CURVE SMOOTH"
);
},
{
closed = 1;
nodes = (
"361 315 LINE",
"361 478 LINE",
"1 478 LINE",
"1 315 LINE"
);
}
);
width = 508;
},
{
layerId = m002;
paths = (
{
closed = 1;
nodes = (
"371 0 LINE SMOOTH",
"378 0 OFFCURVE",
"385 2 OFFCURVE",
"390 8 CURVE SMOOTH",
"500 122 LINE SMOOTH",
"505 128 OFFCURVE",
"507 134 OFFCURVE",
"507 141 CURVE SMOOTH",
"507 681 LINE",
"507 801 LINE",
"10 799 LINE",
"10 599 LINE",
"269 599 LINE",
"269 237 LINE",
"269 218 OFFCURVE",
"258 205 OFFCURVE",
"238 205 CURVE SMOOTH",
"227 205 OFFCURVE",
"218 218 OFFCURVE",
"218 237 CURVE",
"218 455 LINE",
"1 455 LINE",
"1 141 LINE SMOOTH",
"1 134 OFFCURVE",
"3 128 OFFCURVE",
"8 122 CURVE SMOOTH",
"118 8 LINE SMOOTH",
"123 2 OFFCURVE",
"130 0 OFFCURVE",
"137 0 CURVE SMOOTH"
);
},
{
closed = 1;
nodes = (
"361 315 LINE",
"361 478 LINE",
"1 478 LINE",
"1 315 LINE"
);
}
);
width = 508;
}
);
unicode = "018B,018C";
},
{
color = 3;
glyphname = E;
lastChange = "2023-10-16 21:44:48 +0000";
layers = (
{
anchors = (
{
name = bottom;
position = "{308, -21}";
},
{
name = ogonek;
position = "{506, 10}";
},
{
name = top;
position = "{308, 800}";
},
{
name = topleft;
position = "{80, 800}";
}
);
guideLines = (
{
angle = 90;
position = "{523, 0}";
showMeasurement = 1;
}
);
layerId = "462F72A0-0500-4E69-A49B-6C2F2580580D";
paths = (
{
closed = 1;
nodes = (
"508 0 LINE SMOOTH",
"516 0 OFFCURVE",
"523 7 OFFCURVE",
"523 15 CURVE SMOOTH",
"523 145 LINE SMOOTH",
"523 153 OFFCURVE",
"516 160 OFFCURVE",
"508 160 CURVE SMOOTH",
"275 160 LINE",
"275 330 LINE",
"488 330 LINE SMOOTH",
"496 330 OFFCURVE",
"503 337 OFFCURVE",
"503 345 CURVE SMOOTH",
"503 455 LINE SMOOTH",
"503 463 OFFCURVE",
"496 470 OFFCURVE",
"488 470 CURVE SMOOTH",
"275 470 LINE",
"275 640 LINE",
"508 640 LINE SMOOTH",
"516 640 OFFCURVE",
"523 647 OFFCURVE",
"523 655 CURVE SMOOTH",
"523 785 LINE SMOOTH",
"523 793 OFFCURVE",
"516 800 OFFCURVE",
"508 800 CURVE SMOOTH",
"90 800 LINE SMOOTH",
"82 800 OFFCURVE",
"75 793 OFFCURVE",
"75 785 CURVE SMOOTH",
"75 15 LINE SMOOTH",
"75 7 OFFCURVE",
"82 0 OFFCURVE",
"90 0 CURVE SMOOTH"
);
}
);
width = 598;
},
{
anchors = (
{
name = bottom;
position = "{257, -21}";
},
{
name = ogonek;
position = "{455, 10}";
},
{
name = top;
position = "{257, 800}";
},
{
name = topleft;
position = "{29, 800}";
}
);
associatedMasterId = "462F72A0-0500-4E69-A49B-6C2F2580580D";
layerId = "555E0F49-C987-4FA7-8787-B2B27C2C2F9C";
name = "Jun 2 22, 18:31";
paths = (
{
closed = 1;
nodes = (
"478 785 LINE SMOOTH",
"478 793 OFFCURVE",
"471 800 OFFCURVE",
"463 800 CURVE SMOOTH",
"45 800 LINE SMOOTH",
"37 800 OFFCURVE",
"30 793 OFFCURVE",
"30 785 CURVE SMOOTH",
"30 15 LINE SMOOTH",
"30 7 OFFCURVE",
"37 0 OFFCURVE",
"45 0 CURVE SMOOTH",
"477 1 LINE SMOOTH",
"485 1 OFFCURVE",
"492 8 OFFCURVE",
"492 16 CURVE SMOOTH",
"492 218 LINE SMOOTH",
"492 226 OFFCURVE",
"485 233 OFFCURVE",
"477 233 CURVE SMOOTH",
"277 233 LINE",
"277 279 LINE",
"463 279 LINE SMOOTH",
"471 279 OFFCURVE",
"478 286 OFFCURVE",
"478 294 CURVE SMOOTH",
"478 487 LINE SMOOTH",
"478 495 OFFCURVE",
"471 502 OFFCURVE",
"463 502 CURVE SMOOTH",
"277 502 LINE",
"277 556 LINE",
"463 556 LINE SMOOTH",
"471 556 OFFCURVE",
"478 563 OFFCURVE",
"478 571 CURVE SMOOTH"
);
}
);
width = 505;
},
{
anchors = (
{
name = bottom;
position = "{257, -21}";
},
{
name = ogonek;
position = "{455, 10}";
},
{
name = top;
position = "{257, 800}";
},
{
name = topleft;
position = "{29, 800}";
}
);
associatedMasterId = "462F72A0-0500-4E69-A49B-6C2F2580580D";
layerId = "F86F8B87-007E-489F-894F-041A372F0069";
name = "Jul 30 22, 02:22";
paths = (
{
closed = 1;
nodes = (
"478 785 LINE SMOOTH",
"478 793 OFFCURVE",
"471 800 OFFCURVE",
"463 800 CURVE SMOOTH",
"45 800 LINE SMOOTH",
"37 800 OFFCURVE",
"30 793 OFFCURVE",
"30 785 CURVE SMOOTH",
"30 15 LINE SMOOTH",
"30 7 OFFCURVE",
"37 0 OFFCURVE",
"45 0 CURVE SMOOTH",
"477 1 LINE SMOOTH",
"485 1 OFFCURVE",
"492 8 OFFCURVE",
"492 16 CURVE SMOOTH",
"492 218 LINE SMOOTH",
"492 226 OFFCURVE",
"485 233 OFFCURVE",
"477 233 CURVE SMOOTH",
"277 233 LINE",
"277 279 LINE",
"463 279 LINE SMOOTH",
"471 279 OFFCURVE",
"478 286 OFFCURVE",
"478 294 CURVE SMOOTH",
"478 487 LINE SMOOTH",
"478 495 OFFCURVE",
"471 502 OFFCURVE",
"463 502 CURVE SMOOTH",
"277 502 LINE",
"277 556 LINE",
"463 556 LINE SMOOTH",
"471 556 OFFCURVE",
"478 563 OFFCURVE",
"478 571 CURVE SMOOTH"
);
}
);
width = 508;
},
{
anchors = (
{
name = bottom;
position = "{258, -21}";
},
{
name = ogonek;
position = "{456, 10}";
},
{
name = top;
position = "{258, 800}";
},
{
name = topleft;
position = "{30, 800}";
}
);
guideLines = (
{
angle = 90;
position = "{473, 0}";
showMeasurement = 1;
}
);
layerId = m002;
paths = (
{
closed = 1;
nodes = (
"458 0 LINE SMOOTH",
"466 0 OFFCURVE",
"473 7 OFFCURVE",
"473 15 CURVE SMOOTH",
"473 225 LINE SMOOTH",
"473 233 OFFCURVE",
"466 240 OFFCURVE",
"458 240 CURVE SMOOTH",
"275 240 LINE",
"275 290 LINE",
"458 290 LINE SMOOTH",
"466 290 OFFCURVE",
"473 297 OFFCURVE",
"473 305 CURVE SMOOTH",
"473 495 LINE SMOOTH",
"473 503 OFFCURVE",
"466 510 OFFCURVE",
"458 510 CURVE SMOOTH",
"275 510 LINE",
"275 560 LINE",
"458 560 LINE SMOOTH",
"466 560 OFFCURVE",
"473 567 OFFCURVE",
"473 575 CURVE SMOOTH",
"473 785 LINE SMOOTH",
"473 793 OFFCURVE",
"466 800 OFFCURVE",
"458 800 CURVE SMOOTH",
"40 800 LINE SMOOTH",
"32 800 OFFCURVE",
"25 793 OFFCURVE",
"25 785 CURVE SMOOTH",
"25 15 LINE SMOOTH",
"25 7 OFFCURVE",
"32 0 OFFCURVE",
"40 0 CURVE SMOOTH"
);
}
);
width = 498;
},
{
anchors = (
{
name = bottom;
position = "{257, -21}";
},
{
name = ogonek;
position = "{455, 10}";
},
{
name = top;
position = "{257, 800}";
},
{
name = topleft;
position = "{29, 800}";
}
);
associatedMasterId = m002;
layerId = "4C791BA3-ECCF-4F29-9914-38D7C00E2916";
name = "Jun 2 22, 18:31";
paths = (
{
closed = 1;
nodes = (
"478 785 LINE SMOOTH",
"478 793 OFFCURVE",
"471 800 OFFCURVE",
"463 800 CURVE SMOOTH",
"45 800 LINE SMOOTH",
"37 800 OFFCURVE",
"30 793 OFFCURVE",
"30 785 CURVE SMOOTH",
"30 15 LINE SMOOTH",
"30 7 OFFCURVE",
"37 0 OFFCURVE",
"45 0 CURVE SMOOTH",
"477 1 LINE SMOOTH",
"485 1 OFFCURVE",
"492 8 OFFCURVE",
"492 16 CURVE SMOOTH",
"492 218 LINE SMOOTH",
"492 226 OFFCURVE",
"485 233 OFFCURVE",
"477 233 CURVE SMOOTH",
"277 233 LINE",
"277 279 LINE",
"463 279 LINE SMOOTH",
"471 279 OFFCURVE",
"478 286 OFFCURVE",
"478 294 CURVE SMOOTH",
"478 487 LINE SMOOTH",
"478 495 OFFCURVE",
"471 502 OFFCURVE",
"463 502 CURVE SMOOTH",
"277 502 LINE",
"277 556 LINE",
"463 556 LINE SMOOTH",
"471 556 OFFCURVE",
"478 563 OFFCURVE",
"478 571 CURVE SMOOTH"
);
}
);
width = 505;
},
{
anchors = (
{
name = bottom;
position = "{257, -21}";
},
{
name = ogonek;
position = "{455, 10}";
},
{
name = top;
position = "{257, 800}";
},
{
name = topleft;
position = "{29, 800}";
}
);
associatedMasterId = m002;
layerId = "AE38E9B8-E975-4F64-9178-E16597981D15";
name = "Jul 30 22, 02:22";
paths = (
{
closed = 1;
nodes = (
"478 785 LINE SMOOTH",
"478 793 OFFCURVE",
"471 800 OFFCURVE",
"463 800 CURVE SMOOTH",
"45 800 LINE SMOOTH",
"37 800 OFFCURVE",
"30 793 OFFCURVE",
"30 785 CURVE SMOOTH",
"30 15 LINE SMOOTH",
"30 7 OFFCURVE",
"37 0 OFFCURVE",
"45 0 CURVE SMOOTH",
"477 1 LINE SMOOTH",
"485 1 OFFCURVE",
"492 8 OFFCURVE",
"492 16 CURVE SMOOTH",
"492 218 LINE SMOOTH",
"492 226 OFFCURVE",
"485 233 OFFCURVE",
"477 233 CURVE SMOOTH",
"277 233 LINE",
"277 279 LINE",
"463 279 LINE SMOOTH",
"471 279 OFFCURVE",
"478 286 OFFCURVE",
"478 294 CURVE SMOOTH",
"478 487 LINE SMOOTH",
"478 495 OFFCURVE",
"471 502 OFFCURVE",
"463 502 CURVE SMOOTH",
"277 502 LINE",
"277 556 LINE",
"463 556 LINE SMOOTH",
"471 556 OFFCURVE",
"478 563 OFFCURVE",
"478 571 CURVE SMOOTH"
);
}
);
width = 508;
}
);
leftMetricsKey = "=H";
rightMetricsKey = O;
unicode = 0045;
},
{
glyphname = Eopen;
lastChange = "2023-10-05 19:45:44 +0000";
layers = (
{
layerId = "462F72A0-0500-4E69-A49B-6C2F2580580D";
paths = (
{
closed = 1;
nodes = (
"334 0 LINE SMOOTH",
"343 0 OFFCURVE",
"349 6 OFFCURVE",
"349 15 CURVE SMOOTH",
"349 152 LINE SMOOTH",
"349 160 OFFCURVE",
"345 164 OFFCURVE",
"340 170 CURVE SMOOTH",
"231 292 LINE",
"231 309 LINE",
"308 368 LINE SMOOTH",
"315 373 OFFCURVE",
"319 376 OFFCURVE",
"319 385 CURVE SMOOTH",
"319 407 LINE SMOOTH",
"319 416 OFFCURVE",
"315 420 OFFCURVE",
"308 424 CURVE SMOOTH",
"233 473 LINE",
"233 490 LINE",
"340 614 LINE SMOOTH",
"345 620 OFFCURVE",
"349 624 OFFCURVE",
"349 632 CURVE SMOOTH",
"349 785 LINE SMOOTH",
"349 794 OFFCURVE",
"343 800 OFFCURVE",
"334 800 CURVE SMOOTH",
"136 800 LINE SMOOTH",
"129 800 OFFCURVE",
"123 800 OFFCURVE",
"118 794 CURVE SMOOTH",
"9 681 LINE SMOOTH",
"4 675 OFFCURVE",
"0 671 OFFCURVE",
"0 663 CURVE SMOOTH",
"0 459 LINE SMOOTH",
"0 451 OFFCURVE",
"3 445 OFFCURVE",
"10 441 CURVE SMOOTH",
"82 399 LINE",
"82 386 LINE",
"9 333 LINE SMOOTH",
"3 328 OFFCURVE",
"0 323 OFFCURVE",
"0 315 CURVE SMOOTH",
"0 141 LINE SMOOTH",
"0 133 OFFCURVE",
"4 129 OFFCURVE",
"9 123 CURVE SMOOTH",
"100 6 LINE SMOOTH",
"105 0 OFFCURVE",
"111 0 OFFCURVE",
"118 0 CURVE SMOOTH"
);
}
);
width = 350;
},
{
layerId = m002;
paths = (
{
closed = 1;
nodes = (
"334 0 LINE SMOOTH",
"343 0 OFFCURVE",
"349 6 OFFCURVE",
"349 15 CURVE SMOOTH",
"349 152 LINE SMOOTH",
"349 160 OFFCURVE",
"345 164 OFFCURVE",
"340 170 CURVE SMOOTH",
"231 292 LINE",
"231 309 LINE",
"308 368 LINE SMOOTH",
"315 373 OFFCURVE",
"319 376 OFFCURVE",
"319 385 CURVE SMOOTH",
"319 407 LINE SMOOTH",
"319 416 OFFCURVE",
"315 420 OFFCURVE",
"308 424 CURVE SMOOTH",
"233 473 LINE",
"233 490 LINE",
"340 614 LINE SMOOTH",
"345 620 OFFCURVE",
"349 624 OFFCURVE",
"349 632 CURVE SMOOTH",
"349 785 LINE SMOOTH",
"349 794 OFFCURVE",
"343 800 OFFCURVE",
"334 800 CURVE SMOOTH",
"136 800 LINE SMOOTH",
"129 800 OFFCURVE",
"123 800 OFFCURVE",
"118 794 CURVE SMOOTH",
"9 681 LINE SMOOTH",
"4 675 OFFCURVE",
"0 671 OFFCURVE",
"0 663 CURVE SMOOTH",
"0 459 LINE SMOOTH",
"0 451 OFFCURVE",
"3 445 OFFCURVE",
"10 441 CURVE SMOOTH",
"82 399 LINE",
"82 386 LINE",
"9 333 LINE SMOOTH",
"3 328 OFFCURVE",
"0 323 OFFCURVE",
"0 315 CURVE SMOOTH",
"0 141 LINE SMOOTH",
"0 133 OFFCURVE",
"4 129 OFFCURVE",
"9 123 CURVE SMOOTH",
"100 6 LINE SMOOTH",
"105 0 OFFCURVE",
"111 0 OFFCURVE",
"118 0 CURVE SMOOTH"
);
}
);
width = 350;
}
);
unicode = "0190,025B";
},
{
glyphname = Esh;
lastChange = "2023-10-05 19:45:44 +0000";
layers = (
{
layerId = "462F72A0-0500-4E69-A49B-6C2F2580580D";
paths = (
{
closed = 1;
nodes = (
"288 5 LINE SMOOTH",
"297 5 OFFCURVE",
"303 11 OFFCURVE",
"303 20 CURVE SMOOTH",
"303 187 LINE SMOOTH",
"303 196 OFFCURVE",
"297 202 OFFCURVE",
"288 202 CURVE SMOOTH",
"225 202 LINE",
"225 212 LINE",
"281 386 LINE",
"281 408 LINE",
"225 593 LINE",
"225 603 LINE",
"288 603 LINE SMOOTH",
"297 603 OFFCURVE",
"303 609 OFFCURVE",
"303 618 CURVE SMOOTH",
"303 785 LINE SMOOTH",
"303 794 OFFCURVE",
"297 800 OFFCURVE",
"288 800 CURVE SMOOTH",
"11 800 LINE SMOOTH",
"2 800 OFFCURVE",
"-4 794 OFFCURVE",
"-4 785 CURVE SMOOTH",
"-4 613 LINE",
"63 404 LINE",
"63 382 LINE",
"-4 192 LINE",
"-4 20 LINE SMOOTH",
"-4 11 OFFCURVE",
"2 5 OFFCURVE",
"11 5 CURVE SMOOTH"
);
}
);
width = 308;
},
{
layerId = m002;
paths = (
{
closed = 1;
nodes = (
"288 5 LINE SMOOTH",
"297 5 OFFCURVE",
"303 11 OFFCURVE",
"303 20 CURVE SMOOTH",
"303 187 LINE SMOOTH",
"303 196 OFFCURVE",
"297 202 OFFCURVE",
"288 202 CURVE SMOOTH",
"225 202 LINE",
"225 212 LINE",
"281 386 LINE",
"281 408 LINE",
"225 593 LINE",
"225 603 LINE",
"288 603 LINE SMOOTH",
"297 603 OFFCURVE",
"303 609 OFFCURVE",
"303 618 CURVE SMOOTH",
"303 785 LINE SMOOTH",
"303 794 OFFCURVE",
"297 800 OFFCURVE",
"288 800 CURVE SMOOTH",
"11 800 LINE SMOOTH",
"2 800 OFFCURVE",
"-4 794 OFFCURVE",
"-4 785 CURVE SMOOTH",
"-4 613 LINE",
"63 404 LINE",
"63 382 LINE",
"-4 192 LINE",
"-4 20 LINE SMOOTH",
"-4 11 OFFCURVE",
"2 5 OFFCURVE",
"11 5 CURVE SMOOTH"
);
}
);
width = 308;
}
);
unicode = "01A9,0283";
},
{
glyphname = Schwa;
lastChange = "2023-10-05 19:45:44 +0000";
layers = (
{
anchors = (
{
name = bottom;
position = "{338, -30}";
},
{
name = center;
position = "{338, 400}";
},
{
name = ogonek;
position = "{569, 10}";
},
{
name = top;
position = "{338, 800}";
},
{
name = topleft;
position = "{69, 800}";
},
{
name = topright;
position = "{584, 790}";
}
);
layerId = "462F72A0-0500-4E69-A49B-6C2F2580580D";
paths = (
{
closed = 1;
nodes = (
"450 0 LINE SMOOTH",
"457 0 OFFCURVE",
"464 2 OFFCURVE",
"469 8 CURVE SMOOTH",
"579 122 LINE SMOOTH",
"584 128 OFFCURVE",
"586 134 OFFCURVE",
"586 141 CURVE SMOOTH",
"586 610 LINE SMOOTH",
"586 617 OFFCURVE",
"584 623 OFFCURVE",
"578 628 CURVE SMOOTH",
"469 723 LINE SMOOTH",
"464 728 OFFCURVE",
"457 730 OFFCURVE",
"450 730 CURVE SMOOTH",
"206 730 LINE",
"79 728 LINE",
"79 502 LINE",
"317 502 LINE SMOOTH",
"337 502 OFFCURVE",
"348 490 OFFCURVE",
"348 478 CURVE",
"348 257 LINE",
"348 238 OFFCURVE",
"337 225 OFFCURVE",
"317 225 CURVE SMOOTH",
"296 225 OFFCURVE",
"287 238 OFFCURVE",
"287 257 CURVE",
"287 445 LINE",
"70 445 LINE",
"70 141 LINE SMOOTH",
"70 134 OFFCURVE",
"72 128 OFFCURVE",
"77 122 CURVE SMOOTH",
"187 8 LINE SMOOTH",
"192 2 OFFCURVE",
"199 0 OFFCURVE",
"206 0 CURVE SMOOTH"
);
},
{
closed = 1;
nodes = (
"440 305 LINE",
"440 468 LINE",
"70 468 LINE",
"70 305 LINE"
);
}
);
width = 656;
},
{
anchors = (
{
name = bottom;
position = "{288, -30}";
},
{
name = center;
position = "{288, 400}";
},
{
name = ogonek;
position = "{519, 10}";
},
{
name = top;
position = "{288, 800}";
},
{
name = topleft;
position = "{19, 800}";
},
{
name = topright;
position = "{534, 790}";
}
);
layerId = m002;
paths = (
{
closed = 1;
nodes = (
"400 0 LINE SMOOTH",
"407 0 OFFCURVE",
"414 2 OFFCURVE",
"419 8 CURVE SMOOTH",
"529 122 LINE SMOOTH",
"534 128 OFFCURVE",
"536 134 OFFCURVE",
"536 141 CURVE SMOOTH",
"536 610 LINE SMOOTH",
"536 617 OFFCURVE",
"534 623 OFFCURVE",
"528 628 CURVE SMOOTH",
"419 723 LINE SMOOTH",
"414 728 OFFCURVE",
"407 730 OFFCURVE",
"400 730 CURVE SMOOTH",
"156 730 LINE",
"29 728 LINE",
"29 502 LINE",
"267 502 LINE SMOOTH",
"287 502 OFFCURVE",
"298 490 OFFCURVE",
"298 478 CURVE",
"298 257 LINE",
"298 238 OFFCURVE",
"287 225 OFFCURVE",
"267 225 CURVE SMOOTH",
"246 225 OFFCURVE",
"237 238 OFFCURVE",
"237 257 CURVE",
"237 445 LINE",
"20 445 LINE",
"20 141 LINE SMOOTH",
"20 134 OFFCURVE",
"22 128 OFFCURVE",
"27 122 CURVE SMOOTH",
"137 8 LINE SMOOTH",
"142 2 OFFCURVE",
"149 0 OFFCURVE",
"156 0 CURVE SMOOTH"
);
},
{
closed = 1;
nodes = (
"390 305 LINE",
"390 468 LINE",
"20 468 LINE",
"20 305 LINE"
);
}
);
width = 556;
}
);
leftMetricsKey = "=O-5";
rightMetricsKey = "=O-5";
unicode = "018F,0259";
},
{
glyphname = Ezh;
lastChange = "2023-10-05 19:45:44 +0000";
layers = (
{
layerId = "462F72A0-0500-4E69-A49B-6C2F2580580D";
paths = (
{
closed = 1;
nodes = (
"189 0 LINE SMOOTH",
"196 0 OFFCURVE",
"202 0 OFFCURVE",
"207 6 CURVE SMOOTH",
"293 123 LINE SMOOTH",
"300 132 OFFCURVE",
"302 137 OFFCURVE",
"302 152 CURVE SMOOTH",
"302 356 LINE SMOOTH",
"302 364 OFFCURVE",
"298 368 OFFCURVE",
"293 374 CURVE SMOOTH",
"225 459 LINE",
"225 473 LINE",
"293 613 LINE",
"293 785 LINE SMOOTH",
"293 794 OFFCURVE",
"287 800 OFFCURVE",
"278 800 CURVE SMOOTH",
"13 800 LINE SMOOTH",
"4 800 OFFCURVE",
"-2 794 OFFCURVE",
"-2 785 CURVE SMOOTH",
"-2 618 LINE SMOOTH",
"-2 609 OFFCURVE",
"4 603 OFFCURVE",
"13 603 CURVE SMOOTH",
"74 603 LINE",
"74 593 LINE",
"12 428 LINE SMOOTH",
"9 420 OFFCURVE",
"11 408 OFFCURVE",
"16 402 CURVE SMOOTH",
"106 294 LINE",
"106 282 LINE",
"8 150 LINE SMOOTH",
"3 144 OFFCURVE",
"-1 140 OFFCURVE",
"-1 132 CURVE SMOOTH",
"-1 15 LINE SMOOTH",
"-1 6 OFFCURVE",
"5 0 OFFCURVE",
"14 0 CURVE SMOOTH"
);
}
);
width = 297;
},
{
layerId = m002;
paths = (
{
closed = 1;
nodes = (
"414 5 OFFCURVE",
"420 11 OFFCURVE",
"420 20 CURVE SMOOTH",
"420 240 LINE",
"310 392 LINE",
"310 414 LINE",
"420 560 LINE",
"420 785 LINE SMOOTH",
"420 794 OFFCURVE",
"414 800 OFFCURVE",
"405 800 CURVE SMOOTH",
"40 800 LINE SMOOTH",
"31 800 OFFCURVE",
"25 794 OFFCURVE",
"25 785 CURVE SMOOTH",
"25 575 LINE SMOOTH",
"25 566 OFFCURVE",
"31 560 OFFCURVE",
"40 560 CURVE SMOOTH",
"151 560 LINE",
"151 550 LINE",
"52 414 LINE",
"52 392 LINE",
"151 257 LINE",
"151 247 LINE",
"40 247 LINE SMOOTH",
"31 247 OFFCURVE",
"25 241 OFFCURVE",
"25 232 CURVE SMOOTH",
"25 20 LINE SMOOTH",
"25 11 OFFCURVE",
"31 5 OFFCURVE",
"40 5 CURVE SMOOTH",
"405 5 LINE SMOOTH"
);
}
);
width = 495;
}
);
unicode = "01B7,0292";
},
{
glyphname = Ezhreversed;
lastChange = "2023-10-05 19:45:44 +0000";
layers = (
{
layerId = "462F72A0-0500-4E69-A49B-6C2F2580580D";
width = 600;
},
{
layerId = m002;
paths = (
{
closed = 1;
nodes = (
"405 5 LINE SMOOTH",
"414 5 OFFCURVE",
"420 11 OFFCURVE",
"420 20 CURVE SMOOTH",
"420 232 LINE SMOOTH",
"420 241 OFFCURVE",
"414 247 OFFCURVE",
"405 247 CURVE SMOOTH",
"294 247 LINE",
"294 257 LINE",
"393 392 LINE",
"393 414 LINE",
"294 550 LINE",
"294 560 LINE",
"405 560 LINE SMOOTH",
"414 560 OFFCURVE",
"420 566 OFFCURVE",
"420 575 CURVE SMOOTH",
"420 785 LINE SMOOTH",
"420 794 OFFCURVE",
"414 800 OFFCURVE",
"405 800 CURVE SMOOTH",
"40 800 LINE SMOOTH",
"31 800 OFFCURVE",
"25 794 OFFCURVE",
"25 785 CURVE SMOOTH",
"25 560 LINE",
"135 414 LINE",
"135 392 LINE",
"25 240 LINE",
"25 20 LINE SMOOTH",
"25 11 OFFCURVE",
"31 5 OFFCURVE",
"40 5 CURVE SMOOTH"
);
}
);
width = 445;
}
);
unicode = 01B8;
},
{
color = 0;
glyphname = F;
lastChange = "2023-10-16 21:44:39 +0000";
layers = (
{
anchors = (
{
name = bottom;
position = "{274, 0}";
},
{
name = top;
position = "{274, 800}";
}
);
layerId = "462F72A0-0500-4E69-A49B-6C2F2580580D";
paths = (
{
closed = 1;
nodes = (
"260 0 LINE SMOOTH",
"268 0 OFFCURVE",
"275 7 OFFCURVE",
"275 15 CURVE SMOOTH",
"275 280 LINE",
"488 280 LINE SMOOTH",
"496 280 OFFCURVE",
"503 287 OFFCURVE",
"503 295 CURVE SMOOTH",
"503 425 LINE SMOOTH",
"503 433 OFFCURVE",
"496 440 OFFCURVE",
"488 440 CURVE SMOOTH",
"275 440 LINE",
"275 640 LINE",
"508 640 LINE SMOOTH",
"516 640 OFFCURVE",
"523 647 OFFCURVE",
"523 655 CURVE SMOOTH",
"523 785 LINE SMOOTH",
"523 793 OFFCURVE",
"516 800 OFFCURVE",
"508 800 CURVE SMOOTH",
"90 800 LINE SMOOTH",
"82 800 OFFCURVE",
"75 793 OFFCURVE",
"75 785 CURVE SMOOTH",
"75 15 LINE SMOOTH",
"75 7 OFFCURVE",
"82 0 OFFCURVE",
"90 0 CURVE SMOOTH"
);
}
);
width = 548;
},
{
anchors = (
{
name = bottom;
position = "{249, 0}";
},
{
name = top;
position = "{249, 800}";
}
);
layerId = m002;
paths = (
{
closed = 1;
nodes = (
"260 0 LINE SMOOTH",
"268 0 OFFCURVE",
"275 7 OFFCURVE",
"275 15 CURVE SMOOTH",
"275 290 LINE",
"458 290 LINE SMOOTH",
"466 290 OFFCURVE",
"473 297 OFFCURVE",
"473 305 CURVE SMOOTH",
"473 495 LINE SMOOTH",
"473 503 OFFCURVE",
"466 510 OFFCURVE",
"458 510 CURVE SMOOTH",
"275 510 LINE",
"275 560 LINE",
"458 560 LINE SMOOTH",
"466 560 OFFCURVE",
"473 567 OFFCURVE",
"473 575 CURVE SMOOTH",
"473 785 LINE SMOOTH",
"473 793 OFFCURVE",
"466 800 OFFCURVE",
"458 800 CURVE SMOOTH",
"40 800 LINE SMOOTH",
"32 800 OFFCURVE",
"25 793 OFFCURVE",
"25 785 CURVE SMOOTH",
"25 15 LINE SMOOTH",
"25 7 OFFCURVE",
"32 0 OFFCURVE",
"40 0 CURVE SMOOTH"
);
}
);
width = 498;
}
);
leftMetricsKey = "=H";
unicode = 0046;
},
{
color = 0;
glyphname = G;
lastChange = "2023-10-16 21:49:03 +0000";
layers = (
{
anchors = (
{
name = bottom;
position = "{365, 0}";
},
{
name = top;
position = "{365, 800}";
}
);
background = {
components = (
{
name = O;
}
);
};
layerId = "462F72A0-0500-4E69-A49B-6C2F2580580D";
paths = (
{
closed = 1;
nodes = (
"474 0 LINE SMOOTH",
"484 0 OFFCURVE",
"491 3 OFFCURVE",
"498 10 CURVE SMOOTH",
"618 130 LINE SMOOTH",
"625 137 OFFCURVE",
"628 144 OFFCURVE",
"628 154 CURVE SMOOTH",
"628 495 LINE SMOOTH",
"628 504 OFFCURVE",
"622 510 OFFCURVE",
"613 510 CURVE SMOOTH",
"348 510 LINE SMOOTH",
"340 510 OFFCURVE",
"333 503 OFFCURVE",
"333 495 CURVE SMOOTH",
"333 366 LINE SMOOTH",
"333 357 OFFCURVE",
"339 351 OFFCURVE",
"348 351 CURVE SMOOTH",
"448 350 LINE",
"448 161 LINE",
"305 161 LINE SMOOTH",
"294 161 OFFCURVE",
"285 170 OFFCURVE",
"285 181 CURVE SMOOTH",
"285 620 LINE SMOOTH",
"285 631 OFFCURVE",
"294 640 OFFCURVE",
"305 640 CURVE SMOOTH",
"602 640 LINE SMOOTH",
"610 640 OFFCURVE",
"617 647 OFFCURVE",
"617 655 CURVE SMOOTH",
"617 785 LINE SMOOTH",
"617 793 OFFCURVE",
"610 800 OFFCURVE",
"602 800 CURVE SMOOTH",
"229 800 LINE SMOOTH",
"219 800 OFFCURVE",
"212 797 OFFCURVE",
"205 790 CURVE SMOOTH",
"85 670 LINE SMOOTH",
"78 663 OFFCURVE",
"75 656 OFFCURVE",
"75 646 CURVE SMOOTH",
"75 154 LINE SMOOTH",
"75 144 OFFCURVE",
"78 137 OFFCURVE",
"85 130 CURVE SMOOTH",
"205 10 LINE SMOOTH",
"212 3 OFFCURVE",
"219 0 OFFCURVE",
"229 0 CURVE SMOOTH"
);
}
);
width = 703;
},
{
anchors = (
{
name = bottom;
position = "{315, -30}";
},
{
name = top;
position = "{315, 800}";
}
);
guideLines = (
{
angle = 225;
position = "{95, 730}";
},
{
angle = 225;
position = "{530, 70}";
}
);
layerId = m002;
paths = (
{
closed = 1;
nodes = (
"446 0 LINE SMOOTH",
"456 0 OFFCURVE",
"463 3 OFFCURVE",
"470 10 CURVE SMOOTH",
"590 130 LINE SMOOTH",
"597 137 OFFCURVE",
"600 144 OFFCURVE",
"600 154 CURVE SMOOTH",
"600 495 LINE SMOOTH",
"600 504 OFFCURVE",
"594 510 OFFCURVE",
"585 510 CURVE SMOOTH",
"330 510 LINE SMOOTH",
"322 510 OFFCURVE",
"315 503 OFFCURVE",
"315 495 CURVE SMOOTH",
"315 345 LINE SMOOTH",
"315 336 OFFCURVE",
"321 330 OFFCURVE",
"330 330 CURVE SMOOTH",
"380 329 LINE",
"380 240 LINE",
"295 240 LINE SMOOTH",
"284 240 OFFCURVE",
"275 249 OFFCURVE",
"275 260 CURVE SMOOTH",
"275 540 LINE SMOOTH",
"275 551 OFFCURVE",
"284 560 OFFCURVE",
"295 560 CURVE SMOOTH",
"542 560 LINE SMOOTH",
"550 560 OFFCURVE",
"557 567 OFFCURVE",
"557 575 CURVE SMOOTH",
"557 785 LINE SMOOTH",
"557 793 OFFCURVE",
"550 800 OFFCURVE",
"542 800 CURVE SMOOTH",
"179 800 LINE SMOOTH",
"169 800 OFFCURVE",
"162 797 OFFCURVE",
"155 790 CURVE SMOOTH",
"35 670 LINE SMOOTH",
"28 663 OFFCURVE",
"25 656 OFFCURVE",
"25 646 CURVE SMOOTH",
"25 154 LINE SMOOTH",
"25 144 OFFCURVE",
"28 137 OFFCURVE",
"35 130 CURVE SMOOTH",
"155 10 LINE SMOOTH",
"162 3 OFFCURVE",
"169 0 OFFCURVE",
"179 0 CURVE SMOOTH"
);
}
);
width = 625;
}
);
leftMetricsKey = H;
rightMetricsKey = H;
unicode = 0047;
},
{
glyphname = Ghook;
lastChange = "2023-10-05 19:45:44 +0000";
layers = (
{
anchors = (
{
name = bottom;
position = "{289, -30}";
},
{
name = top;
position = "{289, 800}";
}
);
components = (
{
name = hookabovecomb;
transform = "{-1.3182, 0, 0, 1.3182, 664, -388}";
}
);
layerId = "462F72A0-0500-4E69-A49B-6C2F2580580D";
paths = (
{
closed = 1;
nodes = (
"447 -1 OFFCURVE",
"453 0 OFFCURVE",
"459 6 CURVE SMOOTH",
"561 103 LINE SMOOTH",
"567 109 OFFCURVE",
"569 114 OFFCURVE",
"569 121 CURVE SMOOTH",
"571 491 LINE SMOOTH",
"571 500 OFFCURVE",
"565 506 OFFCURVE",
"556 506 CURVE SMOOTH",
"304 507 LINE SMOOTH",
"296 507 OFFCURVE",
"289 500 OFFCURVE",
"289 492 CURVE SMOOTH",
"289 336 LINE SMOOTH",
"289 327 OFFCURVE",
"295 321 OFFCURVE",
"304 321 CURVE SMOOTH",
"324 320 LINE",
"324 227 LINE",
"269 228 LINE SMOOTH",
"258 228 OFFCURVE",
"249 237 OFFCURVE",
"249 248 CURVE SMOOTH",
"249 530 LINE SMOOTH",
"249 541 OFFCURVE",
"258 550 OFFCURVE",
"269 550 CURVE SMOOTH",
"536 549 LINE SMOOTH",
"544 549 OFFCURVE",
"551 556 OFFCURVE",
"551 564 CURVE SMOOTH",
"551 784 LINE SMOOTH",
"551 792 OFFCURVE",
"544 799 OFFCURVE",
"536 799 CURVE SMOOTH",
"167 800 LINE SMOOTH",
"160 800 OFFCURVE",
"153 798 OFFCURVE",
"148 792 CURVE SMOOTH",
"18 660 LINE SMOOTH",
"13 654 OFFCURVE",
"11 648 OFFCURVE",
"11 641 CURVE SMOOTH",
"11 150 LINE SMOOTH",
"11 143 OFFCURVE",
"14 138 OFFCURVE",
"19 132 CURVE SMOOTH",
"128 7 LINE SMOOTH",
"133 2 OFFCURVE",
"140 0 OFFCURVE",
"147 0 CURVE SMOOTH",
"440 -1 LINE SMOOTH"
);
}
);
width = 577;
},
{
anchors = (
{
name = bottom;
position = "{289, -30}";
},
{
name = top;
position = "{289, 800}";
}
);
components = (
{
name = hookabovecomb;
transform = "{-1.3182, 0, 0, 1.3182, 664, -388}";
}
);
layerId = m002;
paths = (
{
closed = 1;
nodes = (
"447 -1 OFFCURVE",
"453 0 OFFCURVE",
"459 6 CURVE SMOOTH",
"561 103 LINE SMOOTH",
"567 109 OFFCURVE",
"569 114 OFFCURVE",
"569 121 CURVE SMOOTH",
"571 491 LINE SMOOTH",
"571 500 OFFCURVE",
"565 506 OFFCURVE",
"556 506 CURVE SMOOTH",
"304 507 LINE SMOOTH",
"296 507 OFFCURVE",
"289 500 OFFCURVE",
"289 492 CURVE SMOOTH",
"289 336 LINE SMOOTH",
"289 327 OFFCURVE",
"295 321 OFFCURVE",
"304 321 CURVE SMOOTH",
"324 320 LINE",
"324 227 LINE",
"269 228 LINE SMOOTH",
"258 228 OFFCURVE",
"249 237 OFFCURVE",
"249 248 CURVE SMOOTH",
"249 530 LINE SMOOTH",
"249 541 OFFCURVE",
"258 550 OFFCURVE",
"269 550 CURVE SMOOTH",
"536 549 LINE SMOOTH",
"544 549 OFFCURVE",
"551 556 OFFCURVE",
"551 564 CURVE SMOOTH",
"551 784 LINE SMOOTH",
"551 792 OFFCURVE",
"544 799 OFFCURVE",
"536 799 CURVE SMOOTH",
"167 800 LINE SMOOTH",
"160 800 OFFCURVE",
"153 798 OFFCURVE",
"148 792 CURVE SMOOTH",
"18 660 LINE SMOOTH",
"13 654 OFFCURVE",
"11 648 OFFCURVE",
"11 641 CURVE SMOOTH",
"11 150 LINE SMOOTH",
"11 143 OFFCURVE",
"14 138 OFFCURVE",
"19 132 CURVE SMOOTH",
"128 7 LINE SMOOTH",
"133 2 OFFCURVE",
"140 0 OFFCURVE",
"147 0 CURVE SMOOTH",
"440 -1 LINE SMOOTH"
);
}
);
width = 577;
}
);
unicode = "0193,0260";
},
{
glyphname = Glottalstop;
lastChange = "2023-10-05 19:45:44 +0000";
layers = (
{
layerId = "462F72A0-0500-4E69-A49B-6C2F2580580D";
width = 600;
},
{
layerId = m002;
paths = (
{
closed = 1;
nodes = (
"269 0 LINE SMOOTH",
"277 0 OFFCURVE",
"284 7 OFFCURVE",
"284 15 CURVE SMOOTH",
"284 226 LINE",
"424 361 LINE SMOOTH",
"431 367 OFFCURVE",
"434 373 OFFCURVE",
"434 381 CURVE SMOOTH",
"434 643 LINE SMOOTH",
"434 651 OFFCURVE",
"431 657 OFFCURVE",
"425 661 CURVE SMOOTH",
"215 794 LINE SMOOTH",
"209 798 OFFCURVE",
"204 800 OFFCURVE",
"197 800 CURVE SMOOTH",
"40 800 LINE SMOOTH",
"31 800 OFFCURVE",
"25 794 OFFCURVE",
"25 785 CURVE SMOOTH",
"25 587 LINE SMOOTH",
"25 579 OFFCURVE",
"28 573 OFFCURVE",
"34 569 CURVE SMOOTH",
"152 493 LINE",
"152 470 LINE",
"36 361 LINE SMOOTH",
"29 355 OFFCURVE",
"25 353 OFFCURVE",
"25 344 CURVE SMOOTH",
"26 15 LINE SMOOTH",
"26 6 OFFCURVE",
"32 0 OFFCURVE",
"41 0 CURVE SMOOTH"
);
}
);
width = 459;
}
);
unicode = 0241;
},
{
glyphname = Gstroke;
lastChange = "2023-10-05 19:45:44 +0000";
layers = (
{
anchors = (
{
name = bottom;
position = "{289, -30}";
},
{
name = top;
position = "{289, 800}";
}
);
layerId = "462F72A0-0500-4E69-A49B-6C2F2580580D";
paths = (
{
closed = 1;
nodes = (
"437 -1 OFFCURVE",
"443 0 OFFCURVE",
"449 6 CURVE SMOOTH",
"551 103 LINE SMOOTH",
"557 109 OFFCURVE",
"559 114 OFFCURVE",
"559 121 CURVE SMOOTH",
"561 501 LINE SMOOTH",
"561 510 OFFCURVE",
"555 516 OFFCURVE",
"546 516 CURVE SMOOTH",
"329 516 LINE SMOOTH",
"320 516 OFFCURVE",
"314 510 OFFCURVE",
"314 501 CURVE SMOOTH",
"314 227 LINE",
"269 228 LINE SMOOTH",
"258 228 OFFCURVE",
"249 237 OFFCURVE",
"249 248 CURVE SMOOTH",
"249 540 LINE SMOOTH",
"249 551 OFFCURVE",
"248 560 OFFCURVE",
"259 560 CURVE SMOOTH",
"536 559 LINE SMOOTH",
"544 559 OFFCURVE",
"551 566 OFFCURVE",
"551 574 CURVE SMOOTH",
"551 784 LINE SMOOTH",
"551 792 OFFCURVE",
"544 799 OFFCURVE",
"536 799 CURVE SMOOTH",
"167 800 LINE SMOOTH",
"160 800 OFFCURVE",
"153 798 OFFCURVE",
"148 792 CURVE SMOOTH",
"18 660 LINE SMOOTH",
"13 654 OFFCURVE",
"11 648 OFFCURVE",
"11 641 CURVE SMOOTH",
"11 150 LINE SMOOTH",
"11 143 OFFCURVE",
"14 138 OFFCURVE",
"19 132 CURVE SMOOTH",
"128 7 LINE SMOOTH",
"133 2 OFFCURVE",
"140 0 OFFCURVE",
"147 0 CURVE SMOOTH",
"430 -1 LINE SMOOTH"
);
},
{
closed = 1;
nodes = (
"575 286 LINE SMOOTH",
"584 286 OFFCURVE",
"590 292 OFFCURVE",
"590 301 CURVE SMOOTH",
"590 414 LINE SMOOTH",
"590 423 OFFCURVE",
"584 429 OFFCURVE",
"575 429 CURVE SMOOTH",
"288 429 LINE SMOOTH",
"279 429 OFFCURVE",
"273 423 OFFCURVE",
"273 414 CURVE SMOOTH",
"273 301 LINE SMOOTH",
"273 292 OFFCURVE",
"279 286 OFFCURVE",
"288 286 CURVE SMOOTH"
);
}
);
width = 577;
},
{
anchors = (
{
name = bottom;
position = "{289, -30}";
},
{
name = top;
position = "{289, 800}";
}
);
layerId = m002;
paths = (
{
closed = 1;
nodes = (
"437 -1 OFFCURVE",
"443 0 OFFCURVE",
"449 6 CURVE SMOOTH",
"551 103 LINE SMOOTH",
"557 109 OFFCURVE",
"559 114 OFFCURVE",
"559 121 CURVE SMOOTH",
"561 501 LINE SMOOTH",
"561 510 OFFCURVE",
"555 516 OFFCURVE",
"546 516 CURVE SMOOTH",
"329 516 LINE SMOOTH",
"320 516 OFFCURVE",
"314 510 OFFCURVE",
"314 501 CURVE SMOOTH",
"314 227 LINE",
"269 228 LINE SMOOTH",
"258 228 OFFCURVE",
"249 237 OFFCURVE",
"249 248 CURVE SMOOTH",
"249 540 LINE SMOOTH",
"249 551 OFFCURVE",
"248 560 OFFCURVE",
"259 560 CURVE SMOOTH",
"536 559 LINE SMOOTH",
"544 559 OFFCURVE",
"551 566 OFFCURVE",
"551 574 CURVE SMOOTH",
"551 784 LINE SMOOTH",
"551 792 OFFCURVE",
"544 799 OFFCURVE",
"536 799 CURVE SMOOTH",
"167 800 LINE SMOOTH",
"160 800 OFFCURVE",
"153 798 OFFCURVE",
"148 792 CURVE SMOOTH",
"18 660 LINE SMOOTH",
"13 654 OFFCURVE",
"11 648 OFFCURVE",
"11 641 CURVE SMOOTH",
"11 150 LINE SMOOTH",
"11 143 OFFCURVE",
"14 138 OFFCURVE",
"19 132 CURVE SMOOTH",
"128 7 LINE SMOOTH",
"133 2 OFFCURVE",
"140 0 OFFCURVE",
"147 0 CURVE SMOOTH",
"430 -1 LINE SMOOTH"
);
},
{
closed = 1;
nodes = (
"575 286 LINE SMOOTH",
"584 286 OFFCURVE",
"590 292 OFFCURVE",
"590 301 CURVE SMOOTH",
"590 414 LINE SMOOTH",
"590 423 OFFCURVE",
"584 429 OFFCURVE",
"575 429 CURVE SMOOTH",
"288 429 LINE SMOOTH",
"279 429 OFFCURVE",
"273 423 OFFCURVE",
"273 414 CURVE SMOOTH",
"273 301 LINE SMOOTH",
"273 292 OFFCURVE",
"279 286 OFFCURVE",
"288 286 CURVE SMOOTH"
);
}
);
width = 577;
}
);
unicode = "01E4,01E5";
},
{
glyphname = Yogh;
lastChange = "2023-10-05 19:45:44 +0000";
layers = (
{
layerId = "462F72A0-0500-4E69-A49B-6C2F2580580D";
paths = (
{
closed = 1;
nodes = (
"182 0 LINE SMOOTH",
"189 0 OFFCURVE",
"195 0 OFFCURVE",
"200 6 CURVE SMOOTH",
"286 123 LINE SMOOTH",
"293 132 OFFCURVE",
"295 137 OFFCURVE",
"295 152 CURVE SMOOTH",
"295 336 LINE SMOOTH",
"295 344 OFFCURVE",
"290 348 OFFCURVE",
"286 354 CURVE SMOOTH",
"228 439 LINE",
"228 453 LINE",
"275 504 LINE",
"275 669 LINE SMOOTH",
"275 676 OFFCURVE",
"272 681 OFFCURVE",
"267 687 CURVE SMOOTH",
"163 793 LINE SMOOTH",
"158 798 OFFCURVE",
"151 800 OFFCURVE",
"144 800 CURVE SMOOTH",
"11 800 LINE SMOOTH",
"3 800 OFFCURVE",
"-4 793 OFFCURVE",
"-4 785 CURVE SMOOTH",
"-4 581 LINE SMOOTH",
"-4 573 OFFCURVE",
"3 566 OFFCURVE",
"11 566 CURVE SMOOTH",
"102 562 LINE",
"102 547 LINE",
"5 432 LINE SMOOTH",
"-1 425 OFFCURVE",
"-1 418 OFFCURVE",
"4 411 CURVE SMOOTH",
"99 284 LINE",
"99 272 LINE",
"1 150 LINE SMOOTH",
"-4 144 OFFCURVE",
"-8 140 OFFCURVE",
"-8 132 CURVE SMOOTH",
"-8 15 LINE SMOOTH",
"-8 6 OFFCURVE",
"-2 0 OFFCURVE",
"7 0 CURVE SMOOTH"
);
}
);
width = 283;
},
{
layerId = m002;
paths = (
{
closed = 1;
nodes = (
"182 0 LINE SMOOTH",
"189 0 OFFCURVE",
"195 0 OFFCURVE",
"200 6 CURVE SMOOTH",
"286 123 LINE SMOOTH",
"293 132 OFFCURVE",
"295 137 OFFCURVE",
"295 152 CURVE SMOOTH",
"295 336 LINE SMOOTH",
"295 344 OFFCURVE",
"290 348 OFFCURVE",
"286 354 CURVE SMOOTH",
"228 439 LINE",
"228 453 LINE",
"275 504 LINE",
"275 669 LINE SMOOTH",
"275 676 OFFCURVE",
"272 681 OFFCURVE",
"267 687 CURVE SMOOTH",
"163 793 LINE SMOOTH",
"158 798 OFFCURVE",
"151 800 OFFCURVE",
"144 800 CURVE SMOOTH",
"11 800 LINE SMOOTH",
"3 800 OFFCURVE",
"-4 793 OFFCURVE",
"-4 785 CURVE SMOOTH",
"-4 581 LINE SMOOTH",
"-4 573 OFFCURVE",
"3 566 OFFCURVE",
"11 566 CURVE SMOOTH",
"102 562 LINE",
"102 547 LINE",
"5 432 LINE SMOOTH",
"-1 425 OFFCURVE",
"-1 418 OFFCURVE",
"4 411 CURVE SMOOTH",
"99 284 LINE",
"99 272 LINE",
"1 150 LINE SMOOTH",
"-4 144 OFFCURVE",
"-8 140 OFFCURVE",
"-8 132 CURVE SMOOTH",
"-8 15 LINE SMOOTH",
"-8 6 OFFCURVE",
"-2 0 OFFCURVE",
"7 0 CURVE SMOOTH"
);
}
);
width = 283;
}
);
unicode = "021C,021D";
},
{
color = 3;
glyphname = H;
lastChange = "2023-10-16 21:43:42 +0000";
layers = (
{
anchors = (
{
name = bottom;
position = "{330, 0}";
},
{
name = center;
position = "{330, 400}";
},
{
name = top;
position = "{330, 800}";
},
{
name = topleft;
position = "{75, 800}";
}
);
layerId = "462F72A0-0500-4E69-A49B-6C2F2580580D";
paths = (
{
closed = 1;
nodes = (
"260 0 LINE SMOOTH",
"269 0 OFFCURVE",
"275 6 OFFCURVE",
"275 15 CURVE SMOOTH",
"275 340 LINE",
"385 340 LINE",
"385 15 LINE SMOOTH",
"385 6 OFFCURVE",
"391 0 OFFCURVE",
"400 0 CURVE SMOOTH",
"570 0 LINE SMOOTH",
"579 0 OFFCURVE",
"585 6 OFFCURVE",
"585 15 CURVE SMOOTH",
"585 785 LINE SMOOTH",
"585 794 OFFCURVE",
"579 800 OFFCURVE",
"570 800 CURVE SMOOTH",
"400 800 LINE SMOOTH",
"391 800 OFFCURVE",
"385 794 OFFCURVE",
"385 785 CURVE SMOOTH",
"385 500 LINE",
"275 500 LINE",
"275 785 LINE SMOOTH",
"275 794 OFFCURVE",
"269 800 OFFCURVE",
"260 800 CURVE SMOOTH",
"90 800 LINE SMOOTH",
"81 800 OFFCURVE",
"75 794 OFFCURVE",
"75 785 CURVE SMOOTH",
"75 15 LINE SMOOTH",
"75 6 OFFCURVE",
"81 0 OFFCURVE",
"90 0 CURVE SMOOTH"
);
}
);
width = 660;
},
{
anchors = (
{
name = bottom;
position = "{305, -30}";
},
{
name = center;
position = "{305, 400}";
},
{
name = top;
position = "{305, 800}";
},
{
name = topleft;
position = "{29, 800}";
}
);
layerId = m002;
paths = (
{
closed = 1;
nodes = (
"260 0 LINE SMOOTH",
"269 0 OFFCURVE",
"275 6 OFFCURVE",
"275 15 CURVE SMOOTH",
"275 280 LINE",
"325 280 LINE",
"325 15 LINE SMOOTH",
"325 6 OFFCURVE",
"331 0 OFFCURVE",
"340 0 CURVE SMOOTH",
"560 0 LINE SMOOTH",
"569 0 OFFCURVE",
"575 6 OFFCURVE",
"575 15 CURVE SMOOTH",
"575 785 LINE SMOOTH",
"575 794 OFFCURVE",
"569 800 OFFCURVE",
"560 800 CURVE SMOOTH",
"340 800 LINE SMOOTH",
"331 800 OFFCURVE",
"325 794 OFFCURVE",
"325 785 CURVE SMOOTH",
"325 520 LINE",
"275 520 LINE",
"275 785 LINE SMOOTH",
"275 794 OFFCURVE",
"269 800 OFFCURVE",
"260 800 CURVE SMOOTH",
"40 800 LINE SMOOTH",
"31 800 OFFCURVE",
"25 794 OFFCURVE",
"25 785 CURVE SMOOTH",
"25 15 LINE SMOOTH",
"25 6 OFFCURVE",
"31 0 OFFCURVE",
"40 0 CURVE SMOOTH"
);
}
);
width = 600;
}
);
unicode = 0048;
},
{
glyphname = Hbar;
lastChange = "2023-10-05 19:45:44 +0000";
layers = (
{
anchors = (
{
name = bottom;
position = "{325, -30}";
},
{
name = center;
position = "{325, 400}";
},
{
name = top;
position = "{325, 800}";
},
{
name = topleft;
position = "{49, 800}";
}
);
layerId = "462F72A0-0500-4E69-A49B-6C2F2580580D";
paths = (
{
closed = 1;
nodes = (
"279 0 LINE SMOOTH",
"288 0 OFFCURVE",
"294 6 OFFCURVE",
"294 15 CURVE SMOOTH",
"294 242 LINE",
"355 242 LINE",
"355 15 LINE SMOOTH",
"355 6 OFFCURVE",
"361 0 OFFCURVE",
"370 0 CURVE SMOOTH",
"584 0 LINE SMOOTH",
"593 0 OFFCURVE",
"599 6 OFFCURVE",
"599 15 CURVE SMOOTH",
"599 785 LINE SMOOTH",
"599 794 OFFCURVE",
"593 800 OFFCURVE",
"584 800 CURVE SMOOTH",
"370 800 LINE SMOOTH",
"361 800 OFFCURVE",
"355 794 OFFCURVE",
"355 785 CURVE SMOOTH",
"355 498 LINE",
"294 498 LINE",
"294 785 LINE SMOOTH",
"294 794 OFFCURVE",
"288 800 OFFCURVE",
"279 800 CURVE SMOOTH",
"65 800 LINE SMOOTH",
"56 800 OFFCURVE",
"50 794 OFFCURVE",
"50 785 CURVE SMOOTH",
"50 15 LINE SMOOTH",
"50 6 OFFCURVE",
"56 0 OFFCURVE",
"65 0 CURVE SMOOTH"
);
}
);
width = 649;
},
{
anchors = (
{
name = bottom;
position = "{275, -30}";
},
{
name = center;
position = "{275, 400}";
},
{
name = top;
position = "{275, 800}";
},
{
name = topleft;
position = "{-1, 800}";
}
);
layerId = m002;
paths = (
{
closed = 1;
nodes = (
"229 0 LINE SMOOTH",
"238 0 OFFCURVE",
"244 6 OFFCURVE",
"244 15 CURVE SMOOTH",
"244 242 LINE",
"305 242 LINE",
"305 15 LINE SMOOTH",
"305 6 OFFCURVE",
"311 0 OFFCURVE",
"320 0 CURVE SMOOTH",
"534 0 LINE SMOOTH",
"543 0 OFFCURVE",
"549 6 OFFCURVE",
"549 15 CURVE SMOOTH",
"549 785 LINE SMOOTH",
"549 794 OFFCURVE",
"543 800 OFFCURVE",
"534 800 CURVE SMOOTH",
"320 800 LINE SMOOTH",
"311 800 OFFCURVE",
"305 794 OFFCURVE",
"305 785 CURVE SMOOTH",
"305 498 LINE",
"244 498 LINE",
"244 785 LINE SMOOTH",
"244 794 OFFCURVE",
"238 800 OFFCURVE",
"229 800 CURVE SMOOTH",
"15 800 LINE SMOOTH",
"6 800 OFFCURVE",
"0 794 OFFCURVE",
"0 785 CURVE SMOOTH",
"0 15 LINE SMOOTH",
"0 6 OFFCURVE",
"6 0 OFFCURVE",
"15 0 CURVE SMOOTH"
);
}
);
width = 549;
}
);
leftMetricsKey = "=H-25";
rightMetricsKey = "=H-25";
unicode = "0126,0127";
},
{
glyphname = Heng;
lastChange = "2023-10-16 21:48:54 +0000";
layers = (
{
layerId = "462F72A0-0500-4E69-A49B-6C2F2580580D";
width = 14700;
},
{
layerId = m002;
paths = (
{
closed = 1;
nodes = (
"260 0 LINE SMOOTH",
"269 0 OFFCURVE",
"275 6 OFFCURVE",
"275 15 CURVE SMOOTH",
"275 280 LINE",
"325 280 LINE",
"325 36 LINE SMOOTH",
"325 29 OFFCURVE",
"323 22 OFFCURVE",
"318 17 CURVE SMOOTH",
"229 -72 LINE SMOOTH",
"224 -77 OFFCURVE",
"223 -83 OFFCURVE",
"223 -90 CURVE SMOOTH",
"223 -235 LINE SMOOTH",
"223 -244 OFFCURVE",
"229 -250 OFFCURVE",
"238 -250 CURVE SMOOTH",
"426 -250 LINE SMOOTH",
"433 -250 OFFCURVE",
"438 -247 OFFCURVE",
"444 -241 CURVE SMOOTH",
"568 -117 LINE SMOOTH",
"574 -111 OFFCURVE",
"575 -105 OFFCURVE",
"575 -98 CURVE SMOOTH",
"575 785 LINE SMOOTH",
"575 794 OFFCURVE",
"569 800 OFFCURVE",
"560 800 CURVE SMOOTH",
"340 800 LINE SMOOTH",
"331 800 OFFCURVE",
"325 794 OFFCURVE",
"325 785 CURVE SMOOTH",
"325 520 LINE",
"275 520 LINE",
"275 785 LINE SMOOTH",
"275 794 OFFCURVE",
"269 800 OFFCURVE",
"260 800 CURVE SMOOTH",
"40 800 LINE SMOOTH",
"31 800 OFFCURVE",
"25 794 OFFCURVE",
"25 785 CURVE SMOOTH",
"25 15 LINE SMOOTH",
"25 6 OFFCURVE",
"31 0 OFFCURVE",
"40 0 CURVE SMOOTH"
);
}
);
width = 600;
}
);
leftMetricsKey = H;
rightMetricsKey = H;
unicode = A726;
},
{
glyphname = Hturned;
lastChange = "2023-10-05 19:45:44 +0000";
layers = (
{
layerId = "462F72A0-0500-4E69-A49B-6C2F2580580D";
paths = (
{
closed = 1;
nodes = (
"378 320 LINE",
"378 15 LINE SMOOTH",
"378 6 OFFCURVE",
"384 0 OFFCURVE",
"393 0 CURVE SMOOTH",
"563 0 LINE SMOOTH",
"572 0 OFFCURVE",
"578 6 OFFCURVE",
"578 15 CURVE SMOOTH",
"578 785 LINE SMOOTH",
"578 794 OFFCURVE",
"572 800 OFFCURVE",
"563 800 CURVE SMOOTH",
"393 800 LINE SMOOTH",
"384 800 OFFCURVE",
"378 794 OFFCURVE",
"378 785 CURVE SMOOTH",
"378 500 LINE",
"268 500 LINE",
"268 785 LINE SMOOTH",
"268 794 OFFCURVE",
"262 800 OFFCURVE",
"253 800 CURVE SMOOTH",
"83 800 LINE SMOOTH",
"74 800 OFFCURVE",
"68 794 OFFCURVE",
"68 785 CURVE SMOOTH",
"68 335 LINE SMOOTH",
"68 326 OFFCURVE",
"74 320 OFFCURVE",
"83 320 CURVE"
);
}
);
width = 653;
},
{
layerId = m002;
paths = (
{
closed = 1;
nodes = (
"318 280 LINE",
"318 15 LINE SMOOTH",
"318 6 OFFCURVE",
"324 0 OFFCURVE",
"333 0 CURVE SMOOTH",
"553 0 LINE SMOOTH",
"562 0 OFFCURVE",
"568 6 OFFCURVE",
"568 15 CURVE SMOOTH",
"568 785 LINE SMOOTH",
"568 794 OFFCURVE",
"562 800 OFFCURVE",
"553 800 CURVE SMOOTH",
"333 800 LINE SMOOTH",
"324 800 OFFCURVE",
"318 794 OFFCURVE",
"318 785 CURVE SMOOTH",
"318 520 LINE",
"268 520 LINE",
"268 785 LINE SMOOTH",
"268 794 OFFCURVE",
"262 800 OFFCURVE",
"253 800 CURVE SMOOTH",
"33 800 LINE SMOOTH",
"24 800 OFFCURVE",
"18 794 OFFCURVE",
"18 785 CURVE SMOOTH",
"18 295 LINE SMOOTH",
"18 286 OFFCURVE",
"24 280 OFFCURVE",
"33 280 CURVE"
);
}
);
width = 593;
}
);
leftMetricsKey = "=four-7";
rightMetricsKey = "=H";
unicode = "A78D,0265";
},
{
color = 0;
glyphname = I;
lastChange = "2023-10-16 21:37:58 +0000";
layers = (
{
anchors = (
{
name = bottom;
position = "{178, -30}";
},
{
name = ogonek;
position = "{260, 0}";
},
{
name = top;
position = "{178, 800}";
},
{
name = topleft;
position = "{49, 800}";
}
);
layerId = "462F72A0-0500-4E69-A49B-6C2F2580580D";
paths = (
{
closed = 1;
nodes = (
"260 0 LINE SMOOTH",
"269 0 OFFCURVE",
"275 6 OFFCURVE",
"275 15 CURVE SMOOTH",
"275 785 LINE SMOOTH",
"275 794 OFFCURVE",
"269 800 OFFCURVE",
"260 800 CURVE SMOOTH",
"90 800 LINE SMOOTH",
"81 800 OFFCURVE",
"75 794 OFFCURVE",
"75 785 CURVE SMOOTH",
"75 15 LINE SMOOTH",
"75 6 OFFCURVE",
"81 0 OFFCURVE",
"90 0 CURVE SMOOTH"
);
}
);
width = 350;
},
{
anchors = (
{
name = bottom;
position = "{153, -30}";
},
{
name = ogonek;
position = "{237, 10}";
},
{
name = top;
position = "{153, 800}";
},
{
name = topleft;
position = "{24, 800}";
}
);
layerId = m002;
paths = (
{
closed = 1;
nodes = (
"260 0 LINE SMOOTH",
"269 0 OFFCURVE",
"275 6 OFFCURVE",
"275 15 CURVE",
"275 785 LINE",
"275 794 OFFCURVE",
"269 800 OFFCURVE",
"260 800 CURVE SMOOTH",
"40 800 LINE SMOOTH",
"31 800 OFFCURVE",
"25 794 OFFCURVE",
"25 785 CURVE SMOOTH",
"25 15 LINE SMOOTH",
"25 6 OFFCURVE",
"31 0 OFFCURVE",
"40 0 CURVE SMOOTH"
);
}
);
width = 300;
}
);
leftMetricsKey = "=H";
rightMetricsKey = "=H";
unicode = 0049;
},
{
glyphname = IJ;
lastChange = "2023-10-05 19:45:44 +0000";
layers = (
{
components = (
{
name = I;
}
);
layerId = "462F72A0-0500-4E69-A49B-6C2F2580580D";
paths = (
{
closed = 1;
nodes = (
"414 -100 LINE SMOOTH",
"421 -100 OFFCURVE",
"427 -97 OFFCURVE",
"432 -91 CURVE SMOOTH",
"574 74 LINE SMOOTH",
"579 80 OFFCURVE",
"581 86 OFFCURVE",
"581 93 CURVE SMOOTH",
"581 785 LINE SMOOTH",
"581 794 OFFCURVE",
"575 800 OFFCURVE",
"566 800 CURVE SMOOTH",
"349 800 LINE SMOOTH",
"340 800 OFFCURVE",
"334 794 OFFCURVE",
"334 785 CURVE SMOOTH",
"334 223 LINE SMOOTH",
"334 216 OFFCURVE",
"332 209 OFFCURVE",
"327 204 CURVE SMOOTH",
"304 177 LINE SMOOTH",
"299 172 OFFCURVE",
"297 165 OFFCURVE",
"297 158 CURVE SMOOTH",
"297 -85 LINE SMOOTH",
"297 -94 OFFCURVE",
"303 -100 OFFCURVE",
"312 -100 CURVE SMOOTH"
);
}
);
width = 656;
},
{
components = (
{
name = I;
}
);
layerId = m002;
paths = (
{
closed = 1;
nodes = (
"414 -100 LINE SMOOTH",
"421 -100 OFFCURVE",
"427 -97 OFFCURVE",
"432 -91 CURVE SMOOTH",
"574 74 LINE SMOOTH",
"579 80 OFFCURVE",
"581 86 OFFCURVE",
"581 93 CURVE SMOOTH",
"581 785 LINE SMOOTH",
"581 794 OFFCURVE",
"575 800 OFFCURVE",
"566 800 CURVE SMOOTH",
"349 800 LINE SMOOTH",
"340 800 OFFCURVE",
"334 794 OFFCURVE",
"334 785 CURVE SMOOTH",
"334 223 LINE SMOOTH",
"334 216 OFFCURVE",
"332 209 OFFCURVE",
"327 204 CURVE SMOOTH",
"304 177 LINE SMOOTH",
"299 172 OFFCURVE",
"297 165 OFFCURVE",
"297 158 CURVE SMOOTH",
"297 -85 LINE SMOOTH",
"297 -94 OFFCURVE",
"303 -100 OFFCURVE",
"312 -100 CURVE SMOOTH"
);
}
);
width = 606;
}
);
leftMetricsKey = "=I";
rightMetricsKey = "=J";
unicode = "0132,0133";
},
{
glyphname = "Iota-latin";
lastChange = "2023-10-16 21:48:54 +0000";
layers = (
{
layerId = "462F72A0-0500-4E69-A49B-6C2F2580580D";
width = 8505;
},
{
layerId = m002;
paths = (
{
closed = 1;
nodes = (
"371 0 OFFCURVE",
"377 6 OFFCURVE",
"377 15 CURVE SMOOTH",
"377 170 LINE SMOOTH",
"377 177 OFFCURVE",
"376 183 OFFCURVE",
"371 188 CURVE SMOOTH",
"282 277 LINE SMOOTH",
"277 282 OFFCURVE",
"275 289 OFFCURVE",
"275 296 CURVE SMOOTH",
"275 785 LINE SMOOTH",
"275 794 OFFCURVE",
"269 800 OFFCURVE",
"260 800 CURVE SMOOTH",
"40 800 LINE SMOOTH",
"31 800 OFFCURVE",
"25 794 OFFCURVE",
"25 785 CURVE SMOOTH",
"25 152 LINE SMOOTH",
"25 145 OFFCURVE",
"26 139 OFFCURVE",
"32 133 CURVE SMOOTH",
"156 9 LINE SMOOTH",
"162 3 OFFCURVE",
"167 0 OFFCURVE",
"174 0 CURVE SMOOTH",
"362 0 LINE SMOOTH"
);
}
);
width = 402;
}
);
leftMetricsKey = "=I";
unicode = "0196,0269";
},
{
color = 0;
glyphname = J;
lastChange = "2023-10-16 21:40:59 +0000";
layers = (
{
anchors = (
{
name = bottom;
position = "{134, 0}";
},
{
name = top;
position = "{164, 800}";
}
);
guideLines = (
{
angle = 225;
position = "{46, 200}";
}
);
layerId = "462F72A0-0500-4E69-A49B-6C2F2580580D";
paths = (
{
closed = 1;
nodes = (
"158 -100 LINE SMOOTH",
"165 -100 OFFCURVE",
"170 -97 OFFCURVE",
"176 -91 CURVE SMOOTH",
"300 33 LINE SMOOTH",
"306 39 OFFCURVE",
"307 45 OFFCURVE",
"307 52 CURVE SMOOTH",
"307 785 LINE SMOOTH",
"307 794 OFFCURVE",
"301 800 OFFCURVE",
"292 800 CURVE SMOOTH",
"122 800 LINE SMOOTH",
"113 800 OFFCURVE",
"107 794 OFFCURVE",
"107 785 CURVE SMOOTH",
"107 156 LINE SMOOTH",
"107 149 OFFCURVE",
"105 142 OFFCURVE",
"100 137 CURVE SMOOTH",
"11 48 LINE SMOOTH",
"6 43 OFFCURVE",
"5 37 OFFCURVE",
"5 30 CURVE SMOOTH",
"5 -85 LINE SMOOTH",
"5 -94 OFFCURVE",
"11 -100 OFFCURVE",
"20 -100 CURVE SMOOTH"
);
}
);
width = 382;
},
{
anchors = (
{
name = bottom;
position = "{183, 0}";
},
{
name = top;
position = "{213, 800}";
}
);
associatedMasterId = "462F72A0-0500-4E69-A49B-6C2F2580580D";
layerId = "47F618A2-891F-4592-BB47-A5BEE17FF12A";
name = "Jun 4 22, 20:44";
paths = (
{
closed = 1;
nodes = (
"193 -100 OFFCURVE",
"199 -97 OFFCURVE",
"204 -91 CURVE SMOOTH",
"347 74 LINE SMOOTH",
"352 80 OFFCURVE",
"354 86 OFFCURVE",
"354 93 CURVE SMOOTH",
"354 785 LINE SMOOTH",
"354 794 OFFCURVE",
"348 800 OFFCURVE",
"339 800 CURVE SMOOTH",
"121 800 LINE SMOOTH",
"112 800 OFFCURVE",
"106 794 OFFCURVE",
"106 785 CURVE SMOOTH",
"106 223 LINE SMOOTH",
"106 216 OFFCURVE",
"104 209 OFFCURVE",
"99 204 CURVE SMOOTH",
"10 101 LINE SMOOTH",
"5 96 OFFCURVE",
"4 90 OFFCURVE",
"4 83 CURVE SMOOTH",
"4 -85 LINE SMOOTH",
"4 -94 OFFCURVE",
"10 -100 OFFCURVE",
"19 -100 CURVE SMOOTH",
"186 -100 LINE SMOOTH"
);
}
);
width = 383;
},
{
anchors = (
{
name = bottom;
position = "{184, 0}";
},
{
name = top;
position = "{214, 800}";
}
);
guideLines = (
{
angle = 225;
position = "{96, 200}";
}
);
layerId = m002;
paths = (
{
closed = 1;
nodes = (
"208 -100 LINE SMOOTH",
"215 -100 OFFCURVE",
"220 -97 OFFCURVE",
"226 -91 CURVE SMOOTH",
"350 33 LINE SMOOTH",
"356 39 OFFCURVE",
"357 45 OFFCURVE",
"357 52 CURVE SMOOTH",
"357 785 LINE SMOOTH",
"357 794 OFFCURVE",
"351 800 OFFCURVE",
"342 800 CURVE SMOOTH",
"122 800 LINE SMOOTH",
"113 800 OFFCURVE",
"107 794 OFFCURVE",
"107 785 CURVE SMOOTH",
"107 196 LINE SMOOTH",
"107 189 OFFCURVE",
"105 182 OFFCURVE",
"100 177 CURVE SMOOTH",
"11 88 LINE SMOOTH",
"6 83 OFFCURVE",
"5 77 OFFCURVE",
"5 70 CURVE SMOOTH",
"5 -85 LINE SMOOTH",
"5 -94 OFFCURVE",
"11 -100 OFFCURVE",
"20 -100 CURVE SMOOTH"
);
}
);
width = 382;
},
{
anchors = (
{
name = bottom;
position = "{183, 0}";
},
{
name = top;
position = "{213, 800}";
}
);
associatedMasterId = m002;
layerId = "94966038-865B-4CFF-980C-8DB8C84EB2CF";
name = "Jun 4 22, 20:44";
paths = (
{
closed = 1;
nodes = (
"193 -100 OFFCURVE",
"199 -97 OFFCURVE",
"204 -91 CURVE SMOOTH",
"347 74 LINE SMOOTH",
"352 80 OFFCURVE",
"354 86 OFFCURVE",
"354 93 CURVE SMOOTH",
"354 785 LINE SMOOTH",
"354 794 OFFCURVE",
"348 800 OFFCURVE",
"339 800 CURVE SMOOTH",
"121 800 LINE SMOOTH",
"112 800 OFFCURVE",
"106 794 OFFCURVE",
"106 785 CURVE SMOOTH",
"106 223 LINE SMOOTH",
"106 216 OFFCURVE",
"104 209 OFFCURVE",
"99 204 CURVE SMOOTH",
"10 101 LINE SMOOTH",
"5 96 OFFCURVE",
"4 90 OFFCURVE",
"4 83 CURVE SMOOTH",
"4 -85 LINE SMOOTH",
"4 -94 OFFCURVE",
"10 -100 OFFCURVE",
"19 -100 CURVE SMOOTH",
"186 -100 LINE SMOOTH"
);
}
);
width = 383;
}
);
rightMetricsKey = H;
unicode = 004A;
},
{
glyphname = Jcrossedtail;
lastChange = "2023-10-09 19:11:32 +0000";
layers = (
{
layerId = "462F72A0-0500-4E69-A49B-6C2F2580580D";
width = 600;
},
{
layerId = m002;
paths = (
{
closed = 1;
nodes = (
"291 -100 LINE SMOOTH",
"298 -100 OFFCURVE",
"303 -97 OFFCURVE",
"309 -91 CURVE SMOOTH",
"433 33 LINE SMOOTH",
"439 39 OFFCURVE",
"440 45 OFFCURVE",
"440 52 CURVE SMOOTH",
"440 785 LINE SMOOTH",
"440 794 OFFCURVE",
"434 800 OFFCURVE",
"425 800 CURVE SMOOTH",
"205 800 LINE SMOOTH",
"196 800 OFFCURVE",
"190 794 OFFCURVE",
"190 785 CURVE SMOOTH",
"190 -37 LINE SMOOTH",
"190 -45 OFFCURVE",
"183 -52 OFFCURVE",
"175 -52 CURVE SMOOTH",
"133 -52 LINE",
"134 -100 LINE"
);
},
{
closed = 1;
nodes = (
"159 -52 LINE",
"94 -52 LINE SMOOTH",
"86 -52 OFFCURVE",
"79 -45 OFFCURVE",
"79 -37 CURVE SMOOTH",
"79 84 LINE SMOOTH",
"79 92 OFFCURVE",
"86 99 OFFCURVE",
"94 99 CURVE SMOOTH",
"467 99 LINE SMOOTH",
"476 99 OFFCURVE",
"482 105 OFFCURVE",
"482 114 CURVE SMOOTH",
"482 134 LINE SMOOTH",
"482 143 OFFCURVE",
"476 149 OFFCURVE",
"467 149 CURVE SMOOTH",
"44 149 LINE SMOOTH",
"36 149 OFFCURVE",
"29 142 OFFCURVE",
"29 134 CURVE SMOOTH",
"29 -85 LINE SMOOTH",
"29 -93 OFFCURVE",
"36 -100 OFFCURVE",
"44 -100 CURVE SMOOTH",
"160 -100 LINE"
);
}
);
width = 517;
}
);
unicode = A7B2;
},
{
color = 0;
glyphname = K;
lastChange = "2023-10-16 19:28:17 +0000";
layers = (
{
anchors = (
{
name = bottom;
position = "{299, -30}";
},
{
name = top;
position = "{299, 800}";
}
);
associatedMasterId = "462F72A0-0500-4E69-A49B-6C2F2580580D";
layerId = "D19A533A-5E04-46DA-96EE-466E7F3ECFA9";
name = Original;
paths = (
{
closed = 1;
nodes = (
"30 6 OFFCURVE",
"36 0 OFFCURVE",
"45 0 CURVE SMOOTH",
"259 0 LINE SMOOTH",
"268 0 OFFCURVE",
"274 6 OFFCURVE",
"274 15 CURVE SMOOTH",
"274 225 LINE",
"281 225 LINE",
"350 9 LINE SMOOTH",
"352 2 OFFCURVE",
"361 0 OFFCURVE",
"368 0 CURVE SMOOTH",
"571 0 LINE SMOOTH",
"580 0 OFFCURVE",
"586 6 OFFCURVE",
"586 15 CURVE SMOOTH",
"586 221 LINE SMOOTH",
"586 228 OFFCURVE",
"584 233 OFFCURVE",
"580 239 CURVE SMOOTH",
"464 420 LINE",
"464 443 LINE",
"569 601 LINE SMOOTH",
"573 608 OFFCURVE",
"576 613 OFFCURVE",
"576 620 CURVE SMOOTH",
"576 785 LINE SMOOTH",
"576 794 OFFCURVE",
"570 800 OFFCURVE",
"561 800 CURVE SMOOTH",
"358 800 LINE SMOOTH",
"351 800 OFFCURVE",
"341 799 OFFCURVE",
"339 792 CURVE SMOOTH",
"281 550 LINE",
"274 550 LINE",
"274 785 LINE SMOOTH",
"274 794 OFFCURVE",
"268 800 OFFCURVE",
"259 800 CURVE SMOOTH",
"45 800 LINE SMOOTH",
"36 800 OFFCURVE",
"30 794 OFFCURVE",
"30 785 CURVE SMOOTH",
"30 15 LINE SMOOTH"
);
}
);
width = 598;
},
{
anchors = (
{
name = bottom;
position = "{350, -30}";
},
{
name = top;
position = "{350, 800}";
}
);
layerId = "462F72A0-0500-4E69-A49B-6C2F2580580D";
paths = (
{
closed = 1;
nodes = (
"310 0 LINE SMOOTH",
"319 0 OFFCURVE",
"325 6 OFFCURVE",
"325 15 CURVE SMOOTH",
"325 225 LINE",
"334 225 LINE",
"406 9 LINE SMOOTH",
"408 2 OFFCURVE",
"417 0 OFFCURVE",
"424 0 CURVE SMOOTH",
"629 0 LINE SMOOTH",
"638 0 OFFCURVE",
"644 7 OFFCURVE",
"644 15 CURVE SMOOTH",
"644 156 LINE SMOOTH",
"644 166 OFFCURVE",
"643 172 OFFCURVE",
"639 179 CURVE SMOOTH",
"538 380 LINE",
"538 416 LINE",
"625 611 LINE SMOOTH",
"628 618 OFFCURVE",
"632 623 OFFCURVE",
"632 630 CURVE SMOOTH",
"632 785 LINE SMOOTH",
"632 794 OFFCURVE",
"626 800 OFFCURVE",
"617 800 CURVE SMOOTH",
"414 800 LINE SMOOTH",
"407 800 OFFCURVE",
"397 799 OFFCURVE",
"395 792 CURVE SMOOTH",
"334 550 LINE",
"325 550 LINE",
"325 785 LINE SMOOTH",
"325 794 OFFCURVE",
"319 800 OFFCURVE",
"310 800 CURVE SMOOTH",
"90 800 LINE SMOOTH",
"81 800 OFFCURVE",
"75 794 OFFCURVE",
"75 785 CURVE SMOOTH",
"75 15 LINE SMOOTH",
"75 6 OFFCURVE",
"81 0 OFFCURVE",
"90 0 CURVE SMOOTH"
);
}
);
width = 664;
},
{
anchors = (
{
name = bottom;
position = "{299, -30}";
},
{
name = top;
position = "{299, 800}";
}
);
associatedMasterId = "462F72A0-0500-4E69-A49B-6C2F2580580D";
layerId = "5095C087-B7CF-44BA-A313-E33877BA9304";
name = "Jun 3 22, 20:29";
paths = (
{
closed = 1;
nodes = (
"30 6 OFFCURVE",
"36 0 OFFCURVE",
"45 0 CURVE SMOOTH",
"259 0 LINE SMOOTH",
"268 0 OFFCURVE",
"274 6 OFFCURVE",
"274 15 CURVE SMOOTH",
"274 225 LINE",
"281 225 LINE",
"370 9 LINE SMOOTH",
"373 2 OFFCURVE",
"381 0 OFFCURVE",
"388 0 CURVE SMOOTH",
"571 0 LINE SMOOTH",
"580 0 OFFCURVE",
"586 6 OFFCURVE",
"586 15 CURVE SMOOTH",
"586 183 LINE SMOOTH",
"586 192 OFFCURVE",
"585 196 OFFCURVE",
"581 203 CURVE SMOOTH",
"464 420 LINE",
"464 443 LINE",
"569 601 LINE SMOOTH",
"574 608 OFFCURVE",
"576 613 OFFCURVE",
"576 620 CURVE SMOOTH",
"576 785 LINE SMOOTH",
"576 794 OFFCURVE",
"570 800 OFFCURVE",
"561 800 CURVE SMOOTH",
"358 800 LINE SMOOTH",
"351 800 OFFCURVE",
"341 799 OFFCURVE",
"339 792 CURVE SMOOTH",
"281 550 LINE",
"274 550 LINE",
"274 785 LINE SMOOTH",
"274 794 OFFCURVE",
"268 800 OFFCURVE",
"259 800 CURVE SMOOTH",
"45 800 LINE SMOOTH",
"36 800 OFFCURVE",
"30 794 OFFCURVE",
"30 785 CURVE SMOOTH",
"30 15 LINE SMOOTH"
);
}
);
width = 598;
},
{
anchors = (
{
name = bottom;
position = "{299, -30}";
},
{
name = top;
position = "{299, 800}";
}
);
associatedMasterId = "462F72A0-0500-4E69-A49B-6C2F2580580D";
layerId = "431D0C69-9DB6-4A23-85F9-39F294B7CCF8";
name = "Jun 4 22, 20:04";
paths = (
{
closed = 1;
nodes = (
"259 0 LINE SMOOTH",
"268 0 OFFCURVE",
"274 6 OFFCURVE",
"274 15 CURVE SMOOTH",
"274 233 LINE",
"288 233 LINE",
"346 12 LINE SMOOTH",
"348 4 OFFCURVE",
"356 0 OFFCURVE",
"364 0 CURVE SMOOTH",
"574 0 LINE SMOOTH",
"583 0 OFFCURVE",
"589 7 OFFCURVE",
"589 15 CURVE SMOOTH",
"589 163 LINE SMOOTH",
"589 173 OFFCURVE",
"588 179 OFFCURVE",
"584 186 CURVE SMOOTH",
"485 362 LINE",
"485 384 LINE",
"568 463 LINE SMOOTH",
"575 469 OFFCURVE",
"578 473 OFFCURVE",
"578 481 CURVE SMOOTH",
"578 644 LINE SMOOTH",
"578 657 OFFCURVE",
"577 660 OFFCURVE",
"568 668 CURVE SMOOTH",
"430 792 LINE SMOOTH",
"423 798 OFFCURVE",
"417 800 OFFCURVE",
"406 800 CURVE SMOOTH",
"45 800 LINE SMOOTH",
"36 800 OFFCURVE",
"30 794 OFFCURVE",
"30 785 CURVE SMOOTH",
"30 15 LINE SMOOTH",
"30 6 OFFCURVE",
"36 0 OFFCURVE",
"45 0 CURVE SMOOTH"
);
}
);
visible = 1;
width = 598;
},
{
anchors = (
{
name = bottom;
position = "{299, -30}";
},
{
name = top;
position = "{299, 800}";
}
);
associatedMasterId = "462F72A0-0500-4E69-A49B-6C2F2580580D";
layerId = "F8CEB368-3C45-42B7-A9CE-39097D833CF0";
name = "Jun 4 22, 20:15";
paths = (
{
closed = 1;
nodes = (
"462 477 LINE",
"462 321 LINE",
"557 601 LINE SMOOTH",
"559 608 OFFCURVE",
"564 613 OFFCURVE",
"564 620 CURVE SMOOTH",
"564 785 LINE SMOOTH",
"564 794 OFFCURVE",
"558 800 OFFCURVE",
"549 800 CURVE SMOOTH",
"358 800 LINE SMOOTH",
"351 800 OFFCURVE",
"340 799 OFFCURVE",
"339 792 CURVE SMOOTH",
"291 550 LINE",
"274 550 LINE",
"274 785 LINE SMOOTH",
"274 794 OFFCURVE",
"268 800 OFFCURVE",
"259 800 CURVE SMOOTH",
"45 800 LINE SMOOTH",
"36 800 OFFCURVE",
"30 794 OFFCURVE",
"30 785 CURVE SMOOTH",
"30 15 LINE SMOOTH",
"30 6 OFFCURVE",
"36 0 OFFCURVE",
"45 0 CURVE SMOOTH",
"259 0 LINE SMOOTH",
"268 0 OFFCURVE",
"274 6 OFFCURVE",
"274 15 CURVE SMOOTH",
"274 225 LINE",
"290 225 LINE",
"347 9 LINE SMOOTH",
"349 2 OFFCURVE",
"358 0 OFFCURVE",
"365 0 CURVE SMOOTH",
"562 0 LINE SMOOTH",
"571 0 OFFCURVE",
"577 7 OFFCURVE",
"577 15 CURVE SMOOTH",
"577 163 LINE SMOOTH",
"577 173 OFFCURVE",
"575 179 OFFCURVE",
"572 186 CURVE SMOOTH"
);
}
);
width = 598;
},
{
anchors = (
{
name = bottom;
position = "{299, -30}";
},
{
name = top;
position = "{299, 800}";
}
);
associatedMasterId = m002;
layerId = "91BBEE69-323B-40EE-A178-789076CF45E2";
name = Original;
paths = (
{
closed = 1;
nodes = (
"30 6 OFFCURVE",
"36 0 OFFCURVE",
"45 0 CURVE SMOOTH",
"259 0 LINE SMOOTH",
"268 0 OFFCURVE",
"274 6 OFFCURVE",
"274 15 CURVE SMOOTH",
"274 225 LINE",
"281 225 LINE",
"350 9 LINE SMOOTH",
"352 2 OFFCURVE",
"361 0 OFFCURVE",
"368 0 CURVE SMOOTH",
"571 0 LINE SMOOTH",
"580 0 OFFCURVE",
"586 6 OFFCURVE",
"586 15 CURVE SMOOTH",
"586 221 LINE SMOOTH",
"586 228 OFFCURVE",
"584 233 OFFCURVE",
"580 239 CURVE SMOOTH",
"464 420 LINE",
"464 443 LINE",
"569 601 LINE SMOOTH",
"573 608 OFFCURVE",
"576 613 OFFCURVE",
"576 620 CURVE SMOOTH",
"576 785 LINE SMOOTH",
"576 794 OFFCURVE",
"570 800 OFFCURVE",
"561 800 CURVE SMOOTH",
"358 800 LINE SMOOTH",
"351 800 OFFCURVE",
"341 799 OFFCURVE",
"339 792 CURVE SMOOTH",
"281 550 LINE",
"274 550 LINE",
"274 785 LINE SMOOTH",
"274 794 OFFCURVE",
"268 800 OFFCURVE",
"259 800 CURVE SMOOTH",
"45 800 LINE SMOOTH",
"36 800 OFFCURVE",
"30 794 OFFCURVE",
"30 785 CURVE SMOOTH",
"30 15 LINE SMOOTH"
);
}
);
width = 598;
},
{
anchors = (
{
name = bottom;
position = "{300, -30}";
},
{
name = top;
position = "{300, 800}";
}
);
layerId = m002;
paths = (
{
closed = 1;
nodes = (
"260 0 LINE SMOOTH",
"269 0 OFFCURVE",
"275 6 OFFCURVE",
"275 15 CURVE SMOOTH",
"275 225 LINE",
"284 225 LINE",
"356 9 LINE SMOOTH",
"358 2 OFFCURVE",
"367 0 OFFCURVE",
"374 0 CURVE SMOOTH",
"579 0 LINE SMOOTH",
"588 0 OFFCURVE",
"594 7 OFFCURVE",
"594 15 CURVE SMOOTH",
"594 156 LINE SMOOTH",
"594 166 OFFCURVE",
"593 172 OFFCURVE",
"589 179 CURVE SMOOTH",
"488 380 LINE",
"488 416 LINE",
"575 611 LINE SMOOTH",
"578 618 OFFCURVE",
"582 623 OFFCURVE",
"582 630 CURVE SMOOTH",
"582 785 LINE SMOOTH",
"582 794 OFFCURVE",
"576 800 OFFCURVE",
"567 800 CURVE SMOOTH",
"364 800 LINE SMOOTH",
"357 800 OFFCURVE",
"347 799 OFFCURVE",
"345 792 CURVE SMOOTH",
"284 550 LINE",
"275 550 LINE",
"275 785 LINE SMOOTH",
"275 794 OFFCURVE",
"269 800 OFFCURVE",
"260 800 CURVE SMOOTH",
"40 800 LINE SMOOTH",
"31 800 OFFCURVE",
"25 794 OFFCURVE",
"25 785 CURVE SMOOTH",
"25 15 LINE SMOOTH",
"25 6 OFFCURVE",
"31 0 OFFCURVE",
"40 0 CURVE SMOOTH"
);
}
);
width = 614;
},
{
anchors = (
{
name = bottom;
position = "{299, -30}";
},
{
name = top;
position = "{299, 800}";
}
);
associatedMasterId = m002;
layerId = "C3F5C271-7079-4B27-A722-1ACD6A2DE10B";
name = "Jun 3 22, 20:29";
paths = (
{
closed = 1;
nodes = (
"30 6 OFFCURVE",
"36 0 OFFCURVE",
"45 0 CURVE SMOOTH",
"259 0 LINE SMOOTH",
"268 0 OFFCURVE",
"274 6 OFFCURVE",
"274 15 CURVE SMOOTH",
"274 225 LINE",
"281 225 LINE",
"370 9 LINE SMOOTH",
"373 2 OFFCURVE",
"381 0 OFFCURVE",
"388 0 CURVE SMOOTH",
"571 0 LINE SMOOTH",
"580 0 OFFCURVE",
"586 6 OFFCURVE",
"586 15 CURVE SMOOTH",
"586 183 LINE SMOOTH",
"586 192 OFFCURVE",
"585 196 OFFCURVE",
"581 203 CURVE SMOOTH",
"464 420 LINE",
"464 443 LINE",
"569 601 LINE SMOOTH",
"574 608 OFFCURVE",
"576 613 OFFCURVE",
"576 620 CURVE SMOOTH",
"576 785 LINE SMOOTH",
"576 794 OFFCURVE",
"570 800 OFFCURVE",
"561 800 CURVE SMOOTH",
"358 800 LINE SMOOTH",
"351 800 OFFCURVE",
"341 799 OFFCURVE",
"339 792 CURVE SMOOTH",
"281 550 LINE",
"274 550 LINE",
"274 785 LINE SMOOTH",
"274 794 OFFCURVE",
"268 800 OFFCURVE",
"259 800 CURVE SMOOTH",
"45 800 LINE SMOOTH",
"36 800 OFFCURVE",
"30 794 OFFCURVE",
"30 785 CURVE SMOOTH",
"30 15 LINE SMOOTH"
);
}
);
width = 598;
},
{
anchors = (
{
name = bottom;
position = "{299, -30}";
},
{
name = top;
position = "{299, 800}";
}
);
associatedMasterId = m002;
layerId = "B0AFB480-6D49-4A33-A97D-46255A8297DC";
name = "Jun 4 22, 20:04";
paths = (
{
closed = 1;
nodes = (
"259 0 LINE SMOOTH",
"268 0 OFFCURVE",
"274 6 OFFCURVE",
"274 15 CURVE SMOOTH",
"274 233 LINE",
"288 233 LINE",
"346 12 LINE SMOOTH",
"348 4 OFFCURVE",
"356 0 OFFCURVE",
"364 0 CURVE SMOOTH",
"574 0 LINE SMOOTH",
"583 0 OFFCURVE",
"589 7 OFFCURVE",
"589 15 CURVE SMOOTH",
"589 163 LINE SMOOTH",
"589 173 OFFCURVE",
"588 179 OFFCURVE",
"584 186 CURVE SMOOTH",
"485 362 LINE",
"485 384 LINE",
"568 463 LINE SMOOTH",
"575 469 OFFCURVE",
"578 473 OFFCURVE",
"578 481 CURVE SMOOTH",
"578 644 LINE SMOOTH",
"578 657 OFFCURVE",
"577 660 OFFCURVE",
"568 668 CURVE SMOOTH",
"430 792 LINE SMOOTH",
"423 798 OFFCURVE",
"417 800 OFFCURVE",
"406 800 CURVE SMOOTH",
"45 800 LINE SMOOTH",
"36 800 OFFCURVE",
"30 794 OFFCURVE",
"30 785 CURVE SMOOTH",
"30 15 LINE SMOOTH",
"30 6 OFFCURVE",
"36 0 OFFCURVE",
"45 0 CURVE SMOOTH"
);
}
);
width = 598;
},
{
anchors = (
{
name = bottom;
position = "{299, -30}";
},
{
name = top;
position = "{299, 800}";
}
);
associatedMasterId = m002;
layerId = "02AEAF66-58F9-4B51-A311-F7EA0F4FE974";
name = "Jun 4 22, 20:15";
paths = (
{
closed = 1;
nodes = (
"462 477 LINE",
"462 321 LINE",
"557 601 LINE SMOOTH",
"559 608 OFFCURVE",
"564 613 OFFCURVE",
"564 620 CURVE SMOOTH",
"564 785 LINE SMOOTH",
"564 794 OFFCURVE",
"558 800 OFFCURVE",
"549 800 CURVE SMOOTH",
"358 800 LINE SMOOTH",
"351 800 OFFCURVE",
"340 799 OFFCURVE",
"339 792 CURVE SMOOTH",
"291 550 LINE",
"274 550 LINE",
"274 785 LINE SMOOTH",
"274 794 OFFCURVE",
"268 800 OFFCURVE",
"259 800 CURVE SMOOTH",
"45 800 LINE SMOOTH",
"36 800 OFFCURVE",
"30 794 OFFCURVE",
"30 785 CURVE SMOOTH",
"30 15 LINE SMOOTH",
"30 6 OFFCURVE",
"36 0 OFFCURVE",
"45 0 CURVE SMOOTH",
"259 0 LINE SMOOTH",
"268 0 OFFCURVE",
"274 6 OFFCURVE",
"274 15 CURVE SMOOTH",
"274 225 LINE",
"290 225 LINE",
"347 9 LINE SMOOTH",
"349 2 OFFCURVE",
"358 0 OFFCURVE",
"365 0 CURVE SMOOTH",
"562 0 LINE SMOOTH",
"571 0 OFFCURVE",
"577 7 OFFCURVE",
"577 15 CURVE SMOOTH",
"577 163 LINE SMOOTH",
"577 173 OFFCURVE",
"575 179 OFFCURVE",
"572 186 CURVE SMOOTH"
);
}
);
width = 598;
}
);
leftMetricsKey = "=H";
unicode = 004B;
},
{
glyphname = Khook;
lastChange = "2023-10-05 19:45:44 +0000";
layers = (
{
layerId = "462F72A0-0500-4E69-A49B-6C2F2580580D";
width = 600;
},
{
layerId = m002;
paths = (
{
closed = 1;
nodes = (
"260 0 LINE SMOOTH",
"269 0 OFFCURVE",
"275 6 OFFCURVE",
"275 15 CURVE SMOOTH",
"275 225 LINE",
"284 225 LINE",
"356 9 LINE SMOOTH",
"358 2 OFFCURVE",
"367 0 OFFCURVE",
"374 0 CURVE SMOOTH",
"579 0 LINE SMOOTH",
"588 0 OFFCURVE",
"594 7 OFFCURVE",
"594 15 CURVE SMOOTH",
"594 156 LINE SMOOTH",
"594 166 OFFCURVE",
"593 172 OFFCURVE",
"589 179 CURVE SMOOTH",
"488 380 LINE",
"488 416 LINE",
"575 611 LINE SMOOTH",
"578 618 OFFCURVE",
"582 623 OFFCURVE",
"582 630 CURVE SMOOTH",
"582 785 LINE SMOOTH",
"582 794 OFFCURVE",
"576 800 OFFCURVE",
"567 800 CURVE SMOOTH",
"364 800 LINE SMOOTH",
"357 800 OFFCURVE",
"347 799 OFFCURVE",
"345 792 CURVE SMOOTH",
"284 550 LINE",
"275 550 LINE",
"275 785 LINE SMOOTH",
"275 794 OFFCURVE",
"269 800 OFFCURVE",
"260 800 CURVE SMOOTH",
"40 800 LINE SMOOTH",
"31 800 OFFCURVE",
"25 794 OFFCURVE",
"25 785 CURVE SMOOTH",
"25 15 LINE SMOOTH",
"25 6 OFFCURVE",
"31 0 OFFCURVE",
"40 0 CURVE SMOOTH"
);
},
{
closed = 1;
nodes = (
"592 560 LINE SMOOTH",
"600 560 OFFCURVE",
"607 567 OFFCURVE",
"607 575 CURVE SMOOTH",
"607 785 LINE SMOOTH",
"607 793 OFFCURVE",
"600 800 OFFCURVE",
"592 800 CURVE SMOOTH",
"480 800 LINE",
"427 560 LINE"
);
}
);
width = 619;
}
);
unicode = 0198;
},
{
glyphname = Kstroke;
lastChange = "2023-10-05 19:45:44 +0000";
layers = (
{
layerId = "462F72A0-0500-4E69-A49B-6C2F2580580D";
width = 600;
},
{
anchors = (
{
name = bottom;
position = "{300, -30}";
},
{
name = top;
position = "{300, 800}";
}
);
layerId = m002;
paths = (
{
closed = 1;
nodes = (
"260 0 LINE SMOOTH",
"269 0 OFFCURVE",
"275 6 OFFCURVE",
"275 15 CURVE SMOOTH",
"275 225 LINE",
"284 225 LINE",
"356 9 LINE SMOOTH",
"358 2 OFFCURVE",
"367 0 OFFCURVE",
"374 0 CURVE SMOOTH",
"579 0 LINE SMOOTH",
"588 0 OFFCURVE",
"594 7 OFFCURVE",
"594 15 CURVE SMOOTH",
"594 156 LINE SMOOTH",
"594 166 OFFCURVE",
"593 172 OFFCURVE",
"589 179 CURVE SMOOTH",
"488 380 LINE",
"488 416 LINE",
"575 611 LINE SMOOTH",
"578 618 OFFCURVE",
"582 623 OFFCURVE",
"582 630 CURVE SMOOTH",
"582 785 LINE SMOOTH",
"582 794 OFFCURVE",
"576 800 OFFCURVE",
"567 800 CURVE SMOOTH",
"374 800 LINE SMOOTH",
"367 800 OFFCURVE",
"357 799 OFFCURVE",
"355 792 CURVE SMOOTH",
"284 550 LINE",
"275 550 LINE",
"275 785 LINE SMOOTH",
"275 794 OFFCURVE",
"269 800 OFFCURVE",
"260 800 CURVE SMOOTH",
"40 800 LINE SMOOTH",
"31 800 OFFCURVE",
"25 794 OFFCURVE",
"25 785 CURVE SMOOTH",
"25 15 LINE SMOOTH",
"25 6 OFFCURVE",
"31 0 OFFCURVE",
"40 0 CURVE SMOOTH"
);
},
{
closed = 1;
nodes = (
"284 660 LINE SMOOTH",
"293 660 OFFCURVE",
"299 666 OFFCURVE",
"299 675 CURVE SMOOTH",
"299 695 LINE SMOOTH",
"299 704 OFFCURVE",
"293 710 OFFCURVE",
"284 710 CURVE SMOOTH",
"15 710 LINE SMOOTH",
"6 710 OFFCURVE",
"0 704 OFFCURVE",
"0 695 CURVE SMOOTH",
"0 675 LINE SMOOTH",
"0 666 OFFCURVE",
"6 660 OFFCURVE",
"15 660 CURVE SMOOTH"
);
}
);
width = 614;
}
);
unicode = A740;
},
{
color = 0;
glyphname = L;
lastChange = "2023-10-16 21:41:33 +0000";
layers = (
{
anchors = (
{
name = bottom;
position = "{258, 0}";
},
{
name = center;
position = "{185, 445}";
},
{
name = top;
position = "{180, 800}";
},
{
name = topright;
position = "{260, 800}";
}
);
layerId = "462F72A0-0500-4E69-A49B-6C2F2580580D";
paths = (
{
closed = 1;
nodes = (
"426 0 LINE SMOOTH",
"434 0 OFFCURVE",
"441 7 OFFCURVE",
"441 15 CURVE SMOOTH",
"441 165 LINE SMOOTH",
"441 173 OFFCURVE",
"434 180 OFFCURVE",
"426 180 CURVE SMOOTH",
"275 180 LINE",
"275 785 LINE SMOOTH",
"275 793 OFFCURVE",
"268 800 OFFCURVE",
"260 800 CURVE SMOOTH",
"90 800 LINE SMOOTH",
"82 800 OFFCURVE",
"75 793 OFFCURVE",
"75 785 CURVE SMOOTH",
"75 15 LINE SMOOTH",
"75 7 OFFCURVE",
"82 0 OFFCURVE",
"90 0 CURVE SMOOTH"
);
}
);
width = 466;
},
{
anchors = (
{
name = bottom;
position = "{208, -30}";
},
{
name = center;
position = "{208, 400}";
},
{
name = top;
position = "{208, 800}";
},
{
name = topright;
position = "{386, 800}";
}
);
layerId = m002;
paths = (
{
closed = 1;
nodes = (
"376 0 LINE SMOOTH",
"384 0 OFFCURVE",
"391 7 OFFCURVE",
"391 15 CURVE SMOOTH",
"391 225 LINE SMOOTH",
"391 233 OFFCURVE",
"384 240 OFFCURVE",
"376 240 CURVE SMOOTH",
"275 240 LINE",
"275 785 LINE",
"275 793 OFFCURVE",
"268 800 OFFCURVE",
"260 800 CURVE SMOOTH",
"40 800 LINE SMOOTH",
"32 800 OFFCURVE",
"25 793 OFFCURVE",
"25 785 CURVE SMOOTH",
"25 15 LINE SMOOTH",
"25 7 OFFCURVE",
"32 0 OFFCURVE",
"40 0 CURVE SMOOTH"
);
}
);
width = 417;
}
);
leftMetricsKey = "=H";
unicode = 004C;
},
{
glyphname = LJ;
lastChange = "2023-10-05 19:45:44 +0000";
layers = (
{
anchors = (
{
name = bottom;
position = "{546, 0}";
},
{
name = center;
position = "{199, 400}";
},
{
name = ogonek;
position = "{630, 10}";
},
{
name = top;
position = "{546, 800}";
},
{
name = topleft;
position = "{417, 800}";
},
{
name = topright;
position = "{377, 800}";
}
);
layerId = "462F72A0-0500-4E69-A49B-6C2F2580580D";
paths = (
{
closed = 1;
nodes = (
"341 1 LINE SMOOTH",
"349 1 OFFCURVE",
"356 8 OFFCURVE",
"356 16 CURVE SMOOTH",
"356 220 LINE SMOOTH",
"356 228 OFFCURVE",
"349 235 OFFCURVE",
"341 235 CURVE SMOOTH",
"310 234 LINE SMOOTH",
"302 234 OFFCURVE",
"295 241 OFFCURVE",
"295 249 CURVE SMOOTH",
"295 785 LINE SMOOTH",
"295 794 OFFCURVE",
"289 800 OFFCURVE",
"280 800 CURVE SMOOTH",
"36 800 LINE SMOOTH",
"27 800 OFFCURVE",
"21 794 OFFCURVE",
"21 785 CURVE SMOOTH",
"21 15 LINE SMOOTH",
"21 6 OFFCURVE",
"27 0 OFFCURVE",
"36 0 CURVE SMOOTH"
);
},
{
closed = 1;
nodes = (
"495 -100 LINE SMOOTH",
"502 -100 OFFCURVE",
"508 -97 OFFCURVE",
"513 -91 CURVE SMOOTH",
"655 74 LINE SMOOTH",
"660 80 OFFCURVE",
"662 86 OFFCURVE",
"662 93 CURVE SMOOTH",
"662 785 LINE SMOOTH",
"662 794 OFFCURVE",
"656 800 OFFCURVE",
"647 800 CURVE SMOOTH",
"430 800 LINE SMOOTH",
"421 800 OFFCURVE",
"415 794 OFFCURVE",
"415 785 CURVE SMOOTH",
"415 223 LINE SMOOTH",
"415 216 OFFCURVE",
"413 209 OFFCURVE",
"408 204 CURVE SMOOTH",
"385 177 LINE SMOOTH",
"380 172 OFFCURVE",
"378 165 OFFCURVE",
"378 158 CURVE SMOOTH",
"378 -85 LINE SMOOTH",
"378 -94 OFFCURVE",
"384 -100 OFFCURVE",
"393 -100 CURVE SMOOTH"
);
}
);
width = 737;
},
{
anchors = (
{
name = bottom;
position = "{546, 0}";
},
{
name = center;
position = "{199, 400}";
},
{
name = ogonek;
position = "{630, 10}";
},
{
name = top;
position = "{546, 800}";
},
{
name = topleft;
position = "{417, 800}";
},
{
name = topright;
position = "{377, 800}";
}
);
layerId = m002;
paths = (
{
closed = 1;
nodes = (
"341 1 LINE SMOOTH",
"349 1 OFFCURVE",
"356 8 OFFCURVE",
"356 16 CURVE SMOOTH",
"356 220 LINE SMOOTH",
"356 228 OFFCURVE",
"349 235 OFFCURVE",
"341 235 CURVE SMOOTH",
"310 234 LINE SMOOTH",
"302 234 OFFCURVE",
"295 241 OFFCURVE",
"295 249 CURVE SMOOTH",
"295 785 LINE SMOOTH",
"295 794 OFFCURVE",
"289 800 OFFCURVE",
"280 800 CURVE SMOOTH",
"36 800 LINE SMOOTH",
"27 800 OFFCURVE",
"21 794 OFFCURVE",
"21 785 CURVE SMOOTH",
"21 15 LINE SMOOTH",
"21 6 OFFCURVE",
"27 0 OFFCURVE",
"36 0 CURVE SMOOTH"
);
},
{
closed = 1;
nodes = (
"495 -100 LINE SMOOTH",
"502 -100 OFFCURVE",
"508 -97 OFFCURVE",
"513 -91 CURVE SMOOTH",
"655 74 LINE SMOOTH",
"660 80 OFFCURVE",
"662 86 OFFCURVE",
"662 93 CURVE SMOOTH",
"662 785 LINE SMOOTH",
"662 794 OFFCURVE",
"656 800 OFFCURVE",
"647 800 CURVE SMOOTH",
"430 800 LINE SMOOTH",
"421 800 OFFCURVE",
"415 794 OFFCURVE",
"415 785 CURVE SMOOTH",
"415 223 LINE SMOOTH",
"415 216 OFFCURVE",
"413 209 OFFCURVE",
"408 204 CURVE SMOOTH",
"385 177 LINE SMOOTH",
"380 172 OFFCURVE",
"378 165 OFFCURVE",
"378 158 CURVE SMOOTH",
"378 -85 LINE SMOOTH",
"378 -94 OFFCURVE",
"384 -100 OFFCURVE",
"393 -100 CURVE SMOOTH"
);
}
);
width = 687;
}
);
rightMetricsKey = "=J";
unicode = "01C7,01C9";
},
{
glyphname = Lbelt;
lastChange = "2023-10-16 21:48:54 +0000";
layers = (
{
layerId = "462F72A0-0500-4E69-A49B-6C2F2580580D";
width = 2950;
},
{
layerId = m002;
paths = (
{
closed = 1;
nodes = (
"488 0 LINE SMOOTH",
"496 0 OFFCURVE",
"503 7 OFFCURVE",
"503 15 CURVE SMOOTH",
"503 225 LINE SMOOTH",
"503 233 OFFCURVE",
"496 240 OFFCURVE",
"488 240 CURVE SMOOTH",
"387 240 LINE",
"387 785 LINE",
"387 793 OFFCURVE",
"380 800 OFFCURVE",
"372 800 CURVE SMOOTH",
"152 800 LINE SMOOTH",
"144 800 OFFCURVE",
"137 793 OFFCURVE",
"137 785 CURVE SMOOTH",
"137 15 LINE SMOOTH",
"137 7 OFFCURVE",
"144 0 OFFCURVE",
"152 0 CURVE SMOOTH"
);
},
{
closed = 1;
nodes = (
"426 350 LINE SMOOTH",
"435 350 OFFCURVE",
"441 356 OFFCURVE",
"441 365 CURVE SMOOTH",
"441 385 LINE SMOOTH",
"441 394 OFFCURVE",
"435 400 OFFCURVE",
"426 400 CURVE SMOOTH",
"195 400 LINE SMOOTH",
"186 400 OFFCURVE",
"180 394 OFFCURVE",
"180 385 CURVE SMOOTH",
"180 365 LINE SMOOTH",
"180 356 OFFCURVE",
"186 350 OFFCURVE",
"195 350 CURVE SMOOTH"
);
},
{
closed = 1;
nodes = (
"140 400 LINE",
"75 400 LINE SMOOTH",
"67 400 OFFCURVE",
"60 407 OFFCURVE",
"60 415 CURVE SMOOTH",
"60 536 LINE SMOOTH",
"60 544 OFFCURVE",
"67 551 OFFCURVE",
"75 551 CURVE SMOOTH",
"297 551 LINE SMOOTH",
"306 551 OFFCURVE",
"312 557 OFFCURVE",
"312 566 CURVE SMOOTH",
"312 586 LINE SMOOTH",
"312 595 OFFCURVE",
"306 601 OFFCURVE",
"297 601 CURVE SMOOTH",
"25 601 LINE SMOOTH",
"17 601 OFFCURVE",
"10 594 OFFCURVE",
"10 586 CURVE SMOOTH",
"10 367 LINE SMOOTH",
"10 359 OFFCURVE",
"17 352 OFFCURVE",
"25 352 CURVE SMOOTH",
"141 352 LINE"
);
}
);
width = 529;
}
);
rightMetricsKey = L;
unicode = A7AD;
},
{
glyphname = Lj;
lastChange = "2023-10-05 19:45:44 +0000";
layers = (
{
anchors = (
{
name = bottom;
position = "{199, -30}";
},
{
name = center;
position = "{199, 400}";
},
{
name = top;
position = "{199, 800}";
},
{
name = topright;
position = "{377, 800}";
}
);
layerId = "462F72A0-0500-4E69-A49B-6C2F2580580D";
paths = (
{
closed = 1;
nodes = (
"352 1 LINE SMOOTH",
"360 1 OFFCURVE",
"367 8 OFFCURVE",
"367 16 CURVE SMOOTH",
"367 220 LINE SMOOTH",
"367 228 OFFCURVE",
"360 235 OFFCURVE",
"352 235 CURVE SMOOTH",
"310 234 LINE SMOOTH",
"302 234 OFFCURVE",
"295 241 OFFCURVE",
"295 249 CURVE SMOOTH",
"295 785 LINE SMOOTH",
"295 794 OFFCURVE",
"289 800 OFFCURVE",
"280 800 CURVE SMOOTH",
"36 800 LINE SMOOTH",
"27 800 OFFCURVE",
"21 794 OFFCURVE",
"21 785 CURVE SMOOTH",
"21 15 LINE SMOOTH",
"21 6 OFFCURVE",
"27 0 OFFCURVE",
"36 0 CURVE SMOOTH"
);
}
);
width = 759;
},
{
anchors = (
{
name = bottom;
position = "{199, -30}";
},
{
name = center;
position = "{199, 400}";
},
{
name = top;
position = "{199, 800}";
},
{
name = topright;
position = "{377, 800}";
}
);
layerId = m002;
paths = (
{
closed = 1;
nodes = (
"352 1 LINE SMOOTH",
"360 1 OFFCURVE",
"367 8 OFFCURVE",
"367 16 CURVE SMOOTH",
"367 220 LINE SMOOTH",
"367 228 OFFCURVE",
"360 235 OFFCURVE",
"352 235 CURVE SMOOTH",
"310 234 LINE SMOOTH",
"302 234 OFFCURVE",
"295 241 OFFCURVE",
"295 249 CURVE SMOOTH",
"295 785 LINE SMOOTH",
"295 794 OFFCURVE",
"289 800 OFFCURVE",
"280 800 CURVE SMOOTH",
"36 800 LINE SMOOTH",
"27 800 OFFCURVE",
"21 794 OFFCURVE",
"21 785 CURVE SMOOTH",
"21 15 LINE SMOOTH",
"21 6 OFFCURVE",
"27 0 OFFCURVE",
"36 0 CURVE SMOOTH"
);
}
);
width = 759;
}
);
unicode = 01C8;
},
{
glyphname = Lmiddletilde;
lastChange = "2023-10-05 19:45:44 +0000";
layers = (
{
layerId = "462F72A0-0500-4E69-A49B-6C2F2580580D";
width = 600;
},
{
components = (
{
name = L;
}
);
layerId = m002;
paths = (
{
closed = 1;
nodes = (
"-100 364 OFFCURVE",
"-96 358 OFFCURVE",
"-88 358 CURVE SMOOTH",
"-29 358 LINE SMOOTH",
"-21 358 OFFCURVE",
"-14 363 OFFCURVE",
"-12 369 CURVE SMOOTH",
"9 426 LINE",
"140 426 LINE",
"166 373 LINE SMOOTH",
"170 364 OFFCURVE",
"177 358 OFFCURVE",
"187 358 CURVE SMOOTH",
"324 358 LINE SMOOTH",
"335 358 OFFCURVE",
"339 362 OFFCURVE",
"343 370 CURVE SMOOTH",
"408 493 LINE SMOOTH",
"413 502 OFFCURVE",
"409 508 OFFCURVE",
"401 508 CURVE SMOOTH",
"332 508 LINE SMOOTH",
"324 508 OFFCURVE",
"317 503 OFFCURVE",
"315 497 CURVE SMOOTH",
"294 440 LINE",
"183 440 LINE",
"157 493 LINE SMOOTH",
"153 502 OFFCURVE",
"146 508 OFFCURVE",
"136 508 CURVE SMOOTH",
"-13 508 LINE SMOOTH",
"-24 508 OFFCURVE",
"-28 504 OFFCURVE",
"-32 496 CURVE SMOOTH",
"-95 373 LINE SMOOTH"
);
}
);
width = 417;
}
);
unicode = 2C62;
},
{
glyphname = Lslash;
lastChange = "2023-10-09 21:24:54 +0000";
layers = (
{
components = (
{
name = L;
}
);
layerId = "462F72A0-0500-4E69-A49B-6C2F2580580D";
paths = (
{
closed = 1;
nodes = (
"340 492 LINE SMOOTH",
"347 496 OFFCURVE",
"351 501 OFFCURVE",
"351 509 CURVE SMOOTH",
"351 598 LINE SMOOTH",
"351 609 OFFCURVE",
"343 614 OFFCURVE",
"333 609 CURVE SMOOTH",
"-1 443 LINE SMOOTH",
"-8 439 OFFCURVE",
"-12 434 OFFCURVE",
"-12 426 CURVE SMOOTH",
"-12 337 LINE SMOOTH",
"-12 326 OFFCURVE",
"-4 321 OFFCURVE",
"6 326 CURVE SMOOTH"
);
}
);
width = 466;
},
{
components = (
{
name = L;
}
);
layerId = m002;
paths = (
{
closed = 1;
nodes = (
"340 492 LINE SMOOTH",
"347 496 OFFCURVE",
"351 501 OFFCURVE",
"351 509 CURVE SMOOTH",
"351 598 LINE SMOOTH",
"351 609 OFFCURVE",
"343 614 OFFCURVE",
"333 609 CURVE SMOOTH",
"-1 443 LINE SMOOTH",
"-8 439 OFFCURVE",
"-12 434 OFFCURVE",
"-12 426 CURVE SMOOTH",
"-12 337 LINE SMOOTH",
"-12 326 OFFCURVE",
"-4 321 OFFCURVE",
"6 326 CURVE SMOOTH"
);
}
);
width = 417;
}
);
rightMetricsKey = "=L";
unicode = "0141,0142";
},
{
color = 0;
glyphname = M;
lastChange = "2023-10-16 21:49:57 +0000";
layers = (
{
anchors = (
{
name = bottom;
position = "{500, 0}";
},
{
name = top;
position = "{500, 800}";
}
);
layerId = "462F72A0-0500-4E69-A49B-6C2F2580580D";
paths = (
{
closed = 1;
nodes = (
"310 0 LINE SMOOTH",
"319 0 OFFCURVE",
"325 6 OFFCURVE",
"325 15 CURVE SMOOTH",
"325 640 LINE",
"375 640 LINE",
"375 15 LINE SMOOTH",
"375 6 OFFCURVE",
"381 0 OFFCURVE",
"390 0 CURVE SMOOTH",
"610 0 LINE SMOOTH",
"619 0 OFFCURVE",
"625 6 OFFCURVE",
"625 15 CURVE SMOOTH",
"625 640 LINE",
"675 640 LINE",
"675 15 LINE SMOOTH",
"675 6 OFFCURVE",
"681 0 OFFCURVE",
"690 0 CURVE SMOOTH",
"910 0 LINE SMOOTH",
"919 0 OFFCURVE",
"925 6 OFFCURVE",
"925 15 CURVE SMOOTH",
"925 646 LINE SMOOTH",
"925 656 OFFCURVE",
"922 663 OFFCURVE",
"915 670 CURVE SMOOTH",
"795 790 LINE SMOOTH",
"788 797 OFFCURVE",
"781 800 OFFCURVE",
"771 800 CURVE SMOOTH",
"639 800 LINE SMOOTH",
"629 800 OFFCURVE",
"622 797 OFFCURVE",
"615 790 CURVE SMOOTH",
"514 689 LINE",
"486 689 LINE",
"385 790 LINE SMOOTH",
"378 797 OFFCURVE",
"371 800 OFFCURVE",
"361 800 CURVE SMOOTH",
"229 800 LINE SMOOTH",
"219 800 OFFCURVE",
"212 797 OFFCURVE",
"205 790 CURVE SMOOTH",
"85 670 LINE SMOOTH",
"78 663 OFFCURVE",
"75 656 OFFCURVE",
"75 646 CURVE SMOOTH",
"75 15 LINE SMOOTH",
"75 6 OFFCURVE",
"81 0 OFFCURVE",
"90 0 CURVE SMOOTH"
);
}
);
width = 1000;
},
{
anchors = (
{
name = bottom;
position = "{368, 0}";
},
{
name = top;
position = "{368, 800}";
}
);
associatedMasterId = "462F72A0-0500-4E69-A49B-6C2F2580580D";
layerId = "9942C253-D868-423E-B459-293273BC47C7";
name = "Jul 30 22, 01:46";
paths = (
{
closed = 1;
nodes = (
"30 7 OFFCURVE",
"37 0 OFFCURVE",
"45 0 CURVE SMOOTH",
"249 0 LINE SMOOTH",
"257 0 OFFCURVE",
"259 7 OFFCURVE",
"259 15 CURVE SMOOTH",
"259 386 LINE",
"279 386 LINE",
"293 122 LINE SMOOTH",
"293 115 OFFCURVE",
"300 109 OFFCURVE",
"307 109 CURVE SMOOTH",
"423 109 LINE SMOOTH",
"430 109 OFFCURVE",
"437 115 OFFCURVE",
"438 122 CURVE SMOOTH",
"457 386 LINE",
"477 386 LINE",
"477 15 LINE SMOOTH",
"477 7 OFFCURVE",
"478 0 OFFCURVE",
"486 0 CURVE SMOOTH",
"690 0 LINE SMOOTH",
"698 0 OFFCURVE",
"705 7 OFFCURVE",
"705 15 CURVE SMOOTH",
"705 785 LINE SMOOTH",
"705 793 OFFCURVE",
"698 800 OFFCURVE",
"690 800 CURVE SMOOTH",
"413 800 LINE SMOOTH",
"406 800 OFFCURVE",
"400 796 OFFCURVE",
"399 788 CURVE SMOOTH",
"375 507 LINE",
"361 507 LINE",
"336 788 LINE SMOOTH",
"335 796 OFFCURVE",
"329 800 OFFCURVE",
"322 800 CURVE SMOOTH",
"45 800 LINE SMOOTH",
"37 800 OFFCURVE",
"30 793 OFFCURVE",
"30 785 CURVE SMOOTH",
"30 15 LINE SMOOTH"
);
}
);
width = 735;
},
{
anchors = (
{
name = bottom;
position = "{368, 0}";
},
{
name = top;
position = "{368, 800}";
}
);
associatedMasterId = "462F72A0-0500-4E69-A49B-6C2F2580580D";
layerId = "C6E8B324-C2B6-4435-A495-12900C5EBB12";
name = "Jul 30 22, 01:47";
paths = (
{
closed = 1;
nodes = (
"30 7 OFFCURVE",
"37 0 OFFCURVE",
"45 0 CURVE SMOOTH",
"249 0 LINE SMOOTH",
"257 0 OFFCURVE",
"259 7 OFFCURVE",
"259 15 CURVE SMOOTH",
"259 386 LINE",
"269 386 LINE",
"293 122 LINE SMOOTH",
"294 115 OFFCURVE",
"300 109 OFFCURVE",
"307 109 CURVE SMOOTH",
"423 109 LINE SMOOTH",
"430 109 OFFCURVE",
"437 115 OFFCURVE",
"438 122 CURVE SMOOTH",
"467 386 LINE",
"477 386 LINE",
"477 15 LINE SMOOTH",
"477 7 OFFCURVE",
"478 0 OFFCURVE",
"486 0 CURVE SMOOTH",
"690 0 LINE SMOOTH",
"698 0 OFFCURVE",
"705 7 OFFCURVE",
"705 15 CURVE SMOOTH",
"705 785 LINE SMOOTH",
"705 793 OFFCURVE",
"698 800 OFFCURVE",
"690 800 CURVE SMOOTH",
"413 800 LINE SMOOTH",
"406 800 OFFCURVE",
"400 796 OFFCURVE",
"399 788 CURVE SMOOTH",
"371 507 LINE",
"365 507 LINE",
"336 788 LINE SMOOTH",
"335 796 OFFCURVE",
"329 800 OFFCURVE",
"322 800 CURVE SMOOTH",
"45 800 LINE SMOOTH",
"37 800 OFFCURVE",
"30 793 OFFCURVE",
"30 785 CURVE SMOOTH",
"30 15 LINE SMOOTH"
);
}
);
width = 735;
},
{
anchors = (
{
name = bottom;
position = "{443, -20}";
},
{
name = top;
position = "{438, 770}";
}
);
layerId = m002;
paths = (
{
closed = 1;
nodes = (
"260 0 LINE SMOOTH",
"269 0 OFFCURVE",
"275 6 OFFCURVE",
"275 15 CURVE SMOOTH",
"275 510 LINE",
"325 510 LINE",
"325 15 LINE SMOOTH",
"325 6 OFFCURVE",
"331 0 OFFCURVE",
"340 0 CURVE SMOOTH",
"560 0 LINE SMOOTH",
"569 0 OFFCURVE",
"575 6 OFFCURVE",
"575 15 CURVE SMOOTH",
"575 510 LINE",
"625 510 LINE",
"625 15 LINE SMOOTH",
"625 6 OFFCURVE",
"631 0 OFFCURVE",
"640 0 CURVE SMOOTH",
"860 0 LINE SMOOTH",
"869 0 OFFCURVE",
"875 6 OFFCURVE",
"875 15 CURVE SMOOTH",
"875 646 LINE SMOOTH",
"875 656 OFFCURVE",
"872 663 OFFCURVE",
"865 670 CURVE SMOOTH",
"745 790 LINE SMOOTH",
"738 797 OFFCURVE",
"731 800 OFFCURVE",
"721 800 CURVE SMOOTH",
"589 800 LINE SMOOTH",
"579 800 OFFCURVE",
"572 797 OFFCURVE",
"565 790 CURVE SMOOTH",
"464 689 LINE",
"436 689 LINE",
"335 790 LINE SMOOTH",
"328 797 OFFCURVE",
"321 800 OFFCURVE",
"311 800 CURVE SMOOTH",
"179 800 LINE SMOOTH",
"169 800 OFFCURVE",
"162 797 OFFCURVE",
"155 790 CURVE SMOOTH",
"35 670 LINE SMOOTH",
"28 663 OFFCURVE",
"25 656 OFFCURVE",
"25 646 CURVE SMOOTH",
"25 15 LINE SMOOTH",
"25 6 OFFCURVE",
"31 0 OFFCURVE",
"40 0 CURVE SMOOTH"
);
}
);
width = 900;
},
{
anchors = (
{
name = bottom;
position = "{368, 0}";
},
{
name = top;
position = "{368, 800}";
}
);
associatedMasterId = m002;
layerId = "E6318F33-3A96-4708-A324-217491F126C0";
name = "Jul 30 22, 01:46";
paths = (
{
closed = 1;
nodes = (
"30 7 OFFCURVE",
"37 0 OFFCURVE",
"45 0 CURVE SMOOTH",
"249 0 LINE SMOOTH",
"257 0 OFFCURVE",
"259 7 OFFCURVE",
"259 15 CURVE SMOOTH",
"259 386 LINE",
"279 386 LINE",
"293 122 LINE SMOOTH",
"293 115 OFFCURVE",
"300 109 OFFCURVE",
"307 109 CURVE SMOOTH",
"423 109 LINE SMOOTH",
"430 109 OFFCURVE",
"437 115 OFFCURVE",
"438 122 CURVE SMOOTH",
"457 386 LINE",
"477 386 LINE",
"477 15 LINE SMOOTH",
"477 7 OFFCURVE",
"478 0 OFFCURVE",
"486 0 CURVE SMOOTH",
"690 0 LINE SMOOTH",
"698 0 OFFCURVE",
"705 7 OFFCURVE",
"705 15 CURVE SMOOTH",
"705 785 LINE SMOOTH",
"705 793 OFFCURVE",
"698 800 OFFCURVE",
"690 800 CURVE SMOOTH",
"413 800 LINE SMOOTH",
"406 800 OFFCURVE",
"400 796 OFFCURVE",
"399 788 CURVE SMOOTH",
"375 507 LINE",
"361 507 LINE",
"336 788 LINE SMOOTH",
"335 796 OFFCURVE",
"329 800 OFFCURVE",
"322 800 CURVE SMOOTH",
"45 800 LINE SMOOTH",
"37 800 OFFCURVE",
"30 793 OFFCURVE",
"30 785 CURVE SMOOTH",
"30 15 LINE SMOOTH"
);
}
);
width = 735;
},
{
anchors = (
{
name = bottom;
position = "{368, 0}";
},
{
name = top;
position = "{368, 800}";
}
);
associatedMasterId = m002;
layerId = "068ACCD8-D675-41BA-9C5D-0B82AD58D73A";
name = "Jul 30 22, 01:47";
paths = (
{
closed = 1;
nodes = (
"30 7 OFFCURVE",
"37 0 OFFCURVE",
"45 0 CURVE SMOOTH",
"249 0 LINE SMOOTH",
"257 0 OFFCURVE",
"259 7 OFFCURVE",
"259 15 CURVE SMOOTH",
"259 386 LINE",
"269 386 LINE",
"293 122 LINE SMOOTH",
"294 115 OFFCURVE",
"300 109 OFFCURVE",
"307 109 CURVE SMOOTH",
"423 109 LINE SMOOTH",
"430 109 OFFCURVE",
"437 115 OFFCURVE",
"438 122 CURVE SMOOTH",
"467 386 LINE",
"477 386 LINE",
"477 15 LINE SMOOTH",
"477 7 OFFCURVE",
"478 0 OFFCURVE",
"486 0 CURVE SMOOTH",
"690 0 LINE SMOOTH",
"698 0 OFFCURVE",
"705 7 OFFCURVE",
"705 15 CURVE SMOOTH",
"705 785 LINE SMOOTH",
"705 793 OFFCURVE",
"698 800 OFFCURVE",
"690 800 CURVE SMOOTH",
"413 800 LINE SMOOTH",
"406 800 OFFCURVE",
"400 796 OFFCURVE",
"399 788 CURVE SMOOTH",
"371 507 LINE",
"365 507 LINE",
"336 788 LINE SMOOTH",
"335 796 OFFCURVE",
"329 800 OFFCURVE",
"322 800 CURVE SMOOTH",
"45 800 LINE SMOOTH",
"37 800 OFFCURVE",
"30 793 OFFCURVE",
"30 785 CURVE SMOOTH",
"30 15 LINE SMOOTH"
);
}
);
width = 735;
}
);
leftMetricsKey = "=H";
rightMetricsKey = "=H";
unicode = 004D;
},
{
color = 0;
glyphname = N;
lastChange = "2023-10-16 21:42:48 +0000";
layers = (
{
anchors = (
{
name = bottom;
position = "{306, -30}";
},
{
name = top;
position = "{306, 800}";
}
);
layerId = "462F72A0-0500-4E69-A49B-6C2F2580580D";
paths = (
{
closed = 1;
nodes = (
"260 0 LINE SMOOTH",
"269 0 OFFCURVE",
"275 6 OFFCURVE",
"275 15 CURVE SMOOTH",
"275 640 LINE",
"385 640 LINE",
"385 15 LINE SMOOTH",
"385 6 OFFCURVE",
"391 0 OFFCURVE",
"400 0 CURVE SMOOTH",
"570 0 LINE SMOOTH",
"579 0 OFFCURVE",
"585 6 OFFCURVE",
"585 15 CURVE SMOOTH",
"585 646 LINE SMOOTH",
"585 656 OFFCURVE",
"582 663 OFFCURVE",
"575 670 CURVE SMOOTH",
"455 790 LINE SMOOTH",
"448 797 OFFCURVE",
"441 800 OFFCURVE",
"431 800 CURVE SMOOTH",
"90 800 LINE SMOOTH",
"81 800 OFFCURVE",
"75 794 OFFCURVE",
"75 785 CURVE SMOOTH",
"75 15 LINE SMOOTH",
"75 6 OFFCURVE",
"81 0 OFFCURVE",
"90 0 CURVE SMOOTH"
);
}
);
width = 660;
},
{
anchors = (
{
name = bottom;
position = "{306, -30}";
},
{
name = top;
position = "{306, 800}";
}
);
layerId = m002;
paths = (
{
closed = 1;
nodes = (
"260 0 LINE SMOOTH",
"269 0 OFFCURVE",
"275 6 OFFCURVE",
"275 15 CURVE SMOOTH",
"275 560 LINE",
"325 560 LINE",
"325 15 LINE SMOOTH",
"325 6 OFFCURVE",
"331 0 OFFCURVE",
"340 0 CURVE SMOOTH",
"560 0 LINE SMOOTH",
"569 0 OFFCURVE",
"575 6 OFFCURVE",
"575 15 CURVE SMOOTH",
"575 646 LINE SMOOTH",
"575 656 OFFCURVE",
"572 663 OFFCURVE",
"565 670 CURVE SMOOTH",
"445 790 LINE SMOOTH",
"438 797 OFFCURVE",
"431 800 OFFCURVE",
"421 800 CURVE SMOOTH",
"40 800 LINE SMOOTH",
"31 800 OFFCURVE",
"25 794 OFFCURVE",
"25 785 CURVE SMOOTH",
"25 15 LINE SMOOTH",
"25 6 OFFCURVE",
"31 0 OFFCURVE",
"40 0 CURVE SMOOTH"
);
}
);
width = 600;
}
);
leftMetricsKey = H;
rightMetricsKey = H;
unicode = 004E;
},
{
glyphname = NJ;
lastChange = "2023-10-05 19:45:44 +0000";
layers = (
{
anchors = (
{
name = bottom;
position = "{790, 0}";
},
{
name = top;
position = "{820, 800}";
}
);
components = (
{
name = N;
}
);
layerId = "462F72A0-0500-4E69-A49B-6C2F2580580D";
paths = (
{
closed = 1;
nodes = (
"795 -227 LINE SMOOTH",
"802 -227 OFFCURVE",
"809 -224 OFFCURVE",
"813 -218 CURVE SMOOTH",
"905 -84 LINE SMOOTH",
"909 -78 OFFCURVE",
"912 -72 OFFCURVE",
"912 -65 CURVE SMOOTH",
"912 785 LINE SMOOTH",
"912 794 OFFCURVE",
"906 800 OFFCURVE",
"897 800 CURVE SMOOTH",
"679 800 LINE SMOOTH",
"670 800 OFFCURVE",
"664 794 OFFCURVE",
"664 785 CURVE SMOOTH",
"664 65 LINE SMOOTH",
"664 58 OFFCURVE",
"661 51 OFFCURVE",
"657 46 CURVE SMOOTH",
"598 -26 LINE SMOOTH",
"594 -31 OFFCURVE",
"592 -37 OFFCURVE",
"592 -44 CURVE SMOOTH",
"592 -212 LINE SMOOTH",
"592 -221 OFFCURVE",
"598 -227 OFFCURVE",
"607 -227 CURVE SMOOTH"
);
}
);
width = 990;
},
{
anchors = (
{
name = bottom;
position = "{790, 0}";
},
{
name = top;
position = "{820, 800}";
}
);
components = (
{
name = N;
}
);
layerId = m002;
paths = (
{
closed = 1;
nodes = (
"795 -227 LINE SMOOTH",
"802 -227 OFFCURVE",
"809 -224 OFFCURVE",
"813 -218 CURVE SMOOTH",
"905 -84 LINE SMOOTH",
"909 -78 OFFCURVE",
"912 -72 OFFCURVE",
"912 -65 CURVE SMOOTH",
"912 785 LINE SMOOTH",
"912 794 OFFCURVE",
"906 800 OFFCURVE",
"897 800 CURVE SMOOTH",
"679 800 LINE SMOOTH",
"670 800 OFFCURVE",
"664 794 OFFCURVE",
"664 785 CURVE SMOOTH",
"664 65 LINE SMOOTH",
"664 58 OFFCURVE",
"661 51 OFFCURVE",
"657 46 CURVE SMOOTH",
"598 -26 LINE SMOOTH",
"594 -31 OFFCURVE",
"592 -37 OFFCURVE",
"592 -44 CURVE SMOOTH",
"592 -212 LINE SMOOTH",
"592 -221 OFFCURVE",
"598 -227 OFFCURVE",
"607 -227 CURVE SMOOTH"
);
}
);
width = 990;
}
);
unicode = "01CA,01CC";
},
{
glyphname = Nhookleft;
lastChange = "2023-10-05 19:45:44 +0000";
layers = (
{
components = (
{
name = N;
}
);
layerId = "462F72A0-0500-4E69-A49B-6C2F2580580D";
paths = (
{
closed = 1;
nodes = (
"127 -144 LINE SMOOTH",
"142 -144 OFFCURVE",
"156 -140 OFFCURVE",
"166 -130 CURVE SMOOTH",
"238 -61 LINE SMOOTH",
"250 -50 OFFCURVE",
"255 -39 OFFCURVE",
"255 -25 CURVE SMOOTH",
"255 39 LINE SMOOTH",
"255 88 OFFCURVE",
"226 84 OFFCURVE",
"192 84 CURVE",
"52 84 LINE",
"33 84 OFFCURVE",
"21 104 OFFCURVE",
"21 86 CURVE SMOOTH",
"21 19 LINE",
"-25 19 LINE SMOOTH",
"-43 19 OFFCURVE",
"-55 6 OFFCURVE",
"-55 -12 CURVE SMOOTH",
"-55 -114 LINE SMOOTH",
"-55 -132 OFFCURVE",
"-43 -144 OFFCURVE",
"-25 -144 CURVE SMOOTH"
);
}
);
width = 594;
},
{
components = (
{
name = N;
}
);
layerId = m002;
paths = (
{
closed = 1;
nodes = (
"127 -144 LINE SMOOTH",
"142 -144 OFFCURVE",
"156 -140 OFFCURVE",
"166 -130 CURVE SMOOTH",
"238 -61 LINE SMOOTH",
"250 -50 OFFCURVE",
"255 -39 OFFCURVE",
"255 -25 CURVE SMOOTH",
"255 39 LINE SMOOTH",
"255 88 OFFCURVE",
"226 84 OFFCURVE",
"192 84 CURVE",
"52 84 LINE",
"33 84 OFFCURVE",
"21 104 OFFCURVE",
"21 86 CURVE SMOOTH",
"21 19 LINE",
"-25 19 LINE SMOOTH",
"-43 19 OFFCURVE",
"-55 6 OFFCURVE",
"-55 -12 CURVE SMOOTH",
"-55 -114 LINE SMOOTH",
"-55 -132 OFFCURVE",
"-43 -144 OFFCURVE",
"-25 -144 CURVE SMOOTH"
);
}
);
width = 594;
}
);
unicode = "019D,0272";
},
{
glyphname = Nlongrightleg;
lastChange = "2023-10-05 19:45:44 +0000";
layers = (
{
layerId = "462F72A0-0500-4E69-A49B-6C2F2580580D";
width = 600;
},
{
layerId = m002;
paths = (
{
closed = 1;
nodes = (
"260 0 LINE SMOOTH",
"269 0 OFFCURVE",
"275 6 OFFCURVE",
"275 15 CURVE SMOOTH",
"275 560 LINE",
"325 560 LINE",
"325 -235 LINE SMOOTH",
"325 -244 OFFCURVE",
"331 -250 OFFCURVE",
"340 -250 CURVE SMOOTH",
"560 -250 LINE SMOOTH",
"569 -250 OFFCURVE",
"575 -244 OFFCURVE",
"575 -235 CURVE SMOOTH",
"575 646 LINE SMOOTH",
"575 656 OFFCURVE",
"572 663 OFFCURVE",
"565 670 CURVE SMOOTH",
"445 790 LINE SMOOTH",
"438 797 OFFCURVE",
"431 800 OFFCURVE",
"421 800 CURVE SMOOTH",
"40 800 LINE SMOOTH",
"31 800 OFFCURVE",
"25 794 OFFCURVE",
"25 785 CURVE SMOOTH",
"25 15 LINE SMOOTH",
"25 6 OFFCURVE",
"31 0 OFFCURVE",
"40 0 CURVE SMOOTH"
);
}
);
width = 600;
}
);
unicode = 0220;
},
{
glyphname = Eng;
lastChange = "2023-10-05 19:45:44 +0000";
layers = (
{
components = (
{
name = N;
}
);
layerId = "462F72A0-0500-4E69-A49B-6C2F2580580D";
paths = (
{
closed = 1;
nodes = (
"445 -144 LINE SMOOTH",
"460 -144 OFFCURVE",
"474 -140 OFFCURVE",
"484 -130 CURVE SMOOTH",
"556 -61 LINE SMOOTH",
"568 -50 OFFCURVE",
"573 -39 OFFCURVE",
"573 -25 CURVE SMOOTH",
"573 7 LINE SMOOTH",
"573 56 OFFCURVE",
"544 84 OFFCURVE",
"510 84 CURVE",
"376 84 LINE",
"357 84 OFFCURVE",
"324 75 OFFCURVE",
"329 59 CURVE SMOOTH",
"346 0 LINE",
"299 1 LINE SMOOTH",
"281 1 OFFCURVE",
"269 -12 OFFCURVE",
"269 -30 CURVE SMOOTH",
"269 -114 LINE SMOOTH",
"269 -132 OFFCURVE",
"281 -144 OFFCURVE",
"299 -144 CURVE SMOOTH"
);
}
);
width = 594;
},
{
components = (
{
name = N;
}
);
layerId = m002;
paths = (
{
closed = 1;
nodes = (
"445 -144 LINE SMOOTH",
"460 -144 OFFCURVE",
"474 -140 OFFCURVE",
"484 -130 CURVE SMOOTH",
"556 -61 LINE SMOOTH",
"568 -50 OFFCURVE",
"573 -39 OFFCURVE",
"573 -25 CURVE SMOOTH",
"573 7 LINE SMOOTH",
"573 56 OFFCURVE",
"544 84 OFFCURVE",
"510 84 CURVE",
"376 84 LINE",
"357 84 OFFCURVE",
"324 75 OFFCURVE",
"329 59 CURVE SMOOTH",
"346 0 LINE",
"299 1 LINE SMOOTH",
"281 1 OFFCURVE",
"269 -12 OFFCURVE",
"269 -30 CURVE SMOOTH",
"269 -114 LINE SMOOTH",
"269 -132 OFFCURVE",
"281 -144 OFFCURVE",
"299 -144 CURVE SMOOTH"
);
}
);
width = 594;
}
);
unicode = "014A,014B";
},
{
color = 3;
glyphname = O;
lastChange = "2023-10-16 19:31:39 +0000";
layers = (
{
anchors = (
{
name = bottom;
position = "{306, -30}";
},
{
name = center;
position = "{306, 400}";
},
{
name = ogonek;
position = "{537, 10}";
},
{
name = top;
position = "{306, 800}";
},
{
name = topleft;
position = "{37, 800}";
},
{
name = topright;
position = "{552, 790}";
}
);
associatedMasterId = "462F72A0-0500-4E69-A49B-6C2F2580580D";
layerId = "F41F3562-3C0B-4214-8D2F-E4B547B75B1E";
name = "Original modified";
paths = (
{
closed = 1;
nodes = (
"576 102 LINE SMOOTH",
"582 107 OFFCURVE",
"584 113 OFFCURVE",
"584 120 CURVE SMOOTH",
"584 659 LINE SMOOTH",
"584 666 OFFCURVE",
"582 672 OFFCURVE",
"577 678 CURVE SMOOTH",
"467 792 LINE SMOOTH",
"462 798 OFFCURVE",
"455 800 OFFCURVE",
"448 800 CURVE SMOOTH",
"164 800 LINE SMOOTH",
"157 800 OFFCURVE",
"150 798 OFFCURVE",
"145 792 CURVE SMOOTH",
"35 678 LINE SMOOTH",
"30 672 OFFCURVE",
"28 666 OFFCURVE",
"28 659 CURVE SMOOTH",
"28 120 LINE SMOOTH",
"28 113 OFFCURVE",
"30 107 OFFCURVE",
"36 102 CURVE SMOOTH",
"145 7 LINE SMOOTH",
"150 2 OFFCURVE",
"157 0 OFFCURVE",
"164 0 CURVE SMOOTH",
"448 0 LINE SMOOTH",
"455 0 OFFCURVE",
"462 2 OFFCURVE",
"467 7 CURVE SMOOTH"
);
},
{
closed = 1;
nodes = (
"328 575 OFFCURVE",
"337 562 OFFCURVE",
"337 543 CURVE",
"337 252 LINE",
"337 240 OFFCURVE",
"324 228 OFFCURVE",
"307 228 CURVE SMOOTH",
"287 228 OFFCURVE",
"276 240 OFFCURVE",
"276 252 CURVE",
"276 543 LINE",
"276 562 OFFCURVE",
"287 575 OFFCURVE",
"307 575 CURVE SMOOTH"
);
}
);
width = 612;
},
{
anchors = (
{
name = bottom;
position = "{306, -30}";
},
{
name = center;
position = "{306, 400}";
},
{
name = ogonek;
position = "{537, 10}";
},
{
name = top;
position = "{306, 800}";
},
{
name = topleft;
position = "{37, 800}";
},
{
name = topright;
position = "{552, 790}";
}
);
associatedMasterId = "462F72A0-0500-4E69-A49B-6C2F2580580D";
layerId = "BBB23940-A844-4195-93EB-158D47E9EBEA";
name = "Jun 2 22, 02:22";
paths = (
{
closed = 1;
nodes = (
"448 0 LINE SMOOTH",
"455 0 OFFCURVE",
"462 2 OFFCURVE",
"467 7 CURVE SMOOTH",
"576 102 LINE SMOOTH",
"582 107 OFFCURVE",
"584 113 OFFCURVE",
"584 120 CURVE SMOOTH",
"584 659 LINE SMOOTH",
"584 666 OFFCURVE",
"582 672 OFFCURVE",
"577 678 CURVE SMOOTH",
"467 792 LINE SMOOTH",
"462 798 OFFCURVE",
"455 800 OFFCURVE",
"448 800 CURVE SMOOTH",
"164 800 LINE SMOOTH",
"157 800 OFFCURVE",
"150 798 OFFCURVE",
"145 792 CURVE SMOOTH",
"35 678 LINE SMOOTH",
"30 672 OFFCURVE",
"28 666 OFFCURVE",
"28 659 CURVE SMOOTH",
"28 120 LINE SMOOTH",
"28 113 OFFCURVE",
"30 107 OFFCURVE",
"36 102 CURVE SMOOTH",
"145 7 LINE SMOOTH",
"150 2 OFFCURVE",
"157 0 OFFCURVE",
"164 0 CURVE SMOOTH"
);
},
{
closed = 1;
nodes = (
"286 228 OFFCURVE",
"276 241 OFFCURVE",
"276 260 CURVE SMOOTH",
"276 543 LINE",
"276 562 OFFCURVE",
"286 575 OFFCURVE",
"307 575 CURVE SMOOTH",
"328 575 OFFCURVE",
"338 562 OFFCURVE",
"338 543 CURVE",
"338 260 LINE SMOOTH",
"338 241 OFFCURVE",
"328 228 OFFCURVE",
"307 228 CURVE SMOOTH"
);
}
);
width = 612;
},
{
anchors = (
{
name = bottom;
position = "{306, -30}";
},
{
name = center;
position = "{306, 400}";
},
{
name = ogonek;
position = "{537, 10}";
},
{
name = top;
position = "{306, 800}";
},
{
name = topleft;
position = "{37, 800}";
},
{
name = topright;
position = "{552, 790}";
}
);
associatedMasterId = "462F72A0-0500-4E69-A49B-6C2F2580580D";
layerId = "9E2A38EE-2803-401B-9D1A-CA68C2F1C8F6";
name = "Jun 2 22, 02:23";
paths = (
{
closed = 1;
nodes = (
"448 0 LINE SMOOTH",
"455 0 OFFCURVE",
"462 2 OFFCURVE",
"467 7 CURVE SMOOTH",
"576 102 LINE SMOOTH",
"582 107 OFFCURVE",
"584 113 OFFCURVE",
"584 120 CURVE SMOOTH",
"584 659 LINE SMOOTH",
"584 666 OFFCURVE",
"582 672 OFFCURVE",
"577 678 CURVE SMOOTH",
"467 792 LINE SMOOTH",
"462 798 OFFCURVE",
"455 800 OFFCURVE",
"448 800 CURVE SMOOTH",
"164 800 LINE SMOOTH",
"157 800 OFFCURVE",
"150 798 OFFCURVE",
"145 792 CURVE SMOOTH",
"35 678 LINE SMOOTH",
"30 672 OFFCURVE",
"28 666 OFFCURVE",
"28 659 CURVE SMOOTH",
"28 120 LINE SMOOTH",
"28 113 OFFCURVE",
"30 107 OFFCURVE",
"36 102 CURVE SMOOTH",
"145 7 LINE SMOOTH",
"150 2 OFFCURVE",
"157 0 OFFCURVE",
"164 0 CURVE SMOOTH"
);
},
{
closed = 1;
nodes = (
"287 228 OFFCURVE",
"276 240 OFFCURVE",
"276 261 CURVE SMOOTH",
"276 542 LINE",
"276 563 OFFCURVE",
"287 575 OFFCURVE",
"307 575 CURVE SMOOTH",
"327 575 OFFCURVE",
"338 563 OFFCURVE",
"338 542 CURVE",
"338 261 LINE SMOOTH",
"338 240 OFFCURVE",
"327 228 OFFCURVE",
"307 228 CURVE SMOOTH"
);
}
);
width = 612;
},
{
anchors = (
{
name = bottom;
position = "{306, -30}";
},
{
name = center;
position = "{306, 400}";
},
{
name = ogonek;
position = "{537, 10}";
},
{
name = top;
position = "{306, 800}";
},
{
name = topleft;
position = "{37, 800}";
},
{
name = topright;
position = "{552, 790}";
}
);
associatedMasterId = "462F72A0-0500-4E69-A49B-6C2F2580580D";
layerId = "0B6860AB-4073-49CC-9F84-6AA2FC65E6F6";
name = "Jun 2 22, 02:30";
paths = (
{
closed = 1;
nodes = (
"448 0 LINE SMOOTH",
"455 0 OFFCURVE",
"462 2 OFFCURVE",
"467 7 CURVE SMOOTH",
"576 102 LINE SMOOTH",
"582 107 OFFCURVE",
"584 113 OFFCURVE",
"584 120 CURVE SMOOTH",
"584 659 LINE SMOOTH",
"584 666 OFFCURVE",
"582 672 OFFCURVE",
"577 678 CURVE SMOOTH",
"467 792 LINE SMOOTH",
"462 798 OFFCURVE",
"455 800 OFFCURVE",
"448 800 CURVE SMOOTH",
"164 800 LINE SMOOTH",
"157 800 OFFCURVE",
"150 798 OFFCURVE",
"145 792 CURVE SMOOTH",
"35 678 LINE SMOOTH",
"30 672 OFFCURVE",
"28 666 OFFCURVE",
"28 659 CURVE SMOOTH",
"28 120 LINE SMOOTH",
"28 113 OFFCURVE",
"30 107 OFFCURVE",
"36 102 CURVE SMOOTH",
"145 7 LINE SMOOTH",
"150 2 OFFCURVE",
"157 0 OFFCURVE",
"164 0 CURVE SMOOTH"
);
},
{
closed = 1;
nodes = (
"287 228 OFFCURVE",
"276 240 OFFCURVE",
"276 262 CURVE SMOOTH",
"276 541 LINE SMOOTH",
"276 563 OFFCURVE",
"287 575 OFFCURVE",
"307 575 CURVE SMOOTH",
"327 575 OFFCURVE",
"338 563 OFFCURVE",
"338 541 CURVE SMOOTH",
"338 262 LINE SMOOTH",
"338 240 OFFCURVE",
"327 228 OFFCURVE",
"307 228 CURVE SMOOTH"
);
}
);
width = 612;
},
{
anchors = (
{
name = bottom;
position = "{310, -30}";
},
{
name = center;
position = "{309, 400}";
},
{
name = ogonek;
position = "{540, 10}";
},
{
name = top;
position = "{310, 800}";
},
{
name = topleft;
position = "{40, 800}";
},
{
name = topright;
position = "{555, 790}";
}
);
associatedMasterId = "462F72A0-0500-4E69-A49B-6C2F2580580D";
layerId = "C33C8B93-FF66-4402-9B4F-7A3B58D75BB0";
name = "Jun 2 22, 04:22";
paths = (
{
closed = 1;
nodes = (
"454 0 LINE SMOOTH",
"461 0 OFFCURVE",
"468 2 OFFCURVE",
"473 7 CURVE SMOOTH",
"582 102 LINE SMOOTH",
"588 107 OFFCURVE",
"590 113 OFFCURVE",
"590 120 CURVE SMOOTH",
"590 659 LINE SMOOTH",
"590 666 OFFCURVE",
"588 672 OFFCURVE",
"583 678 CURVE SMOOTH",
"473 792 LINE SMOOTH",
"468 798 OFFCURVE",
"461 800 OFFCURVE",
"454 800 CURVE SMOOTH",
"164 800 LINE SMOOTH",
"157 800 OFFCURVE",
"150 798 OFFCURVE",
"145 792 CURVE SMOOTH",
"35 678 LINE SMOOTH",
"30 672 OFFCURVE",
"28 666 OFFCURVE",
"28 659 CURVE SMOOTH",
"28 120 LINE SMOOTH",
"28 113 OFFCURVE",
"30 107 OFFCURVE",
"36 102 CURVE SMOOTH",
"145 7 LINE SMOOTH",
"150 2 OFFCURVE",
"157 0 OFFCURVE",
"164 0 CURVE SMOOTH"
);
},
{
closed = 1;
nodes = (
"290 228 OFFCURVE",
"278 240 OFFCURVE",
"278 262 CURVE SMOOTH",
"278 541 LINE SMOOTH",
"278 563 OFFCURVE",
"290 575 OFFCURVE",
"310 575 CURVE SMOOTH",
"330 575 OFFCURVE",
"342 563 OFFCURVE",
"342 541 CURVE SMOOTH",
"342 262 LINE SMOOTH",
"342 240 OFFCURVE",
"330 228 OFFCURVE",
"310 228 CURVE SMOOTH"
);
}
);
width = 618;
},
{
anchors = (
{
name = bottom;
position = "{309, -30}";
},
{
name = center;
position = "{308, 400}";
},
{
name = ogonek;
position = "{539, 10}";
},
{
name = top;
position = "{309, 800}";
},
{
name = topleft;
position = "{39, 800}";
},
{
name = topright;
position = "{554, 790}";
}
);
associatedMasterId = "462F72A0-0500-4E69-A49B-6C2F2580580D";
guideLines = (
{
angle = 90;
position = "{308, 0}";
showMeasurement = 1;
}
);
layerId = "D7293291-EF9B-46AD-AA74-C94D66320AE3";
name = /A;
paths = (
{
closed = 1;
nodes = (
"263 0 LINE SMOOTH",
"272 0 OFFCURVE",
"278 6 OFFCURVE",
"278 15 CURVE SMOOTH",
"278 228 LINE",
"338 228 LINE",
"338 15 LINE SMOOTH",
"338 6 OFFCURVE",
"344 0 OFFCURVE",
"353 0 CURVE SMOOTH",
"567 0 LINE SMOOTH",
"576 0 OFFCURVE",
"582 6 OFFCURVE",
"582 15 CURVE SMOOTH",
"582 571 LINE SMOOTH",
"582 578 OFFCURVE",
"580 583 OFFCURVE",
"576 589 CURVE SMOOTH",
"434 791 LINE SMOOTH",
"430 797 OFFCURVE",
"423 800 OFFCURVE",
"415 800 CURVE SMOOTH",
"200 800 LINE SMOOTH",
"192 800 OFFCURVE",
"185 797 OFFCURVE",
"181 791 CURVE SMOOTH",
"40 589 LINE SMOOTH",
"36 583 OFFCURVE",
"34 578 OFFCURVE",
"34 571 CURVE SMOOTH",
"34 15 LINE SMOOTH",
"34 6 OFFCURVE",
"40 0 OFFCURVE",
"49 0 CURVE SMOOTH"
);
},
{
closed = 1;
nodes = (
"274 437 OFFCURVE",
"250 461 OFFCURVE",
"250 495 CURVE SMOOTH",
"250 529 OFFCURVE",
"274 553 OFFCURVE",
"308 553 CURVE SMOOTH",
"342 553 OFFCURVE",
"366 529 OFFCURVE",
"366 495 CURVE SMOOTH",
"366 461 OFFCURVE",
"342 437 OFFCURVE",
"308 437 CURVE SMOOTH"
);
}
);
width = 616;
},
{
anchors = (
{
name = bottom;
position = "{309, -30}";
},
{
name = center;
position = "{308, 400}";
},
{
name = ogonek;
position = "{539, 10}";
},
{
name = top;
position = "{309, 800}";
},
{
name = topleft;
position = "{39, 800}";
},
{
name = topright;
position = "{554, 790}";
}
);
associatedMasterId = "462F72A0-0500-4E69-A49B-6C2F2580580D";
guideLines = (
{
angle = 90;
position = "{308, 0}";
showMeasurement = 1;
}
);
layerId = "885A7757-38AE-4384-9BCE-C8132219A168";
name = "Jul 29 22, 20:52";
paths = (
{
closed = 1;
nodes = (
"452 0 LINE SMOOTH",
"459 0 OFFCURVE",
"466 2 OFFCURVE",
"471 8 CURVE SMOOTH",
"581 122 LINE SMOOTH",
"586 128 OFFCURVE",
"588 134 OFFCURVE",
"588 141 CURVE SMOOTH",
"588 659 LINE SMOOTH",
"588 666 OFFCURVE",
"586 672 OFFCURVE",
"581 678 CURVE SMOOTH",
"471 792 LINE SMOOTH",
"466 798 OFFCURVE",
"459 800 OFFCURVE",
"452 800 CURVE SMOOTH",
"164 800 LINE SMOOTH",
"157 800 OFFCURVE",
"150 798 OFFCURVE",
"145 792 CURVE SMOOTH",
"35 678 LINE SMOOTH",
"30 672 OFFCURVE",
"28 666 OFFCURVE",
"28 659 CURVE SMOOTH",
"28 141 LINE SMOOTH",
"28 134 OFFCURVE",
"30 128 OFFCURVE",
"35 122 CURVE SMOOTH",
"145 8 LINE SMOOTH",
"150 2 OFFCURVE",
"157 0 OFFCURVE",
"164 0 CURVE SMOOTH"
);
},
{
closed = 1;
nodes = (
"288 226 OFFCURVE",
"276 238 OFFCURVE",
"276 260 CURVE SMOOTH",
"276 540 LINE SMOOTH",
"276 562 OFFCURVE",
"288 574 OFFCURVE",
"308 574 CURVE SMOOTH",
"328 574 OFFCURVE",
"340 562 OFFCURVE",
"340 540 CURVE SMOOTH",
"340 260 LINE SMOOTH",
"340 238 OFFCURVE",
"328 226 OFFCURVE",
"308 226 CURVE SMOOTH"
);
}
);
width = 616;
},
{
anchors = (
{
name = bottom;
position = "{308, -30}";
},
{
name = center;
position = "{307, 400}";
},
{
name = ogonek;
position = "{538, 10}";
},
{
name = top;
position = "{308, 800}";
},
{
name = topleft;
position = "{38, 800}";
},
{
name = topright;
position = "{553, 790}";
}
);
associatedMasterId = "462F72A0-0500-4E69-A49B-6C2F2580580D";
guideLines = (
{
angle = 90;
position = "{307, 0}";
showMeasurement = 1;
}
);
layerId = "AE51C8C2-EE82-4541-ADA8-3D40C34776A4";
name = "Jul 30 22, 02:14";
paths = (
{
closed = 1;
nodes = (
"451 0 LINE SMOOTH",
"458 0 OFFCURVE",
"465 2 OFFCURVE",
"470 8 CURVE SMOOTH",
"580 136 LINE SMOOTH",
"585 142 OFFCURVE",
"587 148 OFFCURVE",
"587 155 CURVE SMOOTH",
"587 645 LINE SMOOTH",
"587 652 OFFCURVE",
"585 658 OFFCURVE",
"580 664 CURVE SMOOTH",
"470 792 LINE SMOOTH",
"465 798 OFFCURVE",
"458 800 OFFCURVE",
"451 800 CURVE SMOOTH",
"168 800 LINE SMOOTH",
"161 800 OFFCURVE",
"154 798 OFFCURVE",
"149 792 CURVE SMOOTH",
"34 664 LINE SMOOTH",
"29 658 OFFCURVE",
"27 652 OFFCURVE",
"27 645 CURVE SMOOTH",
"27 155 LINE SMOOTH",
"27 148 OFFCURVE",
"29 142 OFFCURVE",
"34 136 CURVE SMOOTH",
"144 8 LINE SMOOTH",
"149 2 OFFCURVE",
"156 0 OFFCURVE",
"163 0 CURVE SMOOTH"
);
},
{
closed = 1;
nodes = (
"287 226 OFFCURVE",
"275 238 OFFCURVE",
"275 260 CURVE SMOOTH",
"275 540 LINE SMOOTH",
"275 562 OFFCURVE",
"287 574 OFFCURVE",
"307 574 CURVE SMOOTH",
"327 574 OFFCURVE",
"339 562 OFFCURVE",
"339 540 CURVE SMOOTH",
"339 260 LINE SMOOTH",
"339 238 OFFCURVE",
"327 226 OFFCURVE",
"307 226 CURVE SMOOTH"
);
}
);
width = 614;
},
{
anchors = (
{
name = bottom;
position = "{351, -30}";
},
{
name = center;
position = "{350, 400}";
},
{
name = ogonek;
position = "{581, 10}";
},
{
name = top;
position = "{351, 800}";
},
{
name = topleft;
position = "{81, 800}";
},
{
name = topright;
position = "{596, 790}";
}
);
guideLines = (
{
angle = 90;
position = "{350, 0}";
showMeasurement = 1;
}
);
layerId = "462F72A0-0500-4E69-A49B-6C2F2580580D";
paths = (
{
closed = 1;
nodes = (
"471 0 LINE SMOOTH",
"481 0 OFFCURVE",
"488 3 OFFCURVE",
"495 10 CURVE SMOOTH",
"615 130 LINE SMOOTH",
"622 137 OFFCURVE",
"625 144 OFFCURVE",
"625 154 CURVE SMOOTH",
"625 646 LINE SMOOTH",
"625 656 OFFCURVE",
"622 663 OFFCURVE",
"615 670 CURVE SMOOTH",
"495 790 LINE SMOOTH",
"488 797 OFFCURVE",
"481 800 OFFCURVE",
"471 800 CURVE SMOOTH",
"229 800 LINE SMOOTH",
"219 800 OFFCURVE",
"212 797 OFFCURVE",
"205 790 CURVE SMOOTH",
"85 670 LINE SMOOTH",
"78 663 OFFCURVE",
"75 656 OFFCURVE",
"75 646 CURVE SMOOTH",
"75 154 LINE SMOOTH",
"75 144 OFFCURVE",
"78 137 OFFCURVE",
"85 130 CURVE SMOOTH",
"205 10 LINE SMOOTH",
"212 3 OFFCURVE",
"219 0 OFFCURVE",
"229 0 CURVE SMOOTH"
);
},
{
closed = 1;
nodes = (
"290 160 OFFCURVE",
"283 172 OFFCURVE",
"283 194 CURVE SMOOTH",
"283 606 LINE SMOOTH",
"283 628 OFFCURVE",
"290 640 OFFCURVE",
"308 640 CURVE SMOOTH",
"392 640 LINE SMOOTH",
"410 640 OFFCURVE",
"417 628 OFFCURVE",
"417 606 CURVE SMOOTH",
"417 194 LINE SMOOTH",
"417 172 OFFCURVE",
"410 160 OFFCURVE",
"392 160 CURVE SMOOTH",
"308 160 LINE SMOOTH"
);
}
);
width = 700;
},
{
anchors = (
{
name = bottom;
position = "{306, -30}";
},
{
name = center;
position = "{306, 400}";
},
{
name = ogonek;
position = "{537, 10}";
},
{
name = top;
position = "{306, 800}";
},
{
name = topleft;
position = "{37, 800}";
},
{
name = topright;
position = "{552, 790}";
}
);
associatedMasterId = m002;
layerId = "8D310696-1E0A-4CDB-B69A-3F783F1AE484";
name = "Original modified";
paths = (
{
closed = 1;
nodes = (
"576 102 LINE SMOOTH",
"582 107 OFFCURVE",
"584 113 OFFCURVE",
"584 120 CURVE SMOOTH",
"584 659 LINE SMOOTH",
"584 666 OFFCURVE",
"582 672 OFFCURVE",
"577 678 CURVE SMOOTH",
"467 792 LINE SMOOTH",
"462 798 OFFCURVE",
"455 800 OFFCURVE",
"448 800 CURVE SMOOTH",
"164 800 LINE SMOOTH",
"157 800 OFFCURVE",
"150 798 OFFCURVE",
"145 792 CURVE SMOOTH",
"35 678 LINE SMOOTH",
"30 672 OFFCURVE",
"28 666 OFFCURVE",
"28 659 CURVE SMOOTH",
"28 120 LINE SMOOTH",
"28 113 OFFCURVE",
"30 107 OFFCURVE",
"36 102 CURVE SMOOTH",
"145 7 LINE SMOOTH",
"150 2 OFFCURVE",
"157 0 OFFCURVE",
"164 0 CURVE SMOOTH",
"448 0 LINE SMOOTH",
"455 0 OFFCURVE",
"462 2 OFFCURVE",
"467 7 CURVE SMOOTH"
);
},
{
closed = 1;
nodes = (
"328 575 OFFCURVE",
"337 562 OFFCURVE",
"337 543 CURVE",
"337 252 LINE",
"337 240 OFFCURVE",
"324 228 OFFCURVE",
"307 228 CURVE SMOOTH",
"287 228 OFFCURVE",
"276 240 OFFCURVE",
"276 252 CURVE",
"276 543 LINE",
"276 562 OFFCURVE",
"287 575 OFFCURVE",
"307 575 CURVE SMOOTH"
);
}
);
width = 612;
},
{
anchors = (
{
name = bottom;
position = "{306, -30}";
},
{
name = center;
position = "{306, 400}";
},
{
name = ogonek;
position = "{537, 10}";
},
{
name = top;
position = "{306, 800}";
},
{
name = topleft;
position = "{37, 800}";
},
{
name = topright;
position = "{552, 790}";
}
);
associatedMasterId = m002;
layerId = "16C986B1-8099-4324-8481-6257613F91CA";
name = "Jun 2 22, 02:22";
paths = (
{
closed = 1;
nodes = (
"448 0 LINE SMOOTH",
"455 0 OFFCURVE",
"462 2 OFFCURVE",
"467 7 CURVE SMOOTH",
"576 102 LINE SMOOTH",
"582 107 OFFCURVE",
"584 113 OFFCURVE",
"584 120 CURVE SMOOTH",
"584 659 LINE SMOOTH",
"584 666 OFFCURVE",
"582 672 OFFCURVE",
"577 678 CURVE SMOOTH",
"467 792 LINE SMOOTH",
"462 798 OFFCURVE",
"455 800 OFFCURVE",
"448 800 CURVE SMOOTH",
"164 800 LINE SMOOTH",
"157 800 OFFCURVE",
"150 798 OFFCURVE",
"145 792 CURVE SMOOTH",
"35 678 LINE SMOOTH",
"30 672 OFFCURVE",
"28 666 OFFCURVE",
"28 659 CURVE SMOOTH",
"28 120 LINE SMOOTH",
"28 113 OFFCURVE",
"30 107 OFFCURVE",
"36 102 CURVE SMOOTH",
"145 7 LINE SMOOTH",
"150 2 OFFCURVE",
"157 0 OFFCURVE",
"164 0 CURVE SMOOTH"
);
},
{
closed = 1;
nodes = (
"286 228 OFFCURVE",
"276 241 OFFCURVE",
"276 260 CURVE SMOOTH",
"276 543 LINE",
"276 562 OFFCURVE",
"286 575 OFFCURVE",
"307 575 CURVE SMOOTH",
"328 575 OFFCURVE",
"338 562 OFFCURVE",
"338 543 CURVE",
"338 260 LINE SMOOTH",
"338 241 OFFCURVE",
"328 228 OFFCURVE",
"307 228 CURVE SMOOTH"
);
}
);
width = 612;
},
{
anchors = (
{
name = bottom;
position = "{306, -30}";
},
{
name = center;
position = "{306, 400}";
},
{
name = ogonek;
position = "{537, 10}";
},
{
name = top;
position = "{306, 800}";
},
{
name = topleft;
position = "{37, 800}";
},
{
name = topright;
position = "{552, 790}";
}
);
associatedMasterId = m002;
layerId = "F1632B4C-5161-43FB-B3D1-70752BCB9FFD";
name = "Jun 2 22, 02:23";
paths = (
{
closed = 1;
nodes = (
"448 0 LINE SMOOTH",
"455 0 OFFCURVE",
"462 2 OFFCURVE",
"467 7 CURVE SMOOTH",
"576 102 LINE SMOOTH",
"582 107 OFFCURVE",
"584 113 OFFCURVE",
"584 120 CURVE SMOOTH",
"584 659 LINE SMOOTH",
"584 666 OFFCURVE",
"582 672 OFFCURVE",
"577 678 CURVE SMOOTH",
"467 792 LINE SMOOTH",
"462 798 OFFCURVE",
"455 800 OFFCURVE",
"448 800 CURVE SMOOTH",
"164 800 LINE SMOOTH",
"157 800 OFFCURVE",
"150 798 OFFCURVE",
"145 792 CURVE SMOOTH",
"35 678 LINE SMOOTH",
"30 672 OFFCURVE",
"28 666 OFFCURVE",
"28 659 CURVE SMOOTH",
"28 120 LINE SMOOTH",
"28 113 OFFCURVE",
"30 107 OFFCURVE",
"36 102 CURVE SMOOTH",
"145 7 LINE SMOOTH",
"150 2 OFFCURVE",
"157 0 OFFCURVE",
"164 0 CURVE SMOOTH"
);
},
{
closed = 1;
nodes = (
"287 228 OFFCURVE",
"276 240 OFFCURVE",
"276 261 CURVE SMOOTH",
"276 542 LINE",
"276 563 OFFCURVE",
"287 575 OFFCURVE",
"307 575 CURVE SMOOTH",
"327 575 OFFCURVE",
"338 563 OFFCURVE",
"338 542 CURVE",
"338 261 LINE SMOOTH",
"338 240 OFFCURVE",
"327 228 OFFCURVE",
"307 228 CURVE SMOOTH"
);
}
);
width = 612;
},
{
anchors = (
{
name = bottom;
position = "{306, -30}";
},
{
name = center;
position = "{306, 400}";
},
{
name = ogonek;
position = "{537, 10}";
},
{
name = top;
position = "{306, 800}";
},
{
name = topleft;
position = "{37, 800}";
},
{
name = topright;
position = "{552, 790}";
}
);
associatedMasterId = m002;
layerId = "BC1BB8B9-F15D-40B5-9664-06AAB14BB582";
name = "Jun 2 22, 02:30";
paths = (
{
closed = 1;
nodes = (
"448 0 LINE SMOOTH",
"455 0 OFFCURVE",
"462 2 OFFCURVE",
"467 7 CURVE SMOOTH",
"576 102 LINE SMOOTH",
"582 107 OFFCURVE",
"584 113 OFFCURVE",
"584 120 CURVE SMOOTH",
"584 659 LINE SMOOTH",
"584 666 OFFCURVE",
"582 672 OFFCURVE",
"577 678 CURVE SMOOTH",
"467 792 LINE SMOOTH",
"462 798 OFFCURVE",
"455 800 OFFCURVE",
"448 800 CURVE SMOOTH",
"164 800 LINE SMOOTH",
"157 800 OFFCURVE",
"150 798 OFFCURVE",
"145 792 CURVE SMOOTH",
"35 678 LINE SMOOTH",
"30 672 OFFCURVE",
"28 666 OFFCURVE",
"28 659 CURVE SMOOTH",
"28 120 LINE SMOOTH",
"28 113 OFFCURVE",
"30 107 OFFCURVE",
"36 102 CURVE SMOOTH",
"145 7 LINE SMOOTH",
"150 2 OFFCURVE",
"157 0 OFFCURVE",
"164 0 CURVE SMOOTH"
);
},
{
closed = 1;
nodes = (
"287 228 OFFCURVE",
"276 240 OFFCURVE",
"276 262 CURVE SMOOTH",
"276 541 LINE SMOOTH",
"276 563 OFFCURVE",
"287 575 OFFCURVE",
"307 575 CURVE SMOOTH",
"327 575 OFFCURVE",
"338 563 OFFCURVE",
"338 541 CURVE SMOOTH",
"338 262 LINE SMOOTH",
"338 240 OFFCURVE",
"327 228 OFFCURVE",
"307 228 CURVE SMOOTH"
);
}
);
width = 612;
},
{
anchors = (
{
name = bottom;
position = "{310, -30}";
},
{
name = center;
position = "{309, 400}";
},
{
name = ogonek;
position = "{540, 10}";
},
{
name = top;
position = "{310, 800}";
},
{
name = topleft;
position = "{40, 800}";
},
{
name = topright;
position = "{555, 790}";
}
);
associatedMasterId = m002;
layerId = "0C0C0955-5AC9-4779-9761-192D4840C5A5";
name = "Jun 2 22, 04:22";
paths = (
{
closed = 1;
nodes = (
"454 0 LINE SMOOTH",
"461 0 OFFCURVE",
"468 2 OFFCURVE",
"473 7 CURVE SMOOTH",
"582 102 LINE SMOOTH",
"588 107 OFFCURVE",
"590 113 OFFCURVE",
"590 120 CURVE SMOOTH",
"590 659 LINE SMOOTH",
"590 666 OFFCURVE",
"588 672 OFFCURVE",
"583 678 CURVE SMOOTH",
"473 792 LINE SMOOTH",
"468 798 OFFCURVE",
"461 800 OFFCURVE",
"454 800 CURVE SMOOTH",
"164 800 LINE SMOOTH",
"157 800 OFFCURVE",
"150 798 OFFCURVE",
"145 792 CURVE SMOOTH",
"35 678 LINE SMOOTH",
"30 672 OFFCURVE",
"28 666 OFFCURVE",
"28 659 CURVE SMOOTH",
"28 120 LINE SMOOTH",
"28 113 OFFCURVE",
"30 107 OFFCURVE",
"36 102 CURVE SMOOTH",
"145 7 LINE SMOOTH",
"150 2 OFFCURVE",
"157 0 OFFCURVE",
"164 0 CURVE SMOOTH"
);
},
{
closed = 1;
nodes = (
"290 228 OFFCURVE",
"278 240 OFFCURVE",
"278 262 CURVE SMOOTH",
"278 541 LINE SMOOTH",
"278 563 OFFCURVE",
"290 575 OFFCURVE",
"310 575 CURVE SMOOTH",
"330 575 OFFCURVE",
"342 563 OFFCURVE",
"342 541 CURVE SMOOTH",
"342 262 LINE SMOOTH",
"342 240 OFFCURVE",
"330 228 OFFCURVE",
"310 228 CURVE SMOOTH"
);
}
);
width = 618;
},
{
anchors = (
{
name = bottom;
position = "{309, -30}";
},
{
name = center;
position = "{308, 400}";
},
{
name = ogonek;
position = "{539, 10}";
},
{
name = top;
position = "{309, 800}";
},
{
name = topleft;
position = "{39, 800}";
},
{
name = topright;
position = "{554, 790}";
}
);
associatedMasterId = m002;
guideLines = (
{
angle = 90;
position = "{308, 0}";
showMeasurement = 1;
}
);
layerId = "1F475E80-1980-4A6B-9EF6-9BAD5EA591B8";
name = /A;
paths = (
{
closed = 1;
nodes = (
"263 0 LINE SMOOTH",
"272 0 OFFCURVE",
"278 6 OFFCURVE",
"278 15 CURVE SMOOTH",
"278 228 LINE",
"338 228 LINE",
"338 15 LINE SMOOTH",
"338 6 OFFCURVE",
"344 0 OFFCURVE",
"353 0 CURVE SMOOTH",
"567 0 LINE SMOOTH",
"576 0 OFFCURVE",
"582 6 OFFCURVE",
"582 15 CURVE SMOOTH",
"582 571 LINE SMOOTH",
"582 578 OFFCURVE",
"580 583 OFFCURVE",
"576 589 CURVE SMOOTH",
"434 791 LINE SMOOTH",
"430 797 OFFCURVE",
"423 800 OFFCURVE",
"415 800 CURVE SMOOTH",
"200 800 LINE SMOOTH",
"192 800 OFFCURVE",
"185 797 OFFCURVE",
"181 791 CURVE SMOOTH",
"40 589 LINE SMOOTH",
"36 583 OFFCURVE",
"34 578 OFFCURVE",
"34 571 CURVE SMOOTH",
"34 15 LINE SMOOTH",
"34 6 OFFCURVE",
"40 0 OFFCURVE",
"49 0 CURVE SMOOTH"
);
},
{
closed = 1;
nodes = (
"274 437 OFFCURVE",
"250 461 OFFCURVE",
"250 495 CURVE SMOOTH",
"250 529 OFFCURVE",
"274 553 OFFCURVE",
"308 553 CURVE SMOOTH",
"342 553 OFFCURVE",
"366 529 OFFCURVE",
"366 495 CURVE SMOOTH",
"366 461 OFFCURVE",
"342 437 OFFCURVE",
"308 437 CURVE SMOOTH"
);
}
);
width = 616;
},
{
anchors = (
{
name = bottom;
position = "{309, -30}";
},
{
name = center;
position = "{308, 400}";
},
{
name = ogonek;
position = "{539, 10}";
},
{
name = top;
position = "{309, 800}";
},
{
name = topleft;
position = "{39, 800}";
},
{
name = topright;
position = "{554, 790}";
}
);
associatedMasterId = m002;
guideLines = (
{
angle = 90;
position = "{308, 0}";
showMeasurement = 1;
}
);
layerId = "7CA3B474-28BC-45D0-93CA-2ED4EE34B2F8";
name = "Jul 29 22, 20:52";
paths = (
{
closed = 1;
nodes = (
"452 0 LINE SMOOTH",
"459 0 OFFCURVE",
"466 2 OFFCURVE",
"471 8 CURVE SMOOTH",
"581 122 LINE SMOOTH",
"586 128 OFFCURVE",
"588 134 OFFCURVE",
"588 141 CURVE SMOOTH",
"588 659 LINE SMOOTH",
"588 666 OFFCURVE",
"586 672 OFFCURVE",
"581 678 CURVE SMOOTH",
"471 792 LINE SMOOTH",
"466 798 OFFCURVE",
"459 800 OFFCURVE",
"452 800 CURVE SMOOTH",
"164 800 LINE SMOOTH",
"157 800 OFFCURVE",
"150 798 OFFCURVE",
"145 792 CURVE SMOOTH",
"35 678 LINE SMOOTH",
"30 672 OFFCURVE",
"28 666 OFFCURVE",
"28 659 CURVE SMOOTH",
"28 141 LINE SMOOTH",
"28 134 OFFCURVE",
"30 128 OFFCURVE",
"35 122 CURVE SMOOTH",
"145 8 LINE SMOOTH",
"150 2 OFFCURVE",
"157 0 OFFCURVE",
"164 0 CURVE SMOOTH"
);
},
{
closed = 1;
nodes = (
"288 226 OFFCURVE",
"276 238 OFFCURVE",
"276 260 CURVE SMOOTH",
"276 540 LINE SMOOTH",
"276 562 OFFCURVE",
"288 574 OFFCURVE",
"308 574 CURVE SMOOTH",
"328 574 OFFCURVE",
"340 562 OFFCURVE",
"340 540 CURVE SMOOTH",
"340 260 LINE SMOOTH",
"340 238 OFFCURVE",
"328 226 OFFCURVE",
"308 226 CURVE SMOOTH"
);
}
);
width = 616;
},
{
anchors = (
{
name = bottom;
position = "{308, -30}";
},
{
name = center;
position = "{307, 400}";
},
{
name = ogonek;
position = "{538, 10}";
},
{
name = top;
position = "{308, 800}";
},
{
name = topleft;
position = "{38, 800}";
},
{
name = topright;
position = "{553, 790}";
}
);
associatedMasterId = m002;
guideLines = (
{
angle = 90;
position = "{307, 0}";
showMeasurement = 1;
}
);
layerId = "B8BE36B6-6581-4E31-B223-4699A44EA4B6";
name = "Jul 30 22, 02:14";
paths = (
{
closed = 1;
nodes = (
"451 0 LINE SMOOTH",
"458 0 OFFCURVE",
"465 2 OFFCURVE",
"470 8 CURVE SMOOTH",
"580 136 LINE SMOOTH",
"585 142 OFFCURVE",
"587 148 OFFCURVE",
"587 155 CURVE SMOOTH",
"587 645 LINE SMOOTH",
"587 652 OFFCURVE",
"585 658 OFFCURVE",
"580 664 CURVE SMOOTH",
"470 792 LINE SMOOTH",
"465 798 OFFCURVE",
"458 800 OFFCURVE",
"451 800 CURVE SMOOTH",
"168 800 LINE SMOOTH",
"161 800 OFFCURVE",
"154 798 OFFCURVE",
"149 792 CURVE SMOOTH",
"34 664 LINE SMOOTH",
"29 658 OFFCURVE",
"27 652 OFFCURVE",
"27 645 CURVE SMOOTH",
"27 155 LINE SMOOTH",
"27 148 OFFCURVE",
"29 142 OFFCURVE",
"34 136 CURVE SMOOTH",
"144 8 LINE SMOOTH",
"149 2 OFFCURVE",
"156 0 OFFCURVE",
"163 0 CURVE SMOOTH"
);
},
{
closed = 1;
nodes = (
"287 226 OFFCURVE",
"275 238 OFFCURVE",
"275 260 CURVE SMOOTH",
"275 540 LINE SMOOTH",
"275 562 OFFCURVE",
"287 574 OFFCURVE",
"307 574 CURVE SMOOTH",
"327 574 OFFCURVE",
"339 562 OFFCURVE",
"339 540 CURVE SMOOTH",
"339 260 LINE SMOOTH",
"339 238 OFFCURVE",
"327 226 OFFCURVE",
"307 226 CURVE SMOOTH"
);
}
);
width = 614;
},
{
anchors = (
{
name = bottom;
position = "{304, -30}";
},
{
name = center;
position = "{252, 400}";
},
{
name = ogonek;
position = "{423, 0}";
},
{
name = top;
position = "{304, 800}";
},
{
name = topleft;
position = "{-17, 800}";
},
{
name = topright;
position = "{498, 790}";
}
);
guideLines = (
{
angle = 90;
position = "{252, 0}";
showMeasurement = 1;
}
);
layerId = m002;
paths = (
{
closed = 1;
nodes = (
"425 0 LINE SMOOTH",
"435 0 OFFCURVE",
"442 3 OFFCURVE",
"449 10 CURVE SMOOTH",
"569 130 LINE SMOOTH",
"576 137 OFFCURVE",
"579 144 OFFCURVE",
"579 154 CURVE SMOOTH",
"579 646 LINE SMOOTH",
"579 656 OFFCURVE",
"576 663 OFFCURVE",
"569 670 CURVE SMOOTH",
"449 790 LINE SMOOTH",
"442 797 OFFCURVE",
"435 800 OFFCURVE",
"425 800 CURVE SMOOTH",
"179 800 LINE SMOOTH",
"169 800 OFFCURVE",
"162 797 OFFCURVE",
"155 790 CURVE SMOOTH",
"35 670 LINE SMOOTH",
"28 663 OFFCURVE",
"25 656 OFFCURVE",
"25 646 CURVE SMOOTH",
"25 154 LINE SMOOTH",
"25 144 OFFCURVE",
"28 137 OFFCURVE",
"35 130 CURVE SMOOTH",
"155 10 LINE SMOOTH",
"162 3 OFFCURVE",
"169 0 OFFCURVE",
"179 0 CURVE SMOOTH"
);
},
{
closed = 1;
nodes = (
"282 240 OFFCURVE",
"275 252 OFFCURVE",
"275 274 CURVE SMOOTH",
"275 526 LINE SMOOTH",
"275 548 OFFCURVE",
"282 560 OFFCURVE",
"300 560 CURVE SMOOTH",
"304 560 LINE SMOOTH",
"322 560 OFFCURVE",
"329 548 OFFCURVE",
"329 526 CURVE SMOOTH",
"329 274 LINE SMOOTH",
"329 252 OFFCURVE",
"322 240 OFFCURVE",
"304 240 CURVE SMOOTH",
"300 240 LINE SMOOTH"
);
}
);
width = 604;
}
);
leftMetricsKey = H;
rightMetricsKey = H;
unicode = 004F;
},
{
glyphname = OU;
lastChange = "2023-10-05 19:45:44 +0000";
layers = (
{
layerId = "462F72A0-0500-4E69-A49B-6C2F2580580D";
width = 600;
},
{
anchors = (
{
name = bottom;
position = "{251, -30}";
},
{
name = center;
position = "{250, 400}";
},
{
name = ogonek;
position = "{481, 10}";
},
{
name = top;
position = "{251, 800}";
},
{
name = topleft;
position = "{-19, 800}";
},
{
name = topright;
position = "{496, 790}";
}
);
layerId = m002;
paths = (
{
closed = 1;
nodes = (
"421 0 LINE SMOOTH",
"431 0 OFFCURVE",
"438 3 OFFCURVE",
"445 10 CURVE SMOOTH",
"565 130 LINE SMOOTH",
"572 137 OFFCURVE",
"575 144 OFFCURVE",
"575 154 CURVE SMOOTH",
"575 470 LINE SMOOTH",
"575 480 OFFCURVE",
"572 487 OFFCURVE",
"565 494 CURVE SMOOTH",
"445 614 LINE SMOOTH",
"438 621 OFFCURVE",
"431 624 OFFCURVE",
"421 624 CURVE SMOOTH",
"179 624 LINE SMOOTH",
"169 624 OFFCURVE",
"162 621 OFFCURVE",
"155 614 CURVE SMOOTH",
"35 494 LINE SMOOTH",
"28 487 OFFCURVE",
"25 480 OFFCURVE",
"25 470 CURVE SMOOTH",
"25 154 LINE SMOOTH",
"25 144 OFFCURVE",
"28 137 OFFCURVE",
"35 130 CURVE SMOOTH",
"155 10 LINE SMOOTH",
"162 3 OFFCURVE",
"169 0 OFFCURVE",
"179 0 CURVE SMOOTH"
);
},
{
closed = 1;
nodes = (
"280 240 OFFCURVE",
"273 252 OFFCURVE",
"273 274 CURVE SMOOTH",
"273 350 LINE SMOOTH",
"273 372 OFFCURVE",
"280 384 OFFCURVE",
"298 384 CURVE SMOOTH",
"302 384 LINE SMOOTH",
"320 384 OFFCURVE",
"327 372 OFFCURVE",
"327 350 CURVE SMOOTH",
"327 274 LINE SMOOTH",
"327 252 OFFCURVE",
"320 240 OFFCURVE",
"302 240 CURVE SMOOTH",
"298 240 LINE SMOOTH"
);
},
{
closed = 1;
nodes = (
"421 384 LINE SMOOTH",
"431 384 OFFCURVE",
"438 387 OFFCURVE",
"445 394 CURVE SMOOTH",
"565 514 LINE SMOOTH",
"572 521 OFFCURVE",
"575 528 OFFCURVE",
"575 538 CURVE SMOOTH",
"575 800 LINE",
"327 800 LINE",
"327 658 LINE SMOOTH",
"327 636 OFFCURVE",
"320 624 OFFCURVE",
"302 624 CURVE SMOOTH",
"298 624 LINE SMOOTH",
"280 624 OFFCURVE",
"273 636 OFFCURVE",
"273 658 CURVE SMOOTH",
"273 800 LINE",
"25 800 LINE",
"25 538 LINE SMOOTH",
"25 528 OFFCURVE",
"28 521 OFFCURVE",
"35 514 CURVE SMOOTH",
"155 394 LINE SMOOTH",
"162 387 OFFCURVE",
"169 384 OFFCURVE",
"179 384 CURVE SMOOTH"
);
}
);
width = 600;
}
);
unicode = 0222;
},
{
glyphname = "Omega-latin";
lastChange = "2023-10-05 19:45:44 +0000";
layers = (
{
layerId = "462F72A0-0500-4E69-A49B-6C2F2580580D";
width = 600;
},
{
layerId = m002;
paths = (
{
closed = 1;
nodes = (
"875 154 LINE SMOOTH",
"875 144 OFFCURVE",
"872 137 OFFCURVE",
"865 130 CURVE SMOOTH",
"745 10 LINE SMOOTH",
"738 3 OFFCURVE",
"731 0 OFFCURVE",
"721 0 CURVE SMOOTH",
"589 0 LINE SMOOTH",
"579 0 OFFCURVE",
"572 3 OFFCURVE",
"565 10 CURVE SMOOTH",
"464 111 LINE",
"436 111 LINE",
"335 10 LINE SMOOTH",
"328 3 OFFCURVE",
"321 0 OFFCURVE",
"311 0 CURVE SMOOTH",
"179 0 LINE SMOOTH",
"169 0 OFFCURVE",
"162 3 OFFCURVE",
"155 10 CURVE SMOOTH",
"35 130 LINE SMOOTH",
"28 137 OFFCURVE",
"25 144 OFFCURVE",
"25 154 CURVE SMOOTH",
"25 646 LINE SMOOTH",
"25 656 OFFCURVE",
"28 663 OFFCURVE",
"35 670 CURVE SMOOTH",
"155 790 LINE SMOOTH",
"162 797 OFFCURVE",
"169 800 OFFCURVE",
"179 800 CURVE SMOOTH",
"260 800 LINE SMOOTH",
"269 800 OFFCURVE",
"275 794 OFFCURVE",
"275 785 CURVE SMOOTH",
"275 290 LINE",
"325 290 LINE",
"325 785 LINE SMOOTH",
"325 794 OFFCURVE",
"331 800 OFFCURVE",
"340 800 CURVE SMOOTH",
"560 800 LINE SMOOTH",
"569 800 OFFCURVE",
"575 794 OFFCURVE",
"575 785 CURVE SMOOTH",
"575 290 LINE",
"625 290 LINE",
"625 785 LINE SMOOTH",
"625 794 OFFCURVE",
"631 800 OFFCURVE",
"640 800 CURVE SMOOTH",
"721 800 LINE SMOOTH",
"731 800 OFFCURVE",
"738 797 OFFCURVE",
"745 790 CURVE SMOOTH",
"865 670 LINE SMOOTH",
"872 663 OFFCURVE",
"875 656 OFFCURVE",
"875 646 CURVE SMOOTH"
);
}
);
width = 900;
}
);
unicode = A7B6;
},
{
glyphname = OE;
lastChange = "2023-10-12 19:39:25 +0000";
layers = (
{
associatedMasterId = "462F72A0-0500-4E69-A49B-6C2F2580580D";
components = (
{
name = O;
},
{
alignment = -1;
name = E;
transform = "{1, 0, 0, 1, 300, 0}";
}
);
layerId = "B771DCE8-F7BC-4EC8-842A-FB14B079C25B";
name = "Jul 10 22, 17:32";
width = 796;
},
{
anchors = (
{
name = bottom;
position = "{309, -30}";
},
{
name = center;
position = "{308, 400}";
},
{
name = ogonek;
position = "{539, 10}";
},
{
name = top;
position = "{309, 800}";
},
{
name = topleft;
position = "{39, 800}";
},
{
name = topright;
position = "{554, 790}";
}
);
associatedMasterId = "462F72A0-0500-4E69-A49B-6C2F2580580D";
layerId = "78042DB7-A5F5-4B9C-B355-1539F89D4BD7";
name = "Jul 10 22, 17:32";
paths = (
{
closed = 1;
nodes = (
"452 0 LINE SMOOTH",
"459 0 OFFCURVE",
"466 2 OFFCURVE",
"471 8 CURVE SMOOTH",
"581 122 LINE SMOOTH",
"586 128 OFFCURVE",
"588 134 OFFCURVE",
"588 141 CURVE SMOOTH",
"588 659 LINE SMOOTH",
"588 666 OFFCURVE",
"586 672 OFFCURVE",
"581 678 CURVE SMOOTH",
"471 792 LINE SMOOTH",
"466 798 OFFCURVE",
"459 800 OFFCURVE",
"452 800 CURVE SMOOTH",
"164 800 LINE SMOOTH",
"157 800 OFFCURVE",
"150 798 OFFCURVE",
"145 792 CURVE SMOOTH",
"35 678 LINE SMOOTH",
"30 672 OFFCURVE",
"28 666 OFFCURVE",
"28 659 CURVE SMOOTH",
"28 141 LINE SMOOTH",
"28 134 OFFCURVE",
"30 128 OFFCURVE",
"35 122 CURVE SMOOTH",
"145 8 LINE SMOOTH",
"150 2 OFFCURVE",
"157 0 OFFCURVE",
"164 0 CURVE SMOOTH"
);
},
{
closed = 1;
nodes = (
"288 226 OFFCURVE",
"276 238 OFFCURVE",
"276 260 CURVE SMOOTH",
"276 540 LINE SMOOTH",
"276 562 OFFCURVE",
"288 574 OFFCURVE",
"308 574 CURVE",
"340 574 LINE",
"340 226 LINE",
"308 226 LINE"
);
},
{
closed = 1;
nodes = (
"778 785 LINE SMOOTH",
"778 793 OFFCURVE",
"771 800 OFFCURVE",
"763 800 CURVE SMOOTH",
"345 800 LINE SMOOTH",
"337 800 OFFCURVE",
"330 793 OFFCURVE",
"330 785 CURVE SMOOTH",
"330 15 LINE SMOOTH",
"330 7 OFFCURVE",
"337 0 OFFCURVE",
"345 0 CURVE SMOOTH",
"777 1 LINE SMOOTH",
"785 1 OFFCURVE",
"792 8 OFFCURVE",
"792 16 CURVE SMOOTH",
"792 218 LINE SMOOTH",
"792 226 OFFCURVE",
"785 233 OFFCURVE",
"777 233 CURVE SMOOTH",
"577 233 LINE",
"577 279 LINE",
"763 279 LINE SMOOTH",
"771 279 OFFCURVE",
"778 286 OFFCURVE",
"778 294 CURVE SMOOTH",
"778 487 LINE SMOOTH",
"778 495 OFFCURVE",
"771 502 OFFCURVE",
"763 502 CURVE SMOOTH",
"577 502 LINE",
"577 556 LINE",
"763 556 LINE SMOOTH",
"771 556 OFFCURVE",
"778 563 OFFCURVE",
"778 571 CURVE SMOOTH"
);
}
);
width = 796;
},
{
anchors = (
{
name = bottom;
position = "{356, -30}";
},
{
name = center;
position = "{355, 400}";
},
{
name = ogonek;
position = "{586, 10}";
},
{
name = top;
position = "{356, 800}";
},
{
name = topleft;
position = "{86, 800}";
},
{
name = topright;
position = "{601, 790}";
}
);
layerId = "462F72A0-0500-4E69-A49B-6C2F2580580D";
paths = (
{
closed = 1;
nodes = (
"821 1 LINE SMOOTH",
"829 1 OFFCURVE",
"836 8 OFFCURVE",
"836 16 CURVE SMOOTH",
"836 218 LINE SMOOTH",
"836 226 OFFCURVE",
"829 233 OFFCURVE",
"821 233 CURVE SMOOTH",
"621 233 LINE",
"621 279 LINE",
"807 279 LINE SMOOTH",
"815 279 OFFCURVE",
"822 286 OFFCURVE",
"822 294 CURVE SMOOTH",
"822 487 LINE SMOOTH",
"822 495 OFFCURVE",
"815 502 OFFCURVE",
"807 502 CURVE SMOOTH",
"621 502 LINE",
"621 556 LINE",
"807 556 LINE SMOOTH",
"815 556 OFFCURVE",
"822 563 OFFCURVE",
"822 571 CURVE SMOOTH",
"822 785 LINE SMOOTH",
"822 793 OFFCURVE",
"815 800 OFFCURVE",
"807 800 CURVE SMOOTH",
"211 800 LINE SMOOTH",
"204 800 OFFCURVE",
"197 798 OFFCURVE",
"192 792 CURVE SMOOTH",
"82 678 LINE SMOOTH",
"77 672 OFFCURVE",
"75 666 OFFCURVE",
"75 659 CURVE SMOOTH",
"75 141 LINE SMOOTH",
"75 134 OFFCURVE",
"77 128 OFFCURVE",
"82 122 CURVE SMOOTH",
"192 8 LINE SMOOTH",
"197 2 OFFCURVE",
"204 0 OFFCURVE",
"211 0 CURVE SMOOTH"
);
},
{
closed = 1;
nodes = (
"335 226 OFFCURVE",
"323 238 OFFCURVE",
"323 260 CURVE SMOOTH",
"323 540 LINE SMOOTH",
"323 562 OFFCURVE",
"335 574 OFFCURVE",
"355 574 CURVE SMOOTH",
"375 574 OFFCURVE",
"387 562 OFFCURVE",
"387 540 CURVE SMOOTH",
"387 260 LINE SMOOTH",
"387 238 OFFCURVE",
"375 226 OFFCURVE",
"355 226 CURVE SMOOTH"
);
}
);
width = 911;
},
{
associatedMasterId = m002;
components = (
{
name = O;
},
{
alignment = -1;
name = E;
transform = "{1, 0, 0, 1, 300, 0}";
}
);
layerId = "A38F4E60-AD32-478F-B284-2DBAC7F6AD6B";
name = "Jul 10 22, 17:32";
width = 796;
},
{
anchors = (
{
name = bottom;
position = "{309, -30}";
},
{
name = center;
position = "{308, 400}";
},
{
name = ogonek;
position = "{539, 10}";
},
{
name = top;
position = "{309, 800}";
},
{
name = topleft;
position = "{39, 800}";
},
{
name = topright;
position = "{554, 790}";
}
);
associatedMasterId = m002;
layerId = "66B06FA0-ACFD-4ADD-867E-AE2FEE225A3C";
name = "Jul 10 22, 17:32";
paths = (
{
closed = 1;
nodes = (
"452 0 LINE SMOOTH",
"459 0 OFFCURVE",
"466 2 OFFCURVE",
"471 8 CURVE SMOOTH",
"581 122 LINE SMOOTH",
"586 128 OFFCURVE",
"588 134 OFFCURVE",
"588 141 CURVE SMOOTH",
"588 659 LINE SMOOTH",
"588 666 OFFCURVE",
"586 672 OFFCURVE",
"581 678 CURVE SMOOTH",
"471 792 LINE SMOOTH",
"466 798 OFFCURVE",
"459 800 OFFCURVE",
"452 800 CURVE SMOOTH",
"164 800 LINE SMOOTH",
"157 800 OFFCURVE",
"150 798 OFFCURVE",
"145 792 CURVE SMOOTH",
"35 678 LINE SMOOTH",
"30 672 OFFCURVE",
"28 666 OFFCURVE",
"28 659 CURVE SMOOTH",
"28 141 LINE SMOOTH",
"28 134 OFFCURVE",
"30 128 OFFCURVE",
"35 122 CURVE SMOOTH",
"145 8 LINE SMOOTH",
"150 2 OFFCURVE",
"157 0 OFFCURVE",
"164 0 CURVE SMOOTH"
);
},
{
closed = 1;
nodes = (
"288 226 OFFCURVE",
"276 238 OFFCURVE",
"276 260 CURVE SMOOTH",
"276 540 LINE SMOOTH",
"276 562 OFFCURVE",
"288 574 OFFCURVE",
"308 574 CURVE",
"340 574 LINE",
"340 226 LINE",
"308 226 LINE"
);
},
{
closed = 1;
nodes = (
"778 785 LINE SMOOTH",
"778 793 OFFCURVE",
"771 800 OFFCURVE",
"763 800 CURVE SMOOTH",
"345 800 LINE SMOOTH",
"337 800 OFFCURVE",
"330 793 OFFCURVE",
"330 785 CURVE SMOOTH",
"330 15 LINE SMOOTH",
"330 7 OFFCURVE",
"337 0 OFFCURVE",
"345 0 CURVE SMOOTH",
"777 1 LINE SMOOTH",
"785 1 OFFCURVE",
"792 8 OFFCURVE",
"792 16 CURVE SMOOTH",
"792 218 LINE SMOOTH",
"792 226 OFFCURVE",
"785 233 OFFCURVE",
"777 233 CURVE SMOOTH",
"577 233 LINE",
"577 279 LINE",
"763 279 LINE SMOOTH",
"771 279 OFFCURVE",
"778 286 OFFCURVE",
"778 294 CURVE SMOOTH",
"778 487 LINE SMOOTH",
"778 495 OFFCURVE",
"771 502 OFFCURVE",
"763 502 CURVE SMOOTH",
"577 502 LINE",
"577 556 LINE",
"763 556 LINE SMOOTH",
"771 556 OFFCURVE",
"778 563 OFFCURVE",
"778 571 CURVE SMOOTH"
);
}
);
width = 796;
},
{
anchors = (
{
name = bottom;
position = "{306, -30}";
},
{
name = center;
position = "{305, 400}";
},
{
name = ogonek;
position = "{536, 10}";
},
{
name = top;
position = "{306, 800}";
},
{
name = topleft;
position = "{36, 800}";
},
{
name = topright;
position = "{551, 790}";
}
);
layerId = m002;
paths = (
{
closed = 1;
nodes = (
"771 1 LINE SMOOTH",
"779 1 OFFCURVE",
"786 8 OFFCURVE",
"786 16 CURVE SMOOTH",
"786 218 LINE SMOOTH",
"786 226 OFFCURVE",
"779 233 OFFCURVE",
"771 233 CURVE SMOOTH",
"571 233 LINE",
"571 279 LINE",
"757 279 LINE SMOOTH",
"765 279 OFFCURVE",
"772 286 OFFCURVE",
"772 294 CURVE SMOOTH",
"772 487 LINE SMOOTH",
"772 495 OFFCURVE",
"765 502 OFFCURVE",
"757 502 CURVE SMOOTH",
"571 502 LINE",
"571 556 LINE",
"757 556 LINE SMOOTH",
"765 556 OFFCURVE",
"772 563 OFFCURVE",
"772 571 CURVE SMOOTH",
"772 785 LINE SMOOTH",
"772 793 OFFCURVE",
"765 800 OFFCURVE",
"757 800 CURVE SMOOTH",
"161 800 LINE SMOOTH",
"154 800 OFFCURVE",
"147 798 OFFCURVE",
"142 792 CURVE SMOOTH",
"32 678 LINE SMOOTH",
"27 672 OFFCURVE",
"25 666 OFFCURVE",
"25 659 CURVE SMOOTH",
"25 141 LINE SMOOTH",
"25 134 OFFCURVE",
"27 128 OFFCURVE",
"32 122 CURVE SMOOTH",
"142 8 LINE SMOOTH",
"147 2 OFFCURVE",
"154 0 OFFCURVE",
"161 0 CURVE SMOOTH"
);
},
{
closed = 1;
nodes = (
"285 226 OFFCURVE",
"273 238 OFFCURVE",
"273 260 CURVE SMOOTH",
"273 540 LINE SMOOTH",
"273 562 OFFCURVE",
"285 574 OFFCURVE",
"305 574 CURVE SMOOTH",
"325 574 OFFCURVE",
"337 562 OFFCURVE",
"337 540 CURVE SMOOTH",
"337 260 LINE SMOOTH",
"337 238 OFFCURVE",
"325 226 OFFCURVE",
"305 226 CURVE SMOOTH"
);
}
);
width = 811;
}
);
leftMetricsKey = "=O";
rightMetricsKey = "=E";
unicode = "0152,0153";
},
